<?xml version="1.0" encoding="UTF-8"?>
<svg width="941px" height="888px" viewBox="0 0 941 888" version="1.1" xmlns="http://www.w3.org/2000/svg" xmlns:xlink="http://www.w3.org/1999/xlink">
    <!-- Generator: Sketch 43.2 (39069) - http://www.bohemiancoding.com/sketch -->
    <title>Group</title>
    <desc>Created with Sketch.</desc>
    <defs></defs>
    <g id="Page-1" stroke="none" stroke-width="1" fill="none" fill-rule="evenodd">
        <g id="Group" fill-rule="nonzero" fill="#212122">
            <g id="a-b-magic">
                <path d="M710.85,3.77 C714.32,-5.42 723.04,4.98 718.9,10.93 C712.51,26.3 712.98,46.18 701.56,58.4 C700.46,39.78 707.49,21.86 710.85,3.77 Z" id="Shape"></path>
                <path d="M383.62,66.6 C395.04,68.14 396.55,80.73 397.96,89.9 C398.99,104.17 405.44,117.41 406.45,131.52 C394.5,123.05 394.3,106.67 390.36,93.81 C389.48,84.37 384.06,76.04 383.62,66.6 Z" id="Shape"></path>
                <path d="M825.3,119.29 C829.09,112.02 841.28,119.37 834.25,125.22 C818.68,140.94 810.98,164.57 792.03,176.43 C799.26,155.59 813.6,137.85 825.3,119.29 Z" id="Shape"></path>
                <path d="M111.7,59.79 C117.92,59.67 122.41,64.02 122.87,70.15 C126.27,88.4 132.93,106.21 146.41,119.42 C141.12,120.59 137.04,116.83 133.7,113.31 C120.38,98.83 115.42,78.49 111.7,59.79 Z" id="Shape"></path>
                <path d="M657.04,195.85 C663.46,193.15 668.41,199.77 665.55,205.64 C669.33,206.47 673.07,207.55 676.68,208.98 C675.01,211.85 673.11,214.57 670.96,217.1 C676.94,226.37 666.65,228.63 659.95,224.19 C656.73,227.57 653.33,234.57 647.73,231.52 C641.8,229.3 645.35,222.61 646.69,218.45 C642.3,216.82 638.09,214.09 637.65,208.98 C642.1,208.64 646.55,208.99 650.95,209.7 C653.31,205.25 653.94,199.81 657.04,195.85 Z" id="Shape"></path>
                <path d="M577.43,239.65 C588.33,240.86 587.76,254.61 588.34,262.81 C594.29,262.51 604.33,262.94 602.79,271.53 C598.57,274.6 592.88,274.06 587.99,275.31 C589.31,281.56 591.75,287.56 592.22,293.98 C584.61,295.08 579,289.24 572.15,287.46 C567.12,290.16 564.06,299.73 557.18,294.93 C549.84,291.63 555.16,284.16 557.91,279.52 C552.36,276.61 543.23,274.27 543.36,266.58 C550.16,264.33 557.63,267 564.37,264.47 C571.35,257.91 570.78,246.2 577.43,239.65 Z" id="Shape"></path>
                <path d="M931.96,211.94 C937.88,205.87 944.4,217.03 938,220.98 C916.24,238.7 899.93,262.59 876.49,278.28 C876.17,276.46 875.28,274.34 876.74,272.77 C894.55,251.98 913.29,231.99 931.96,211.94 Z" id="Shape"></path>
                <path d="M26.53,240.98 C31.59,241.2 36.68,243.01 39.44,247.52 C52.91,266.1 67.61,284.06 85.96,298.07 C91.84,303.31 99.86,306.55 103.53,313.91 C77.72,305.35 58.12,283.45 41.01,263.02 C36.71,255.33 27.04,250.39 26.53,240.98 Z" id="Shape"></path>
                <path d="M709.53,263.41 C709.92,256.38 722.73,258.95 721.18,265.51 C720,273.54 720.48,281.65 721.94,289.62 C727.08,288.46 734.53,286.52 737.61,292.33 C737.38,298.69 728.27,297.6 723.94,299.9 C725.84,307.71 737,309.29 736.32,317.87 C725.64,321.09 720.67,309.25 711.99,306.34 C704.55,308.12 699.5,319.16 690.98,315.11 C683.07,310.85 691.73,302.44 693.91,297.06 C688.61,295.79 683.1,293.85 680.23,288.84 C685.82,286.09 692.02,287.58 697.78,288.86 C703.1,281.11 707.86,272.77 709.53,263.41 Z" id="Shape"></path>
                <path d="M331.84,267.31 C332.66,258.74 348.71,262.27 345.48,270.42 C343.08,278.11 343.4,286.44 347.47,293.52 C353.7,293.1 360.03,293.58 365.82,296.11 C365.78,297.95 365.75,299.79 365.73,301.63 C363.14,302.5 360.56,303.35 357.99,304.25 C360.57,313.33 350.59,314.28 344.87,310.14 C334.76,304.11 330.89,323.86 321.01,317.14 C314.13,313.65 321.17,307.11 323.52,302.89 C317.71,301.2 307.71,301.56 306.32,294.35 C311.11,288 321.52,293.37 328.57,291.03 C331.21,283.37 331.94,275.34 331.84,267.31 Z" id="Shape"></path>
                <path d="M423.6,267.87 C443.03,263.14 463.09,262.91 482.96,262.99 C486.22,263.48 491.47,263.38 492.33,267.43 C488.24,326.27 491.41,385.57 483.46,444.22 C475.74,517.13 482.98,590.81 480.85,663.68 C478.27,670.34 485.13,683.81 474.22,684.37 C453.67,682.44 435.05,692.49 416.48,699.59 C411.5,701.91 405.86,701.2 401.61,697.76 C404.34,694.99 407.56,692.03 407.56,687.8 C409.08,670.4 408.19,652.9 408.57,635.46 C407.39,512.72 425.6,390.54 423.6,267.87 L423.6,267.87 Z M436.39,274.28 C433.47,360.57 428.7,446.76 423.13,532.92 C419.83,584.52 421.88,636.22 421.56,687.86 C435.56,682.55 449.74,677.55 464.62,675.31 C472.68,610.1 465.06,544.14 468.62,478.62 C470.68,444.72 475.55,411.03 476.77,377.07 C478.95,342 477.58,306.85 479.32,271.77 C464.98,270.57 450.42,270.82 436.39,274.28 Z" id="Shape"></path>
                <path d="M513.75,337.78 C567.83,320.13 636.14,318.37 680.32,359.68 C696.43,373.73 707.28,396.6 699.95,417.87 C691.19,448.46 664.22,469.82 634.68,478.94 C672.47,482.71 710.39,501.53 729.68,535.33 C739.68,552.92 741.37,577.3 727.34,593.29 C706.05,619.6 671.73,631.29 639.11,635.23 C613.54,638.58 585.94,641.65 561.54,631.44 C554.06,625.43 544.25,624.26 536.15,619.96 C534.88,609.32 519.88,605.01 525.5,592.86 C520.59,510.77 518.2,428.29 511.66,346.32 C512.85,345.5 514.03,344.67 515.23,343.86 C514.72,341.83 514.23,339.81 513.75,337.78 L513.75,337.78 Z M524.61,345.21 C528.98,428.68 533.06,512.26 539.46,595.64 C539.63,608.39 552.77,614.05 561.82,620.21 C579.96,633.85 604.07,630.22 625.23,629.28 C661.23,626.47 702.01,614.29 720.86,580.83 C730.94,559.92 720.28,535.42 704.73,520.28 C681.4,493.96 644.61,485.77 610.76,486.54 C604.61,489 590.01,480.66 599.85,475.86 C639.99,475.88 682.52,449.18 689.47,407.61 C692.73,381.34 671.49,360.5 650.68,348.31 C612.37,327.9 564.31,330.07 524.61,345.21 Z" id="Shape"></path>
                <path d="M223.95,357.06 C265.31,354.68 306.61,350.76 348.04,349.73 C355.92,350.45 369.3,348.55 370.78,359.24 C373.93,380.69 372.55,402.48 374.12,424.06 C375.92,497.01 382.29,569.8 391.61,642.15 C392.74,648.8 384.19,651.7 379.27,648.67 C358.42,641.01 336.75,653.58 315.67,650.67 C314.48,632.11 302.3,617.13 295.63,600.41 C286.64,582.75 281.14,563.75 275.81,544.76 C260.67,579.47 245.96,615.97 245.35,654.3 C243.75,657.39 239.85,657.68 236.79,657.24 C220.92,655.02 204.98,650.64 188.85,653.01 C183.81,654.04 178.85,652.33 174.91,649.2 C179.32,639.66 182.09,629.41 182.91,618.93 C191.24,544.4 202.56,470.26 212.99,396 C214.25,384.89 216.07,373.72 214.62,362.53 C213.39,357.12 220.42,357.36 223.95,357.06 L223.95,357.06 Z M274.79,360.71 C258.66,362.29 242.35,362.2 226.44,365.62 C218.91,455.71 200.45,544.69 193.99,634.92 C194.13,637.8 194.71,640.64 195.26,643.48 C207.54,644.43 219.7,646.44 231.96,647.69 C237.23,605.95 254.94,567.54 268.7,528.31 C274.85,526.63 284.67,525.89 285.71,534.36 C291.96,561.96 301.7,588.73 315.51,613.47 C320.24,622.82 326.55,631.94 327.1,642.75 C343.61,639.61 360.31,637.78 377.09,636.85 C377.18,625.32 375.43,613.9 374.45,602.44 C365.68,526.48 362.98,450.02 360.34,373.67 C359.24,368.2 360.79,358.34 353.16,357.67 C326.97,355.32 300.95,360.61 274.79,360.71 Z" id="Shape"></path>
                <path d="M914.93,363.94 C919.31,359.59 927.71,354.84 932.86,360.34 C936.18,367.75 924.61,368.91 920.46,372.46 C903.21,385.19 886.67,398.97 868.79,410.85 C866.35,412.55 863.32,411.93 860.61,411.57 C875.91,392.66 896.68,379.65 914.93,363.94 Z" id="Shape"></path>
                <path d="M746.47,386.54 C757.58,386.04 755.21,400.36 757.76,407.55 C767.9,404.8 786.29,402.89 788.42,416.76 C780.69,418.89 772.28,418.97 765.25,423.23 C767.77,426.86 769.29,431.2 767.15,435.43 C762.53,433.59 758.17,431.2 753.85,428.76 C754.8,440.79 743.63,442.51 734.4,439.56 C730.43,434.75 726.31,430.19 720.76,427.13 C715.33,420.26 727.42,417.54 731.21,413.51 C724.63,412.29 717.94,409.89 714.4,403.78 C721.65,399.37 728.78,405.08 735.85,406.61 C743.08,402.27 739.76,390.86 746.47,386.54 Z" id="Shape"></path>
                <path d="M590.94,393.28 C600.61,390.48 612.54,398.48 612.15,408.84 C610.46,420.23 598.36,425.16 594.05,435.16 C591.08,442.2 579.32,437.81 579.42,430.83 C578.14,418.76 575.43,406.97 571.97,395.36 C578.29,394.57 584.74,394.95 590.94,393.28 L590.94,393.28 Z M591.29,419.2 C595.78,414.44 600.03,408.28 597.88,401.4 C590.61,404.16 591.29,412.84 591.29,419.2 Z" id="Shape"></path>
                <path d="M77.89,410.17 C90.88,406.48 94.51,421.33 99.32,429.76 C106,436.12 103.45,446.05 108.05,453.51 C115.87,451.74 131.67,444.36 132.74,457.57 C126.26,462.03 118.32,464.05 112.16,469.14 C115.33,481.61 121.68,493.2 124.77,505.53 C117.25,513.78 109.63,501.38 101.87,499.89 C92.72,534.2 82.67,568.25 73.5,602.56 C58.47,654.32 40.06,705.1 27.68,757.63 C27.4,764.74 20.03,762.7 15.49,761.22 C10.54,766.61 0.07,762.85 0.64,755.49 C23.05,684.91 45.2,614.18 66.14,543.13 C71.01,525.94 78.74,509.74 83.86,492.65 C74.21,498.84 68.75,509.14 62,518 C57.26,523.44 50.83,517.49 47.89,513.2 C54.31,501.36 59.73,488.83 63.76,476.02 C59.61,466.09 40.55,467.01 41.56,454.11 C51.55,454.45 61.46,456.49 71.48,455.75 C74.89,440.76 86.13,425.48 77.89,410.17 Z" id="Shape"></path>
                <path d="M262.49,436.06 C267.64,433.9 276.13,431.23 278.83,438.15 C285.22,453.53 291.93,469.27 303.42,481.63 C306.8,485.09 302.34,489.83 298.28,488.7 C287.33,487.62 276.48,489.7 266.04,492.92 C261.53,494.19 253.64,493.83 252.97,488.05 C257.97,471.22 264.37,453.95 262.49,436.06 L262.49,436.06 Z M267.18,482.84 C273.76,481.41 281.8,482.3 287.47,479.42 C284.29,470.5 278.23,462.28 273.9,453.65 C271.04,463.23 268.94,473.01 267.18,482.84 Z" id="Shape"></path>
                <path d="M803.39,513.99 C807.5,513.75 815.15,512.37 815.53,518.33 C813.15,524.3 806.99,530.33 810.65,537.24 C818.6,541.9 828.22,540.24 836.86,542.22 C841.46,542.86 843.27,550.97 837.68,551.34 C828.44,551.3 819.07,550.47 810.05,553.1 C810.78,558.67 811.19,564.32 810.3,569.9 C802.82,569.31 798.3,563.13 794.61,557.36 C787.57,558.74 776.49,560.09 774.25,551 C777.03,544.58 783.99,541.3 788.34,536.01 C787.62,533.22 786.9,530.45 786.18,527.67 C795.36,528.77 801.65,522.59 803.39,513.99 Z" id="Shape"></path>
                <path d="M576.44,534.37 C593.2,528.03 617.04,525.59 625.36,545.7 C628.96,563.33 606.16,566.94 599.32,579.51 C593.75,582.2 586.98,577.12 583.26,573.02 C579.86,560.37 581.96,546.55 576.44,534.37 L576.44,534.37 Z M596.72,539.68 C589.84,546.49 595.89,556.48 597.73,564.2 C604.24,561.16 610.83,556.07 612.5,548.76 C612.21,541.85 602.89,533.48 596.72,539.68 Z" id="Shape"></path>
                <path d="M670.38,645.3 C674.89,643.03 682.57,638.95 685.25,645.64 C684.55,652.42 684.3,659.41 688.5,665.29 C693.53,665.66 700.79,664.6 703.32,670.15 C703.03,674.49 697.84,676.17 694.87,678.6 C696.99,686.57 711.5,690.28 706.78,699.14 C697.76,700.78 693.8,689.71 686.05,686.94 C681.15,692.49 678.45,699.43 674.6,705.64 C671.62,711.11 663.39,706.71 662.51,702.01 C664.17,694.62 666.92,687.39 666.73,679.68 C659.42,678.15 647.87,679.68 646.21,669.96 C654.01,668.92 661.9,669.96 669.7,668.85 C672.13,661.23 673.83,652.92 670.38,645.3 Z" id="Shape"></path>
                <path d="M755.29,665.99 C761.92,665.77 767.62,669.65 768.72,676.38 C777.21,705.96 796.55,730.28 814.1,754.91 C817.29,759.62 822.06,765.81 817.21,771.16 C792.67,739.04 763.72,706.84 755.29,665.99 Z" id="Shape"></path>
                <path d="M526.72,687.91 C547.32,687.36 526.2,709.31 535.73,718.9 C544.16,716.62 558.15,709.07 563.75,719.12 C560.08,726.49 548.91,727.55 542.87,733.43 C546.37,741.2 558.42,742.64 557.62,752.41 C547.79,754.24 541.75,744.88 533.27,742.01 C526.48,747.08 522.32,760.86 512.02,757.19 C503.1,753.34 510.33,743.31 511.18,736.76 C503.89,736.23 492.55,739.72 490.69,729.62 C498.74,726.94 507.71,728.02 515.45,724.5 C520.92,718.77 521.39,709.95 519.19,702.66 C525.7,700.59 526.43,693.75 526.72,687.91 Z" id="Shape"></path>
                <path d="M168.35,693.32 C172.48,688.96 184.67,692.56 178.96,698.86 C159.33,710.79 146.1,730.07 129.5,745.5 C126.98,747.89 123.3,747.75 120.1,748.19 C120.47,744.31 121.79,740.47 124.8,737.84 C139.54,723.28 151.31,705.35 168.35,693.32 Z" id="Shape"></path>
                <path d="M264.35,748.22 C268.95,747.2 275.25,750.93 272.05,756.1 C258.6,780.9 253.47,810.27 235.59,832.63 C231,838.39 225.97,830.61 228.9,825.86 C237.03,804.68 249.17,785.02 254.82,762.85 C256.96,757.66 257.01,748.5 264.35,748.22 Z" id="Shape"></path>
                <path d="M428.18,795.02 C433.49,793.51 441.95,794.52 440.81,802 C438.79,826.96 443.2,851.92 441.77,876.81 C442.33,881.86 436.88,891.48 431.98,885.09 C429.79,855.21 428.06,825.07 428.18,795.02 Z" id="Shape"></path>
            </g>
        </g>
    </g>
</svg>