<?xml version="1.0" encoding="UTF-8"?>
<svg width="298px" height="175px" viewBox="0 0 298 175" version="1.1" xmlns="http://www.w3.org/2000/svg" xmlns:xlink="http://www.w3.org/1999/xlink">
    <!-- Generator: Sketch 43.2 (39069) - http://www.bohemiancoding.com/sketch -->
    <title>Group 7</title>
    <desc>Created with Sketch.</desc>
    <defs></defs>
    <g id="Page-1" stroke="none" stroke-width="1" fill="none" fill-rule="evenodd">
        <g id="Group-3" transform="translate(-608.000000, -59.000000)" fill-rule="nonzero" fill="#161617">
            <g id="Group-7" transform="translate(608.000000, 59.000000)">
                <g id="Group-6">
                    <g id="a-vs-b-copy">
                        <path d="M199.355067,0.82607472 C201.528957,0.82607472 203.692395,0.341792885 205.866284,0.642832944 C208.207396,0.977903619 210.598152,0.608802329 212.931425,1.06167129 C214.624551,1.35224039 216.372546,1.28941464 218.031704,1.79463839 C219.408675,2.23441865 220.905837,2.02761722 222.264518,2.56425385 C224.140542,3.33648704 226.246498,3.18727588 228.099007,4.04327675 C230.920883,5.05634199 233.907368,5.64795115 236.564634,7.09294344 C238.281275,8.10600868 240.282717,8.46987449 241.986293,9.50911714 C246.125045,11.5588073 250.088735,13.9802165 253.650046,16.9356445 C256.252443,18.5324657 258.193789,20.9434039 260.174328,23.2234552 C261.749875,25.4380629 263.46129,27.6003158 264.482914,30.1499943 C265.467957,32.7101436 266.669867,35.2676753 266.857992,38.045097 C266.899798,38.8356544 266.944216,39.6288295 267.161083,40.3958273 C267.620944,41.8879389 267.362272,43.4638181 267.419755,44.9978136 C267.555623,49.0186617 266.076751,52.9033873 264.153695,56.3614214 C263.458677,58.0891295 262.217575,59.502709 261.214241,61.0471753 C259.01161,64.4502369 255.805646,66.9815911 253.004673,69.8558693 C252.419395,70.4108301 251.713926,70.8191975 251.107745,71.3479809 C248.24929,73.9683383 244.878716,75.9185543 241.612656,77.9656267 C247.815557,78.6802696 254.107295,78.8504227 260.223972,80.2195005 C262.664372,80.9158193 265.151803,81.4472204 267.537333,82.3346342 C273.586076,84.5649483 279.174957,88.0177469 283.93034,92.371048 C285.573822,94.5516251 287.776453,96.2269785 289.320646,98.4860878 C290.047017,99.4206209 290.896193,100.268769 291.471019,101.318482 C292.424709,103.051426 293.744197,104.577568 294.467956,106.436163 C295.32497,108.328789 296.051342,110.281623 296.688877,112.258016 C297.391733,115.883586 297.984849,119.770929 296.722844,123.33629 C294.394796,130.514132 288.748432,135.864792 283.271903,140.741641 C279.527692,143.744189 275.652838,146.600143 271.618601,149.210029 C269.494356,150.26236 267.60788,151.723059 265.465345,152.738742 C262.985752,153.723012 260.817088,155.351246 258.306141,156.272691 C254.831054,157.811921 251.288032,159.19147 247.765913,160.620756 C241.306953,162.832746 234.704286,164.691341 227.963139,165.798645 C225.062878,166.419049 222.160004,167.026365 219.212711,167.398084 C216.882051,168.010635 214.405071,167.832629 212.139732,168.709572 C211.311459,169.000141 210.425704,169.196471 209.553013,169.005376 C208.411198,168.764544 206.838264,168.667688 206.595269,167.238402 C204.097386,157.845952 202.62374,148.220523 201.11874,138.629125 C200.849616,135.490455 200.084052,132.414611 199.958635,129.260235 C198.628696,121.155713 197.771682,112.988365 196.786638,104.839342 C196.475709,102.567144 195.874754,100.326359 195.869528,98.0227479 C195.900883,97.0253891 195.323443,96.151064 195.258122,95.1720294 C195.349572,92.562143 194.685908,89.9889049 194.022245,87.4889635 C194.030084,83.3346107 192.697531,79.3268513 192.383989,75.2117646 C191.75168,72.6542329 191.882323,69.989374 191.273529,67.4161359 C190.685638,64.0863711 190.521029,60.6702208 189.580404,57.4032818 C188.968997,54.8614566 189.013416,52.2175395 188.566619,49.6495369 C187.803667,46.7857297 187.234066,43.8433904 187.137391,40.8748736 C186.894396,38.7178561 186.243797,36.607958 186.374439,34.4195276 C185.974674,32.6525534 185.969448,30.8201356 185.412911,29.087192 C185.266592,26.0637027 184.744022,23.0716263 184.359934,20.0716966 C184.574187,17.825676 183.855654,15.663423 183.758979,13.4357266 C183.267763,11.6582814 182.94377,9.83633459 182.463006,8.05627163 C182.183431,6.96729194 181.475349,5.9018719 181.752311,4.74221323 C182.719065,3.90453655 184.088197,4.22390078 185.25614,4.02757031 C187.24713,3.97521552 188.91674,2.72917144 190.839796,2.35221693 C193.551932,1.26847272 196.493999,1.19779375 199.355067,0.82607472 L199.355067,0.82607472 Z M192.684467,6.02490566 C191.020083,6.94111454 189.235508,7.61649137 187.631219,8.64264531 C189.70582,21.8151112 190.740508,35.1472593 193.065943,48.2935478 C193.612028,52.7332342 194.589233,57.1074772 195.085674,61.5550168 C196.094233,66.259095 196.441742,71.065265 197.319659,75.7876673 C198.001612,80.7299598 198.738435,85.6696345 199.472646,90.6066915 C200.123245,93.6066211 200.421109,96.6667587 200.865294,99.700719 C201.288575,101.912709 201.539408,104.156112 201.670051,106.402133 C202.022785,108.943958 202.547968,111.459606 202.845832,114.009284 C203.352725,120.930588 204.664374,127.752417 205.471744,134.637072 C205.748706,136.291484 205.803576,137.985161 206.252986,139.60816 C206.932326,141.838474 206.916649,144.197058 207.470573,146.458785 C208.204783,149.270237 208.38507,152.191634 209.153247,154.997851 C209.759428,156.948067 209.829975,159.016082 210.480574,160.955827 C210.882952,162.199253 210.961338,163.843194 212.137119,164.615427 C219.285871,164.228001 226.366689,162.908661 233.371734,161.442726 C242.843308,159.136498 252.019629,155.657522 260.615899,151.058153 C262.160092,150.246654 263.612835,149.257148 265.235414,148.597478 C266.437324,148.147227 267.26821,147.11322 268.37867,146.508522 C272.465164,144.076642 276.211988,141.163097 279.828169,138.092489 C282.490661,136.542787 284.13153,133.856986 286.386418,131.828238 C288.18667,129.571746 289.832764,127.168661 291.235863,124.639925 C291.857721,123.17399 292.11378,121.577169 292.427322,120.02485 C293.122339,113.901957 290.695004,107.849743 287.266947,102.891744 C284.690679,98.8682778 281.343621,95.3997728 277.782309,92.2427787 C273.353532,88.711448 268.229738,85.9968519 262.74537,84.5518597 C258.394978,83.0963964 253.798979,82.7089709 249.265688,82.2613375 C243.700322,82.2037472 238.168923,81.2823028 232.603557,81.6985234 C231.885024,81.9576797 231.247489,82.5047872 230.45057,82.4681389 C228.809702,82.627821 227.471924,81.4105721 226.546975,80.1985586 C225.906828,78.9525145 226.729875,77.4028127 228.057201,77.0703597 C229.520396,76.4211603 231.056751,77.0310936 232.5513,77.1410387 C234.210458,77.0049162 235.736361,76.243154 237.142074,75.3923886 C238.519044,74.5599474 240.086753,74.0704301 241.393177,73.1097196 C242.712665,72.1516269 244.30389,71.5835774 245.463994,70.4029768 C246.030982,69.8270741 246.665904,69.3297036 247.347857,68.8977766 C250.786365,66.5077803 253.169282,62.9973914 256.21325,60.175468 C258.037018,57.7540589 259.685725,55.1912917 260.971246,52.4321942 C262.813304,49.005573 262.964849,44.9873426 262.659146,41.1916201 C262.267219,39.0974284 262.42399,36.9063803 261.627071,34.9011917 C260.581932,31.1813837 258.674553,27.7678512 256.356957,24.7024781 C251.860246,19.1790474 245.884663,15.0691961 239.522378,11.9776456 C234.356778,9.61120898 229.050084,7.43586733 223.455976,6.32594572 C218.930524,4.84168734 214.146399,4.57729564 209.435435,4.19772339 C203.817812,4.1191912 198.027741,4.04327675 192.684467,6.02490566 Z" id="Shape"></path>
                        <path d="M61.3940866,4.45426187 C63.6228459,4.53017632 65.8489923,3.37837088 68.0307202,4.28672654 C69.5513977,4.62441495 69.7682641,6.43327305 69.70033,7.72905417 C70.405799,14.3833484 72.0179261,20.9067556 72.9141329,27.5374901 C74.2283954,34.526855 74.973057,41.6026052 75.6471718,48.6783555 C75.6471718,50.1442897 76.1044202,51.5578691 76.1854185,53.0159501 C76.3265122,55.7488703 77.2383962,58.3823164 77.2775889,61.1257075 C77.6904188,63.1727799 78.0614432,65.2303233 78.2391169,67.3192795 C80.7265481,83.0780722 84.523016,98.5855619 87.8857513,114.171584 C89.213078,118.443735 89.727809,122.922687 91.0420715,127.202692 C91.6560908,130.139796 92.5888775,133.006221 93.025223,135.982591 C93.5347284,139.231205 94.3264213,142.424848 94.8855707,145.668227 C95.5387827,147.956132 95.5309442,150.382776 96.2703801,152.649739 C96.615276,153.767514 97.6473509,154.746548 97.3233578,156.000446 C97.2110053,157.107749 96.2390259,157.728154 95.4368816,158.340705 C95.4760744,160.393013 95.7582619,162.455792 96.5003107,164.377213 C96.8870122,165.57352 96.2416388,166.667735 95.4185917,167.487087 C88.886472,167.772421 82.5294131,169.442539 76.0835174,170.382307 C73.7946627,171.248779 71.3699398,171.651911 69.0601823,172.452939 C66.6589751,173.442445 64.1088356,173.952904 61.6684356,174.811523 C60.1791124,174.492159 58.2194764,174.973823 57.2683998,173.466005 C57.6655527,172.837747 58.141091,172.253991 58.4755355,171.589085 C58.295249,171.180718 58.0078358,170.835176 57.746551,170.479164 C57.6760041,168.633657 57.0489206,166.885007 56.6726705,165.094473 C55.4185035,159.474186 53.8272792,153.927196 52.8396227,148.251936 C52.489501,146.833121 52.1263152,145.411689 52.0792839,143.948372 C51.5175216,140.83588 51.0054035,137.715534 50.5586065,134.587335 C49.691141,130.762818 49.4690489,126.838826 49.0144134,122.951483 C48.2723646,117.862597 47.9666614,112.729209 47.3970605,107.619381 C47.0155847,105.221532 47.0051333,102.787034 46.7516871,100.378714 C46.6523989,99.8970495 46.7203329,99.3316177 46.3702113,98.94681 C44.880888,98.9441922 43.4621116,99.5331837 42.0041425,99.7766334 C40.3162428,100.268769 38.5316677,100.347301 36.8829607,100.970323 C36.4570665,101.114298 35.9998181,101.454605 35.9893667,101.944122 C35.9945924,104.648247 35.9475611,107.35499 35.6967277,110.051262 C35.7202434,112.886274 34.8736806,115.632283 34.7717796,118.456824 C33.9095398,123.883398 33.5698696,129.383269 32.5012148,134.775813 C32.1746088,137.09513 32.0073865,139.430154 31.8009715,141.76256 C31.7330375,143.000751 31.1895651,144.168262 31.2444349,145.42216 C31.3254332,148.246701 30.3482281,150.971768 30.4057108,153.793691 C30.3273253,158.662687 29.1959622,163.654716 30.4919348,168.439944 C30.5154504,169.683371 29.7681759,171.144069 28.3912051,171.214748 C27.3539044,171.204278 26.2199285,171.429403 25.2740775,170.887531 C22.7840335,169.416361 19.7923227,169.377095 16.9887369,169.220031 C13.5554548,169.515835 10.08298,168.725278 6.67060064,169.343065 C6.44328287,170.426809 5.97297025,171.61788 4.78935016,171.929391 C3.143256,172.217343 1.20713572,171.816829 0.104513915,170.479164 C0.219479222,169.45301 0.499053945,168.437327 0.216866374,167.408555 C0.77601582,165.002852 0.841337017,162.518617 1.06865478,160.065795 C1.42400209,157.016129 1.64870701,153.953373 2.09811685,150.919413 C2.32543461,148.995374 2.31498322,147.00851 2.97080804,145.168239 C2.71997464,141.95889 3.65798703,138.828074 3.84872493,135.650138 C4.29029622,133.422441 4.44184139,131.158096 4.73448036,128.912076 C4.89386408,127.338814 5.40336941,125.81529 5.41382081,124.223704 C5.38769233,122.951483 6.18722378,121.825855 6.11667689,120.556251 C6.09054841,119.409681 6.18983663,118.268346 6.22380365,117.124394 C6.56869957,116.770999 6.91098264,116.417604 7.24804002,116.061592 C7.02594795,116.011855 6.80124303,115.964735 6.57915096,115.920234 C7.06252782,112.794653 7.07559206,109.580068 8.05541001,106.546108 C8.32453334,105.574927 8.09460273,104.561862 8.20172949,103.572356 C8.25921215,102.02789 9.02738942,100.609075 9.04567936,99.0593728 C9.06658214,96.9992117 10.1770425,95.1222924 10.0620772,93.0464248 C10.2005581,91.3370408 10.2319123,89.3318522 11.6585272,88.1355452 C11.1777632,86.8947366 11.28489,85.5361298 11.938102,84.3817066 C11.8440394,84.216789 11.7473641,84.0544891 11.6506887,83.8921893 C12.2934493,81.6618751 11.7160099,79.1462273 12.9048557,77.0913017 C12.8081803,75.6567803 13.2784929,74.2955557 13.5241006,72.905536 C13.8402552,68.9893974 14.7573648,65.1648798 15.3504813,61.2853897 C16.1421742,59.2880543 16.369492,57.1415078 17.0749609,55.1206128 C17.0932508,52.8719744 16.8554817,50.4112991 18.3578692,48.5291443 C18.3970619,45.9349643 18.3839977,43.2517812 19.4840066,40.830372 C19.9438679,40.1497597 19.3873313,39.4089394 19.4761681,38.689061 C20.6232083,33.7493863 20.8505261,28.644794 22.0001791,23.707737 C21.8956652,21.6475759 22.7187123,19.7209195 22.8467419,17.6843181 C23.2073149,15.6398634 22.9434172,13.3598122 24.2994853,11.632104 C24.2210998,11.0902319 24.2210998,10.5431243 24.338678,10.0064877 C26.486439,9.1373981 28.8197121,8.85468222 31.1242439,8.94892085 C41.3012864,8.09291998 51.1804643,5.09822583 61.3940866,4.45426187 L61.3940866,4.45426187 Z M59.2959698,8.4436971 C56.458417,8.93583215 53.5686072,9.05624818 50.7415058,9.61644446 C47.3918348,10.043136 44.1754191,11.2106479 40.7943939,11.4593332 C36.9613461,12.3022453 33.0629771,12.8205578 29.1567695,13.1320688 C28.5401374,13.1556285 28.5505888,13.8152989 28.4722033,14.2707856 C27.6909618,20.7863395 26.4655362,27.2443033 25.2688518,33.6970315 C25.1225324,35.7205442 24.6626711,37.6890845 24.2263255,39.6602424 C24.0512647,42.1889789 23.463374,44.6522719 23.0766725,47.1522133 C22.8075491,48.3328139 22.0655003,49.4008516 22.1020802,50.6468957 C22.1438858,52.102359 21.9191809,53.5525867 21.5115766,54.9452242 C20.9053959,56.6834033 21.1823578,58.5655582 20.6336597,60.3220615 C19.9595449,62.6466143 19.9308036,65.0837299 19.3011073,67.4213714 C19.1600135,69.3768229 18.3813848,71.2066229 18.2376782,73.1620744 C17.9241365,76.9604147 16.7797091,80.6252502 16.4531031,84.4235904 C15.8913408,86.9549446 15.4262539,89.5098585 15.1937104,92.0961853 C13.981349,98.2766686 13.3725554,104.546155 12.3848989,110.760669 C12.1210013,113.928134 11.3423726,117.022302 11.078475,120.192385 C11.0027024,121.085034 11.1411834,121.99339 10.9373812,122.875568 C10.1483012,126.158214 10.0359487,129.540333 9.69366563,132.883187 C9.09271062,135.425012 8.70600913,138.027045 8.69555774,140.642167 C7.92215477,144.636838 7.90647768,148.730983 7.25849141,152.746595 C7.17488028,156.249131 6.81953296,159.741196 6.4720242,163.228025 C6.44067002,163.793457 6.51382976,164.361506 6.58176381,164.929556 C10.1404626,164.932173 13.68871,165.30651 17.2500217,165.220125 C19.4578782,165.047354 21.608252,165.725348 23.8082699,165.76985 C24.5607701,159.864229 24.5921242,153.893165 25.4961696,148.005869 C25.7966471,144.621131 26.3871507,141.265189 26.5282445,137.869981 C27.7797987,130.925118 28.2762397,123.865074 29.2247035,116.875709 C29.7629502,114.045932 29.8596256,111.155948 30.1810059,108.297376 C30.3769694,105.043526 29.9301725,101.807999 29.7551116,98.5672377 C30.1653288,96.6510523 32.4672477,96.5280185 34.0584721,96.6301104 C35.8613371,97.1039213 37.6642022,96.4547218 39.4331002,96.1327399 C41.4867986,95.6432225 43.5613998,95.2453261 45.6072597,94.7217782 C46.9162965,94.2846157 48.2410104,93.7532145 49.6519483,93.9076612 C51.0001778,93.8029516 52.0923482,94.9207264 52.6645619,96.0201771 C52.4868882,97.1903067 52.2726347,98.3682895 52.4189542,99.5593611 C52.9284595,103.122105 52.8422355,106.731968 53.1505516,110.3078 C53.6678954,112.480524 53.2890325,114.742251 53.8220535,116.912357 C54.1199181,118.085105 54.2374963,119.291883 54.2165935,120.503896 C54.7548402,126.168685 55.5961772,131.799443 56.6543806,137.388317 C56.8816983,139.93276 57.4512992,142.42223 58.0470285,144.90123 C58.3919244,147.785979 59.0738777,150.607902 59.6617685,153.448149 C60.6023937,156.592055 61.0674806,159.864229 62.1831667,162.958398 C62.9278283,165.2018 63.3223684,167.547295 64.1663182,169.761903 C65.7653811,169.547248 67.2520916,168.900667 68.8015104,168.489681 C75.5949148,166.408578 82.6287013,165.337923 89.5762638,163.94005 C90.6527572,163.730631 90.26083,162.432232 90.1197362,161.688794 C89.6206823,157.861659 89.4168801,153.979551 89.6494236,150.128856 C89.3907516,148.406383 88.9178262,146.720559 88.8995362,144.969291 C88.1522618,142.500762 87.9118797,139.930142 87.4389543,137.404023 C87.1802823,135.000938 86.3546224,132.707798 86.0071136,130.32042 C84.6066272,123.613771 82.8795347,116.977801 81.5992393,110.239739 C80.384265,106.048738 79.5063481,101.766116 78.6937524,97.4808758 C78.288761,96.1981833 77.9595422,94.8893135 77.9098981,93.5385599 C76.6139255,89.274262 76.1410001,84.8110159 75.0697324,80.48651 C74.5837427,78.1802813 74.3276836,75.8347866 73.8103397,73.5337935 C73.376607,71.8846175 73.7293415,70.1438206 73.1623535,68.5234398 C72.9716156,66.630814 72.2400182,64.8350446 72.2165025,62.9162415 C71.4796794,58.4896437 70.7925004,54.0447218 70.4162503,49.568387 C70.4240889,47.4611066 69.6794272,45.4271229 69.8649394,43.3093715 C69.3162414,40.8225188 69.0732465,38.2754581 69.0627951,35.7310152 C67.9392706,31.8960266 67.7302427,27.880414 66.8235845,24.0009238 C65.9064749,18.7759155 64.9710754,13.5509072 63.8527765,8.36516491 C62.3503889,7.96988622 60.8061958,8.27092628 59.2959698,8.4436971 Z" id="Shape"></path>
                        <path d="M218.206765,28.9405985 C219.750958,28.825418 221.360472,28.4196684 222.873311,28.9536872 C225.473095,29.6709479 227.458859,31.681372 228.976924,33.8253007 C230.928721,36.0687036 232.263887,39.2571105 231.359841,42.2334805 C231.085492,43.3067537 230.685726,44.3643206 230.040353,45.275294 C229.060535,46.6469895 228.344615,48.2176333 227.121802,49.4087049 C225.836281,50.7437521 224.765013,52.2751298 223.359301,53.5002319 C222.199197,54.5918294 221.69753,56.8587919 219.790151,56.8038194 C218.26686,56.204357 215.998908,55.5315979 215.985844,53.5421158 C215.907459,52.7803535 215.748075,52.03168 215.525983,51.3013306 C214.122884,46.4035397 213.307675,41.283241 210.929984,36.7205208 C211.622388,35.3880913 213.122163,35.2284092 214.465167,35.3776203 C215.204603,33.0556853 215.622658,29.9301041 218.206765,28.9405985 L218.206765,28.9405985 Z M220.213432,33.5635268 C219.07423,36.2807405 219.301548,39.2963766 219.332902,42.1732725 C219.484448,44.7831589 219.758797,47.3956631 220.506071,49.9139286 C221.906558,49.0369858 222.173068,47.2490697 223.440299,46.2490931 C224.710143,45.1287005 225.318937,43.5135552 225.998277,42.0083549 C226.656715,40.5110078 226.675005,38.6812078 225.823217,37.2519219 C224.900881,35.5660976 223.887096,33.762475 222.212261,32.7284678 C221.464986,32.1787425 220.487781,32.7939113 220.213432,33.5635268 Z" id="Shape"></path>
                        <path d="M40.8335867,57.6100832 C41.5077014,58.0498634 42.3438127,58.3954051 42.6442902,59.2095221 C43.9219729,62.0392987 45.7901591,64.560182 47.010359,67.4213714 C48.1939791,69.8244564 49.4089534,72.2458656 51.0681118,74.3636169 C51.1647872,75.0389938 50.806827,75.7012819 50.720603,76.374041 C49.3436322,77.9289783 47.2768695,77.2823966 45.5131972,77.0049162 C42.1818162,76.6986407 38.8478223,77.1488919 35.5504082,77.5939077 C33.9617967,77.9028009 32.3575081,77.3661643 30.8917005,76.7981148 C30.2907455,76.2143589 29.2795733,75.4133305 29.7681759,74.484033 C31.3149818,70.5338638 32.3784109,66.4109239 33.2824563,62.2722775 C33.528064,61.3455977 33.1622653,60.3639453 33.3634546,59.4608251 C34.4007552,58.1519553 36.2950699,57.6833799 37.8810686,58.0681876 C38.8896278,58.2749891 39.8772843,57.8797104 40.8335867,57.6100832 L40.8335867,57.6100832 Z M36.6634814,70.6019251 C36.5276134,71.4631614 35.9789153,72.3610461 36.2741671,73.2327534 C38.7642111,73.3793468 41.2594809,73.2406066 43.7390735,72.9840681 C43.3131793,71.8008498 42.7879969,70.6542799 42.3542641,69.476297 C41.4867986,67.2093345 39.7048364,65.4318893 38.9026921,63.1335138 C37.8575529,65.5287456 37.4604,68.1255434 36.6634814,70.6019251 Z" id="Shape"></path>
                        <path d="M127.305787,63.5628231 C128.664468,62.8481802 130.242628,62.4267241 131.768531,62.8167673 C132.181361,63.714652 132.740511,64.6360964 132.596804,65.6701036 C132.28065,70.1778512 131.75808,74.6698925 131.598696,79.1907288 C131.543826,80.4498616 131.541214,81.7194654 131.279929,82.9602739 C130.799165,85.865965 131.104868,88.821393 131.010806,91.7480259 C131.151899,96.2400672 130.89584,100.779228 131.823401,105.208443 C131.964495,106.682231 132.411292,108.106281 132.58374,109.572215 C132.607256,110.959617 130.948097,111.404633 129.842863,111.121917 C128.687984,110.883703 127.125501,111.336572 126.430483,110.106234 C123.577253,106.909974 120.645638,103.760833 118.244431,100.195472 C116.966748,98.1300752 114.93134,96.6222572 113.92278,94.3762366 C113.199022,92.5935559 111.722762,91.2977747 110.83962,89.6067149 C109.091625,86.2403017 107.194697,82.9707449 105.276867,79.7195123 C104.046215,77.0808307 102.086579,74.8871649 100.521484,72.4552847 C100.043332,71.8139385 99.9701727,70.6150138 100.842864,70.2747076 C102.06829,69.5391228 103.766641,69.2511714 105.020808,70.0312578 C107.973326,74.4159717 110.617528,79.0153403 113.042251,83.714183 C113.698075,85.3267106 114.685732,86.7586142 115.642034,88.2036065 C118.780065,93.3186697 122.171541,98.3368766 126.289389,102.716355 C126.422645,99.3394709 126.153521,95.9573513 126.028105,92.5804672 C125.983686,91.8501178 126.260648,91.1695055 126.472289,90.4888932 C125.69366,83.76392 127.013148,77.0258582 126.908634,70.2851786 C126.903409,68.66218 127.410301,67.002533 126.919086,65.4083296 C126.707445,64.7853076 126.710058,63.9711905 127.305787,63.5628231 Z" id="Shape"></path>
                        <path d="M146.311643,69.2407004 C149.068197,67.8428275 152.548511,67.1491265 155.354709,68.8087734 C156.564458,69.3794406 156.381558,70.8977296 156.692487,71.9814739 C155.312904,73.6568272 153.0345,72.5599943 151.357052,72.0521528 C149.974855,71.316568 148.608336,72.6411442 148.033509,73.8138916 C147.051079,75.991851 146.047745,78.2902264 146.152259,80.7351952 C145.998101,84.2691438 148.30002,87.3711653 150.938996,89.4810634 C154.380117,92.8003573 158.521481,95.2793567 161.93386,98.6274457 C163.093965,99.6771593 163.075675,102.116893 161.48445,102.760857 C159.705101,103.815806 158.040717,105.229385 155.932149,105.548749 C154.022157,106.106328 151.96062,106.090621 150.053241,105.535661 C149.384352,105.286975 148.543015,104.658718 148.895749,103.841983 C149.977468,103.085456 151.20812,102.245162 152.592929,102.394373 C153.967287,102.543584 155.391289,102.022654 156.269206,100.936292 C156.501749,100.71902 156.587973,100.28971 156.324076,100.064585 C153.980351,97.7635917 151.265602,95.8919078 148.762494,93.7793919 C147.017112,92.1145095 144.824932,90.8632299 143.586442,88.7271544 C142.700687,87.7167069 142.410661,86.3921306 141.89593,85.1905881 C140.563377,83.0728367 141.342006,80.4786568 141.443907,78.1488685 C141.454358,76.1907992 142.567432,74.5363878 143.332996,72.8112973 C143.991434,71.3951002 144.955575,70.060053 146.311643,69.2407004 Z" id="Shape"></path>
                        <path d="M173.584549,93.949545 C173.890252,93.8553064 174.425886,93.6197098 174.621849,94.0149885 C175.298577,95.2008245 175.763664,96.674612 175.353447,98.0306011 C174.752492,99.2059662 173.263169,98.9756051 172.178837,98.8656601 C170.893316,98.8185407 169.281188,98.1955187 169.184513,96.7269668 C169.871692,94.9233441 172.001163,94.5935089 173.584549,93.949545 Z" id="Shape"></path>
                        <path d="M235.31308,106.051355 C236.703115,105.679636 238.205503,105.574927 239.624279,105.82623 C242.61599,106.844531 244.672301,109.522478 246.070175,112.24231 C246.699871,113.501442 247.381824,115.030202 246.710322,116.414987 C245.01981,120.412275 241.387951,122.995984 237.975572,125.427864 C237.782221,126.673908 237.411197,128.262876 235.942776,128.501091 C233.541569,128.239317 231.521838,126.783853 229.549138,125.506396 C230.157931,124.998555 230.792853,124.524744 231.456517,124.092817 C230.732758,120.841584 229.841777,117.608676 229.567428,114.271058 C229.473365,112.449111 228.838443,110.739727 228.399485,108.991077 C229.332271,107.441375 231.216135,107.941363 232.700232,107.834036 C233.583375,107.260751 234.252264,106.331454 235.31308,106.051355 L235.31308,106.051355 Z M238.11144,109.663836 C236.522829,110.184766 236.141353,112.064303 236.057742,113.532855 C236.01071,116.051121 235.937551,118.598182 236.379122,121.09027 C237.510485,120.852055 238.140181,119.825901 238.952777,119.106023 C239.867274,118.2762 240.862769,117.443758 241.327856,116.26054 C241.889618,114.763193 241.636172,112.951717 240.530937,111.763263 C239.820243,110.993648 239.329027,109.650747 238.11144,109.663836 Z" id="Shape"></path>
                    </g>
                </g>
            </g>
        </g>
    </g>
</svg>