<?xml version="1.0" encoding="UTF-8"?>
<svg width="277px" height="251px" viewBox="0 0 277 251" version="1.1" xmlns="http://www.w3.org/2000/svg" xmlns:xlink="http://www.w3.org/1999/xlink">
    <!-- Generator: Sketch 43.2 (39069) - http://www.bohemiancoding.com/sketch -->
    <title>Group</title>
    <desc>Created with Sketch.</desc>
    <defs></defs>
    <g id="Page-1" stroke="none" stroke-width="1" fill="none" fill-rule="evenodd">
        <g id="Group" transform="translate(-2.000000, -3.000000)" fill-rule="nonzero" fill="#151515">
            <g id="chart">
                <g id="increase-conversion-rates-copy-2" transform="translate(141.186559, 128.906618) rotate(91.000000) translate(-141.186559, -128.906618) translate(14.686559, -10.093382)">
                    <path d="M209.972428,3.28122292 C219.119894,2.43548135 228.267361,1.78050856 237.314995,0.168512417 C240.860458,0.340204315 239.542675,7.00121402 236.484963,7.12521373 C238.470194,16.5937039 241.445189,25.8173741 243.256427,35.3494539 C243.789815,39.1012398 244.713974,43.1518968 243.079581,46.7447087 C243.764144,46.6048116 244.451559,46.461735 245.136121,46.2868637 C245.829241,46.9513749 246.496689,47.6508604 247.16699,48.3535254 C247.061453,50.0259316 246.927393,52.0862344 245.555416,53.1132063 C231.735811,53.5774103 217.745065,53.2912572 203.885527,54.5535105 C183.419961,55.9715584 163.071341,58.8076542 142.574399,59.7360623 C109.250468,61.6469295 75.9949929,62.0888771 42.6311288,63.4306175 C40.1952273,63.1349259 38.0331507,65.6244584 35.6314774,64.3304102 C34.7643649,62.7247731 34.3450703,60.9061107 35.0324852,59.1097048 C36.6896969,45.8957877 33.8944,32.6309989 34.9098344,19.385287 C34.2537954,16.5396527 36.8037906,14.7432468 39.0571421,14.8163748 C60.6636456,14.937195 82.2501826,15.3473479 103.83672,13.8752489 C139.268533,10.8897175 174.580548,6.8803938 209.972428,3.28122292 L209.972428,3.28122292 Z M56.7673441,20.1674389 C51.0341333,20.2310285 45.0099834,19.4615945 39.4650273,21.1212828 C38.1158687,33.228741 40.6088171,45.6159935 39.7673757,57.8697077 C47.9906826,58.5946291 56.2282511,57.4881702 64.4658197,57.6757595 C85.1025263,56.9603766 105.744938,56.4580188 126.353121,55.2370987 C153.148037,54.6520744 179.777518,50.8748527 206.455488,48.9798829 C217.779293,47.4410147 229.200077,48.3090127 240.552405,47.4505532 C238.552912,44.6398932 239.936299,40.9675943 239.171871,37.7690379 C237.389156,27.2449605 234.114665,17.1310359 231.693025,6.78500941 C173.265617,10.581308 115.343074,20.7810785 56.7673441,20.1674389 Z" id="Shape"></path>
                    <path d="M241.077236,63.9584111 C242.934112,63.5164635 245.278738,62.7470294 246.756252,64.5815891 C247.346688,67.166506 246.442495,70.4063957 243.749882,70.7720359 C243.019682,82.8445198 240.452573,94.7643887 241.165659,106.941796 C240.007607,111.707835 245.489812,116.775926 240.786297,120.492737 C237.414827,118.925254 233.760975,120.022174 230.269706,120.311507 C229.568029,121.14771 228.994708,122.454476 227.873737,122.588014 C183.223149,126.114057 138.338669,126.578261 93.6110675,129.220409 C82.6238396,129.592408 71.5595984,129.611485 60.6550885,130.473124 C60.2472034,130.19015 59.9020698,129.818151 59.5426745,129.471588 C59.1604604,129.633741 58.7810987,129.799074 58.4045894,129.970766 C55.7918425,128.250668 57.5517386,124.87406 57.2037527,122.216015 C58.1250597,108.601484 60.7378065,95.1681826 63.4418283,81.884317 C64.451558,79.232631 67.4008814,79.2517079 69.5857766,79.3566307 C96.5204581,75.9291517 123.748931,76.8543803 150.783444,74.8831029 C180.984059,72.4889548 211.156151,69.3031163 241.077236,63.9584111 L241.077236,63.9584111 Z M105.125979,81.6331381 C93.0776792,83.0702629 80.709917,82.9303658 68.675879,85.1432835 C66.8304126,85.2958986 66.5965204,87.5724059 66.2314204,89.1462483 C64.0008877,100.910323 61.5107916,112.811115 61.422369,124.870881 C80.7954873,124.804112 100.148639,124.041037 119.507496,123.080834 C147.289323,121.643709 175.099674,120.750275 202.858683,119.090587 C203.352139,117.717052 204.436029,116.524747 205.83653,116.543824 C216.236175,116.699618 226.535988,114.696546 236.898553,113.968445 C236.228252,100.01371 238.036638,86.1638965 239.708111,72.3808525 C239.411467,71.8308026 239.114824,71.2839321 238.81818,70.7370616 C194.372961,76.2661766 149.91348,82.0114962 105.125979,81.6331381 Z" id="Shape"></path>
                    <path d="M0.442113272,75.9991003 C0.0570468738,73.0580817 1.0838906,68.7880406 4.4724749,69.3889622 C11.8885685,73.9292591 19.8865402,77.4743788 27.3568283,82.043291 C29.4133681,83.2928264 32.2714165,83.442262 33.3324883,86.1638965 C32.425443,88.2750709 30.2434001,88.9872743 28.2952494,88.5485062 C19.9521441,86.2624603 13.3375591,79.0514007 4.98019208,76.9561236 C4.39831397,87.5183548 4.88891708,98.4812004 8.30032013,108.44251 C8.95350684,110.687222 6.87985298,112.207014 5.37381551,113.113165 C4.63791084,112.677577 3.64244289,112.302398 3.52264445,111.234093 C1.29496403,99.6830436 -0.550502332,87.8522001 0.442113272,75.9991003 Z" id="Shape"></path>
                    <path d="M9.32145917,83.1847241 C10.8103826,81.6363176 13.0608817,83.2896469 13.3575255,85.2354884 C13.6798403,88.3609169 15.3655754,90.9649106 16.5835262,93.71834 C36.9521125,136.72716 60.8176721,177.567575 85.382056,217.702146 C87.5612465,219.733833 88.8790293,222.62398 90.3936238,225.25341 C90.5533551,225.259769 90.8699652,225.272487 91.0296965,225.278846 C90.9184551,227.173816 92.6783511,228.013198 93.3115714,229.564784 C103.294774,244.406595 114.250626,258.491689 126.906475,270.595968 C129.738853,272.344682 128.366875,278.430206 124.915539,277.301491 C122.696416,273.308064 119.145248,270.602327 116.486864,267.003156 C104.221786,253.706573 93.5254972,238.667634 83.5594083,223.212184 C80.6043803,219.301424 78.9414639,214.338257 75.5928124,210.783598 C66.028904,194.981585 56.4279152,179.268597 47.4287708,163.024636 C44.7589772,159.838797 44.4908568,155.031424 41.3732452,152.281174 C31.7294712,134.043679 21.5095238,116.254491 12.8355466,97.292075 C11.3694419,94.6499275 10.1885717,91.6580372 7.9066967,89.7598879 C7.21928187,87.566047 7.23924828,84.4533365 9.32145917,83.1847241 Z" id="Shape"></path>
                    <path d="M192.42481,140.377203 C206.638038,139.496487 221.119387,139.811255 235.013153,135.846444 C235.723387,135.979982 236.302413,136.523673 236.904257,136.937006 C236.795868,138.835155 236.787311,140.974945 235.284126,142.230839 C231.484804,141.989199 227.776758,143.197401 224.011664,143.521708 C210.038032,145.232268 196.004501,145.267242 181.976675,145.639241 C159.734099,146.071651 137.694039,149.143028 115.519919,150.427538 C109.755333,151.276459 103.73974,150.739127 98.2176026,153.114198 C96.6973034,164.048428 100.08874,174.817325 100.259881,185.697505 C101.044275,184.940788 101.840079,183.799355 103.006688,183.967868 C132.776599,184.343046 162.506577,181.672283 192.253669,181.551463 C202.847274,181.958437 213.472254,181.478335 224.025926,180.435466 C223.985993,178.82029 224.642032,177.345012 225.697399,176.273527 C230.343867,176.337117 235.101576,176.486552 239.63395,175.281529 C241.647705,175.004915 241.225558,172.509023 241.162806,170.874771 C240.292842,164.617555 239.177575,158.334903 239.291669,151.979124 C239.388649,147.861698 240.127406,143.543964 238.826737,139.588692 C238.570026,137.318543 241.128578,135.633419 242.800052,136.959262 C245.569677,141.655354 243.755587,147.124058 243.598708,152.290713 C242.879917,160.98023 246.987292,169.526671 244.893672,178.14942 C243.835453,180.65167 241.040156,181.109516 238.809623,181.077721 C238.421704,182.24459 238.042342,183.414638 237.745699,184.616482 C235.905937,186.374734 233.484297,184.327149 231.319368,185.150634 C214.262353,187.06786 197.136882,186.638631 180.014263,186.540067 C158.915476,187.261809 137.833804,188.279242 116.720756,188.724369 C111.555162,188.514523 106.378158,188.978727 101.26961,189.891238 C99.8691096,189.770418 99.6380697,188.078935 99.6780025,186.82304 C98.8993127,187.662423 97.8639119,187.964474 96.8028401,187.824576 C95.8244862,177.809216 93.8991542,167.828829 93.8135839,157.705366 C94.378348,154.475015 93.109055,150.395743 95.6162651,147.922108 C100.171458,145.817292 105.299972,146.430932 110.109023,145.753703 C137.582798,144.61227 164.899693,140.39628 192.42481,140.377203 Z" id="Shape"></path>
                    <path d="M240.706431,200.911314 C243.498876,201.509056 246.816152,198.990909 248.533263,202.838079 C248.995342,205.998482 248.148196,209.241551 248.983933,212.401954 C250.441481,221.520701 250.030743,230.877909 252.064464,239.872657 C253.308086,242.247728 253.236777,246.288847 251.08611,247.888125 C250.233259,246.972435 249.100879,246.581359 247.937123,246.877051 C228.9234,250.282273 209.75565,252.040525 190.528001,252.978472 C174.281052,254.142161 157.900042,252.021449 141.710139,254.313853 C139.742022,256.129336 136.829779,255.375799 137.340349,252.018269 C134.604951,251.655808 135.40646,248.228329 135.30948,246.098078 C134.140019,232.960468 130.979622,219.981833 131.652775,206.672531 C131.350427,204.202076 132.554116,199.801676 135.469211,200.949468 C168.251197,204.078076 201.35835,206.504019 234.16886,202.224439 C236.373721,202.020953 238.658449,201.960543 240.706431,200.911314 L240.706431,200.911314 Z M135.623238,207.133556 C134.468038,220.948395 138.726588,234.438926 139.080278,248.167919 C146.76164,249.379301 154.662632,248.377765 162.403893,248.71479 C179.942954,248.819713 197.499129,248.403201 214.975439,246.336539 C214.955473,245.872335 214.918392,245.404952 214.892721,244.950286 C217.551105,247.153665 220.919723,245.53849 223.906127,245.516233 C231.983964,244.244441 240.093178,243.296957 248.099706,241.452858 C246.744843,230.451859 246.356924,219.320501 244.602733,208.370373 C244.229076,208.160528 243.861124,207.950682 243.496024,207.734478 C243.01683,207.887093 242.540488,208.049246 242.061295,208.20504 C241.910121,207.858477 241.764651,207.511914 241.622034,207.17171 C232.446044,206.821967 223.389853,209.473653 214.199602,209.095295 C201.863215,209.966472 189.478339,209.73437 177.133395,208.99991 C163.242482,208.920423 149.525561,206.065251 135.623238,207.133556 Z" id="Shape"></path>
                </g>
            </g>
        </g>
    </g>
</svg>