<?xml version="1.0" encoding="UTF-8"?>
<svg width="244px" height="230px" viewBox="0 0 244 230" version="1.1" xmlns="http://www.w3.org/2000/svg" xmlns:xlink="http://www.w3.org/1999/xlink">
    <!-- Generator: Sketch 43.2 (39069) - http://www.bohemiancoding.com/sketch -->
    <title>Group</title>
    <desc>Created with Sketch.</desc>
    <defs></defs>
    <g id="Page-1" stroke="none" stroke-width="1" fill="none" fill-rule="evenodd">
        <g id="Group" transform="translate(-2.000000, 0.000000)" fill-rule="nonzero">
            <g id="customer-centric" transform="translate(131.174252, 61.500000) rotate(-270.000000) translate(-131.174252, -61.500000) translate(69.674252, -12.000000)" fill="#1D1D1D">
                <path d="M64.1390506,0.135053004 C74.3553165,-0.506448763 84.4003165,3.76070671 92.4212658,9.82250883 C101.978418,17.0478445 109.381772,26.6755654 114.838924,37.2694346 C122.696392,55.8885689 125.353608,77.1256537 120.412848,96.8485866 C117.343038,108.517686 111.488861,119.862138 101.965443,127.51341 C88.6767722,139.05265 70.2760759,142.293922 53.1962025,141.117403 C50.6168354,140.883657 51.7041139,144.392438 49.6852532,145.080689 C44.1528481,147.709028 37.4656962,147.415548 31.9332911,144.924859 C20.3598734,138.135848 13.9737342,125.66682 8.76310127,113.797739 C1.49727848,98.9964488 -0.415189873,82.109629 0.381455696,65.820159 C0.986075949,50.0579152 9.00962025,35.7137279 18.9793671,23.9381449 C22.9055063,18.689258 28.5027848,15.299947 33.5603165,11.2509541 C42.9955063,5.82026502 53.1832278,1.00770318 64.1390506,0.135053004 L64.1390506,0.135053004 Z M28.0512658,22.3564664 C20.0925949,29.7376325 13.2497468,38.5290636 9.05113924,48.5983039 C2.90373418,64.1138163 4.68126582,81.374629 8.08322785,97.3082862 C11.5786076,108.309912 16.3870253,119.062208 23.2143038,128.430212 C25.0852532,130.778057 26.8160759,133.453145 29.5459494,134.878993 C29.2189873,132.585689 28.7155696,129.689841 31.2508228,128.417226 C34.5282278,125.682403 36.7572785,130.96765 40.096962,130.837792 C49.2025949,134.131007 59.0140506,134.88159 68.6360759,133.899859 C79.8565823,133.679099 90.2986076,128.648375 99.2900633,122.243746 C106.807595,116.098834 112.114241,107.561926 114.857089,98.2822261 C120.371329,82.2888339 118.554873,64.7163604 113.723101,48.8008834 C110.995823,40.8119788 107.072278,33.150318 101.329684,26.9015194 C92.3849367,16.2634982 80.0408228,6.37606007 65.3898101,6.89809187 C51.6496203,7.37337456 38.7579747,14.0455124 28.0512658,22.3564664 L28.0512658,22.3564664 Z M32.7688608,137.151519 C35.2340506,140.452527 40.9974051,141.03689 44.6406962,139.756484 C40.7431013,138.81371 36.7728481,137.083993 32.7688608,137.151519 Z" id="Shape"></path>
                <path d="M76.0679747,46.3491519 C82.0467089,46.1647527 86.8629114,50.6059187 90.8694937,54.50947 C97.8343038,62.010106 98.0652532,73.6636219 94.7852532,82.860212 C91.5986709,92.2178269 85.3786076,100.861219 76.8101266,105.832208 C73.3614557,105.447827 74.3942405,100.453463 76.2288608,98.6458304 C80.7751899,95.8175088 85.0179114,92.0568021 87.249557,87.0780212 C91.5052532,79.6449117 93.4255063,69.6535866 88.4536076,62.0880212 C84.7687975,56.9560071 78.9976582,53.8212191 72.9203165,52.4966608 C69.9439241,50.1669965 72.5674051,45.7673852 76.0679747,46.3491519 Z" id="Shape"></path>
                <path d="M41.2750633,59.0233569 C42.6296203,58.2623852 43.4807595,55.9898587 45.3231646,56.9144523 C48.6524684,58.2857597 46.6336076,62.6827739 45.180443,64.7241519 C41.6227848,66.4512721 40.4213291,61.5997527 41.2750633,59.0233569 Z" id="Shape"></path>
                <path d="M51.7248734,101.030035 C56.045443,100.980689 55.0048734,108.019028 52.3813924,109.65265 C47.4536076,110.13053 47.5262658,102.222138 51.7248734,101.030035 Z" id="Shape"></path>
            </g>
            <g id="IMG_4489" transform="translate(124.000000, 159.793592) rotate(-353.000000) translate(-124.000000, -159.793592) translate(3.000000, 131.293592)" fill="#000000">
                <path d="M209.781627,5.2158832 C212.724016,1.54365799 218.681779,-1.65993596 222.718922,2.21203371 C225.9955,7.43611978 219.995483,11.7728795 217.713787,15.9828782 C224.086404,20.0737986 231.814978,20.5155411 239.001938,22.1519093 C240.534592,22.3439713 240.795797,23.9841806 241.153032,25.2018536 C232.064659,26.8074919 222.71124,23.0546006 214.291242,19.7857056 C214.640795,22.7972376 217.341187,25.5590889 216.250274,28.6436045 C214.371908,30.6448904 211.064601,29.1276007 209.608771,27.322218 C207.288662,20.7575392 206.827713,13.7549592 204.234877,7.25558151 C202.452541,3.74468837 207.991609,3.11856629 209.781627,5.2158832 L209.781627,5.2158832 Z M213.826452,11.5116752 C215.869992,10.178765 217.079982,7.92011599 217.560137,5.57695974 C215.320694,6.71780794 214.34502,9.19924883 213.826452,11.5116752 Z" id="Shape"></path>
                <path d="M177.084994,11.4809452 C182.255303,10.532159 187.663768,5.5539123 192.891696,8.43868335 C189.676578,12.2760819 184.325731,13.5091198 180.165668,16.1480515 C179.915988,18.1800674 179.773862,20.2812255 180.430714,22.259464 C185.224581,21.3721376 189.43458,16.3285898 194.397462,17.9073394 C192.880172,23.6960877 185.812291,24.5065893 181.294993,27.0763786 C185.574134,33.698676 190.694506,24.9982679 195.91091,25.6704849 C197.036393,29.5078834 193.033821,31.8548809 190.102955,33.1724261 C182.908313,36.4413212 173.286008,30.6679378 173.827623,22.4553672 C174.457586,18.8676493 171.58818,11.8957991 177.084994,11.4809452 Z" id="Shape"></path>
                <path d="M138.641866,12.8445854 C139.621383,10.7165385 142.798088,10.7126973 144.626518,11.6192299 C147.822429,14.2504791 148.421663,18.7716183 151.337164,21.6717543 C153.668796,20.7229681 156.154079,18.7677771 158.781487,19.7319282 C164.98893,21.8446101 166.498537,29.7998176 172.802012,31.8856108 C174.776409,32.1276089 175.414055,35.2966317 173.01328,35.3427266 C166.079842,35.8574527 161.946668,29.2428379 157.563814,24.9982679 C152.804517,29.5847082 145.836509,25.4707404 143.512558,20.384939 C141.515114,26.7153021 143.758398,33.3107108 144.676454,39.6026615 C142.498471,41.6231536 137.612414,40.0866577 137.996538,36.7563028 C136.967086,28.8356665 135.968364,20.5693185 138.641866,12.8445854 Z" id="Shape"></path>
                <path d="M121.928632,17.4195019 C133.728921,14.4540648 138.469011,32.9995703 129.676413,38.8651435 C123.077163,43.8741201 111.599539,40.9470954 109.721172,32.3888132 C108.084804,24.9022369 114.718625,18.045624 121.928632,17.4195019 L121.928632,17.4195019 Z M123.787792,21.4988985 C116.082265,22.0866082 112.609785,33.4758841 119.965759,37.0443958 C128.120711,38.6615577 131.036212,23.3695823 123.787792,21.4988985 Z" id="Shape"></path>
                <path d="M103.448428,18.8868555 C105.553427,18.12629 110.032313,17.0891553 109.394667,20.8074754 C107.343445,22.1711155 104.608482,22.4131136 102.829988,24.118624 C103.037415,28.9316974 104.097597,33.8523256 105.922186,38.3312111 C106.782624,40.9509366 110.028472,41.6846134 110.750625,44.3235451 C107.485571,45.8101049 103.248683,44.4618298 101.22435,41.5463288 C97.9900262,37.1865217 98.1283108,31.4899631 96.5073076,26.5001927 C92.2934676,27.9368164 87.8414707,31.2825362 83.2665542,29.469471 C82.01431,29.1045532 80.7927958,27.3913603 82.3484979,26.5347638 C86.9541443,23.9995456 93.549553,24.5795728 96.7147346,19.7549757 C98.7467504,18.6679048 101.289651,19.7703406 103.448428,18.8868555 Z" id="Shape"></path>
                <path d="M62.8887773,33.12249 C61.5136134,27.2453932 67.5174712,21.4220737 73.3446319,22.2978764 C75.7953428,22.1864804 78.2422126,24.4604944 77.0744757,26.9688239 C74.7620494,27.7409131 71.5661379,25.8779118 70.1564029,28.5706209 C67.1333472,32.2582111 70.0219595,37.1327443 73.3100607,39.4951068 C76.2562916,42.7640018 80.9963815,43.9701511 83.4202038,47.7038361 C83.7966453,50.0124212 80.7351772,50.3158792 79.1756338,50.9765724 C75.1807445,52.6475117 69.5072334,53.2966812 66.2690683,49.9701676 C66.4611302,45.4029335 72.6071139,50.089246 75.1269671,47.4733617 C70.8017312,42.9791112 64.1371802,39.8485008 62.8887773,33.12249 Z" id="Shape"></path>
                <path d="M2.46223468,33.3721706 C5.32779954,26.650001 13.955224,23.7921187 20.5736801,26.2159409 C22.0602399,26.8689517 24.4686972,28.3094166 23.4507687,30.1954653 C20.9731691,31.9854831 18.3572848,29.9035311 16.1908256,28.8087778 C7.68632075,30.0341333 4.39821952,41.7038196 8.13958704,48.5335439 C12.5531715,53.2889987 20.715806,54.0956591 26.2087788,50.6923207 C27.5263241,49.8626129 29.0705025,49.5553137 30.6108396,49.4861714 C32.6812678,52.6705591 28.2407947,54.8101297 25.7247826,55.4900291 C17.8809711,57.5489336 7.93984257,56.5886237 2.34315625,50.1660708 C-1.09091209,45.1570942 0.192061988,38.5808917 2.46223468,33.3721706 Z" id="Shape"></path>
                <path d="M31.2984215,29.9995621 C32.9847258,27.6564058 37.0679636,29.0891883 37.394469,31.8433572 C38.6889668,38.3043225 43.1063925,44.4771947 49.682595,46.25953 C50.8119195,41.2889657 48.8605697,36.3222427 47.888736,31.5053281 C48.8029511,28.9701098 52.7671105,29.3004565 53.8272927,31.6205653 C55.8900384,36.7563028 56.1205128,42.3606716 56.6121915,47.8037084 C56.7082225,50.1660708 53.992466,50.2928317 52.2639081,50.3734978 C41.0666942,51.0687622 32.139653,40.5130353 31.2984215,29.9995621 Z" id="Shape"></path>
            </g>
            <g id="Group-4" transform="translate(27.674252, 191.000000)" fill="#000000">
                <path d="M193.686751,6.57712609 C198.215474,3.27591902 203.664163,0.634953372 209.40173,0.790043637 C210.650573,0.781181336 212.210516,1.64968682 212.032744,3.08094841 C209.139517,5.22562521 205.241883,5.46490733 202.344211,7.64503334 C197.877709,12.288879 201.304249,22.4184889 208.499541,21.0271076 C211.646092,20.8675862 216.708128,16.502903 218.383622,20.7922566 C214.725979,23.9383734 210.103926,26.3134701 205.161886,26.0608945 C195.52224,25.5291564 191.957926,14.3715197 193.686751,6.57712609 Z" id="Shape"></path>
                <path d="M102.016423,6.52296046 C111.318303,3.1951665 121.340158,0.908692878 131.224239,1.23659801 C133.673038,4.60870348 127.624371,5.29110065 125.415564,5.88930595 C123.384527,15.0086135 125.433341,24.5311558 129.455415,32.8085448 C125.375565,35.3165759 121.482375,31.0360846 120.67796,27.2607444 C118.095832,20.7868337 119.180237,13.7811849 118.389155,7.03697391 C113.216012,8.02955161 108.078422,9.41207054 103.36304,11.8004606 C101.260895,12.9481286 99.0743086,11.516867 97.278819,10.4666843 C97.6876928,8.10488116 100.14538,7.422484 102.016423,6.52296046 Z" id="Shape"></path>
                <path d="M166.186783,6.53143333 C168.204486,6.13706094 171.253263,4.98939298 172.524328,7.28916005 C174.559809,15.9919395 176.728618,24.7833419 180.732915,32.8480357 C177.888575,35.5067259 173.417628,32.8834849 172.462108,29.6044336 C169.533327,22.2088435 167.302297,14.3922942 166.186783,6.53143333 Z" id="Shape"></path>
                <path d="M143.638733,5.36166461 C147.540812,3.59806675 152.99839,5.45471877 153.696142,9.99221681 C153.576146,13.4307895 149.869616,14.9506741 148.14079,17.5428971 C154.776102,20.0154791 163.491338,18.2873304 168.815587,23.1483024 C161.575853,27.0787328 153.207271,22.4703364 145.51422,22.4481806 C146.100865,24.5618394 147.811914,26.3077127 148.020795,28.496701 C147.2786,32.533479 140.732173,31.6871293 139.861094,28.1776581 C138.21671,22.8159661 134.972385,17.7866104 135.145712,12.0039591 C139.416666,11.4899456 139.496663,6.09723558 143.638733,5.36166461 L143.638733,5.36166461 Z M144.336486,15.0880398 C147.207491,15.154507 148.45189,11.6406048 147.651919,9.32311309 C144.878688,8.99077681 144.629808,13.0807287 144.336486,15.0880398 Z" id="Shape"></path>
                <path d="M83.9013977,4.60189002 C85.4480076,3.97709781 87.0523931,3.51625817 88.6923329,3.21937109 C92.549969,9.87939018 92.1766494,18.0371381 95.0965422,25.0915296 C96.3053867,27.342554 95.5631917,30.8032825 92.5366362,30.8165759 C84.221386,30.8298694 77.4038585,25.3352428 70.995205,20.7312776 C70.5641097,25.4194347 74.1062018,30.1075919 72.1862723,34.5476046 C70.5285554,34.4368258 68.1241993,34.8622163 67.3864486,32.9080789 C65.0176467,26.7399175 65.1109766,20.0001377 64.0621262,13.5616762 C66.239824,11.3416698 70.4352255,11.6872995 72.4618178,14.0402404 C76.7416606,18.564445 81.4525988,23.2215841 87.7323682,24.7148818 C86.9723961,17.9263593 84.2302745,11.4568797 83.9013977,4.60189002 Z" id="Shape"></path>
                <path d="M10.4473518,7.56692888 C13.4961287,4.95698128 19.6736797,3.89350518 22.1313672,7.54034198 C22.2469185,12.3791582 16.3493573,8.24046374 14.3583193,10.9966393 C10.6162345,15.0511419 7.38968628,20.0228927 6.67860128,25.5928488 C6.64749132,30.6044799 11.825079,33.6220934 16.2382503,34.3753889 C22.7269009,35.8243751 28.637795,32.4655631 34.5309119,30.3962159 C31.4110265,25.9429097 30.0821864,20.2533125 31.482135,14.9447943 C29.5266512,13.6952099 28.7266806,10.6554407 31.7487918,10.252206 C38.2107768,9.3438202 45.1927426,3.89793633 51.4991777,7.52704853 C49.6592453,10.3496913 44.8683101,10.5845423 41.7750903,12.1265827 C37.4685818,12.8754471 36.2641816,18.2016899 37.7574601,21.7377479 C44.250555,21.0686442 49.9970107,15.8132998 56.6367669,17.2711483 C53.5613242,23.6032623 44.7483145,23.2221833 39.3307357,26.7936906 C41.4862121,29.4656743 45.0594142,31.2514279 48.5259536,30.5335815 C51.1525238,29.6695072 53.4991043,27.0462661 56.4723285,28.4465097 C54.5968418,37.2246187 41.9528616,36.3605443 36.2064059,31.845202 C27.4245062,41.3766066 7.85633582,41.9570873 1.57212212,29.4302251 C-1.29443929,21.210441 4.83422456,13.0172439 10.4473518,7.56692888 Z" id="Shape"></path>
            </g>
        </g>
    </g>
</svg>