<?xml version="1.0" encoding="UTF-8" ?>
<!DOCTYPE svg PUBLIC "-//W3C//DTD SVG 1.1//EN" "http://www.w3.org/Graphics/SVG/1.1/DTD/svg11.dtd">
<svg width="1090pt" height="1419pt" viewBox="0 0 1090 1419" version="1.1" xmlns="http://www.w3.org/2000/svg">
<g id="#b9b3a5ff">
<path fill="#b9b3a5" opacity="1.00" d=" M 343.37 1038.00 C 348.82 1042.23 353.58 1047.26 358.98 1051.55 C 356.49 1058.05 349.28 1059.62 343.07 1059.88 C 342.49 1052.59 342.64 1045.26 343.37 1038.00 Z" />
</g>
<g id="#000000ff">
<path fill="#000000" opacity="1.00" d=" M 646.05 110.02 C 647.51 98.38 671.63 94.29 672.73 108.39 C 674.97 127.19 675.64 147.45 683.42 164.71 C 695.78 161.84 708.53 157.59 721.60 160.32 C 733.71 160.35 751.64 158.91 755.25 174.02 C 752.81 181.13 757.55 187.80 755.74 194.75 C 761.46 199.12 763.47 207.33 757.53 212.49 C 748.23 218.21 735.46 217.26 727.28 209.79 C 717.51 206.75 706.35 206.67 697.01 211.44 C 699.90 225.75 708.69 237.95 713.78 251.46 C 722.95 254.92 732.42 247.44 741.96 248.29 C 771.14 244.87 793.53 269.89 805.37 293.54 C 811.32 304.65 802.76 315.24 800.69 325.23 C 810.99 332.17 821.90 339.00 830.05 348.93 C 836.02 356.67 850.32 356.95 850.25 368.91 C 850.88 394.25 852.81 419.67 850.64 445.00 C 854.65 489.26 854.42 534.31 862.00 577.95 C 866.23 584.09 874.54 578.75 879.45 583.50 C 888.23 589.70 886.65 605.80 875.72 608.62 C 841.91 613.72 809.86 626.05 776.92 634.75 C 731.73 648.70 685.61 658.96 639.53 669.40 C 575.48 678.55 511.36 688.27 446.96 694.56 C 387.92 701.72 328.00 704.65 268.74 698.01 C 249.66 696.37 226.29 702.15 211.67 686.42 C 184.96 645.22 160.01 602.95 133.45 561.63 C 112.62 523.87 94.33 484.58 72.61 447.42 C 63.91 441.51 67.98 431.18 75.24 426.09 C 70.81 418.38 74.92 410.93 83.90 410.94 C 106.09 399.95 130.15 393.33 153.16 384.24 C 160.01 381.26 169.57 384.07 174.39 377.34 C 170.95 373.49 170.32 367.17 175.21 364.18 C 185.63 359.05 199.29 356.41 209.38 363.67 C 214.29 367.06 220.53 364.33 224.81 361.18 C 216.56 349.02 197.51 353.44 188.26 341.78 C 178.42 329.72 171.35 315.65 164.22 301.89 C 157.94 283.88 176.69 271.03 182.29 255.98 C 178.75 239.83 173.06 224.09 168.98 208.02 C 160.01 190.80 191.51 184.33 199.44 196.39 C 203.83 211.42 207.00 226.89 212.28 241.67 C 213.80 246.82 219.76 243.73 223.57 244.24 C 241.50 243.70 259.24 256.07 265.14 272.73 C 263.57 289.40 242.33 292.47 228.83 290.31 C 232.80 300.72 237.07 311.41 243.43 320.55 C 257.07 328.94 274.16 330.83 286.80 341.27 C 292.63 346.73 300.74 344.26 307.54 342.55 C 365.06 332.58 423.20 327.78 481.13 320.72 C 464.34 307.41 450.99 287.31 452.45 264.98 C 455.19 240.08 475.29 217.22 500.92 214.89 C 516.93 213.22 512.42 193.50 511.63 182.40 C 516.52 168.44 541.74 163.90 549.28 177.66 C 550.04 192.37 543.00 206.74 543.58 221.48 C 549.22 230.23 558.18 236.51 563.09 245.88 C 566.89 253.13 575.77 260.46 571.43 269.39 C 561.20 279.75 545.86 284.52 531.64 281.64 C 523.10 295.79 538.16 308.08 548.32 315.45 C 596.93 314.13 645.47 308.91 694.12 308.47 C 693.34 302.72 691.34 296.99 687.60 292.49 C 672.12 286.49 660.36 272.53 653.48 257.60 C 643.11 238.67 635.55 213.51 647.68 193.58 C 649.56 189.62 653.87 185.84 652.15 181.06 C 646.42 162.51 641.67 143.52 633.02 126.05 C 629.52 116.45 645.35 118.15 646.05 110.02 M 558.90 333.74 C 560.63 340.88 564.28 347.39 569.12 352.87 C 575.99 362.96 578.57 379.89 565.58 386.51 C 549.25 393.49 531.69 397.55 514.66 402.49 C 509.38 405.21 510.55 412.13 508.64 416.88 C 503.47 426.87 489.40 432.56 479.71 425.24 C 472.23 421.09 477.00 411.76 476.56 405.11 C 450.38 398.54 432.34 370.74 432.13 344.65 C 391.14 346.84 350.79 354.69 310.35 360.95 C 312.12 369.74 309.13 379.38 302.05 385.02 C 294.05 390.46 283.51 392.34 277.15 400.05 C 278.57 407.17 287.96 412.80 283.59 420.66 C 277.10 434.27 261.23 432.04 249.35 428.83 C 243.62 423.87 246.54 413.19 239.75 408.94 C 231.31 407.93 223.06 411.81 215.04 414.05 C 203.38 409.21 187.79 410.89 182.03 396.65 C 158.06 405.60 131.56 410.85 110.27 425.05 C 145.75 446.81 188.51 450.56 228.89 455.51 C 331.91 460.28 435.18 448.12 535.92 427.19 C 582.95 418.76 628.77 404.96 675.60 395.48 C 705.68 384.27 738.79 380.86 767.34 366.13 C 762.13 366.26 756.82 366.84 752.04 369.04 C 739.17 376.44 720.16 371.82 714.44 357.57 C 697.31 352.73 678.48 348.69 665.38 335.69 C 662.94 331.87 660.63 326.57 655.09 327.34 C 622.97 328.02 590.86 330.76 558.90 333.74 M 773.45 345.40 C 774.58 353.16 774.19 360.80 768.14 366.64 C 781.19 363.86 794.23 358.47 804.63 350.00 C 797.55 340.81 780.42 330.73 773.45 345.40 M 483.80 358.12 C 485.34 351.74 486.55 345.28 487.67 338.82 C 474.19 334.72 477.34 352.50 483.80 358.12 M 737.93 400.80 C 582.64 440.94 424.55 479.09 263.05 476.35 C 210.52 475.37 157.13 468.24 108.48 447.63 C 118.91 474.83 135.71 499.43 148.00 525.94 C 171.92 567.70 199.11 607.29 225.33 647.61 C 232.22 655.63 234.65 668.01 244.63 672.94 C 275.59 677.67 306.95 678.11 338.05 680.50 C 392.58 679.65 446.69 672.22 500.90 666.90 C 569.99 657.21 639.52 648.80 706.89 629.94 C 749.12 618.77 790.49 605.26 832.17 592.31 C 824.82 563.23 828.53 532.05 826.41 502.06 C 824.09 458.60 828.88 414.57 823.20 371.44 C 796.44 385.35 766.84 392.91 737.93 400.80 Z" />
<path fill="#000000" opacity="1.00" d=" M 786.21 695.34 C 798.19 689.22 812.47 686.10 824.13 694.83 C 832.41 701.74 826.70 713.05 827.26 722.00 C 829.36 760.93 828.32 799.69 831.13 838.56 C 828.75 848.93 835.51 861.27 828.18 870.16 C 814.24 878.64 804.60 857.62 790.97 861.94 C 707.15 871.00 625.79 895.06 541.94 903.97 C 501.54 908.51 460.72 908.14 420.22 905.88 C 398.07 902.20 374.32 903.47 353.70 893.61 C 347.14 891.36 348.45 883.65 349.75 878.40 C 341.72 872.44 343.32 861.76 340.81 853.23 C 334.68 831.31 332.16 808.44 326.31 786.62 C 316.69 774.50 334.81 769.39 340.92 762.08 C 391.37 754.65 442.13 748.39 492.57 741.33 C 591.16 730.27 687.51 704.97 786.21 695.34 M 586.42 747.38 C 578.56 748.93 570.09 748.77 562.99 752.93 C 559.97 752.40 556.87 752.09 553.83 752.67 C 509.00 760.11 463.92 765.04 419.04 771.90 C 397.94 776.43 374.41 776.39 355.56 787.10 C 356.64 813.72 366.22 839.92 376.53 864.32 C 377.99 869.99 373.82 879.95 382.85 880.31 C 450.90 894.91 521.59 888.20 589.82 877.93 C 647.95 865.39 706.49 854.75 764.76 842.68 C 775.92 840.28 787.11 834.68 798.71 836.67 C 797.30 797.22 800.91 757.04 795.63 717.65 C 724.93 718.96 656.05 736.92 586.42 747.38 Z" />
<path fill="#000000" opacity="1.00" d=" M 122.59 719.48 C 120.96 703.42 145.89 696.84 154.50 709.51 C 162.03 720.18 168.50 731.58 175.47 742.60 C 184.85 743.23 192.58 735.23 202.35 737.48 C 211.98 735.08 217.21 747.75 211.41 754.44 C 206.41 761.58 197.20 760.91 189.71 762.86 C 196.05 775.95 204.08 788.23 210.94 801.02 C 224.26 811.87 245.50 809.50 257.70 822.36 C 263.39 836.18 246.06 841.81 240.84 852.18 C 243.62 864.94 261.75 867.51 260.47 881.44 C 259.43 889.56 250.99 891.40 244.72 894.14 C 228.22 895.30 220.27 880.71 209.92 870.89 C 200.01 874.77 188.90 878.66 178.41 874.54 C 165.80 868.85 174.70 844.84 188.27 849.80 C 191.66 851.33 197.17 857.81 200.00 852.98 C 194.62 840.88 188.61 828.67 181.50 817.52 C 168.90 809.58 152.60 805.18 145.33 790.76 C 138.76 780.74 153.26 772.63 152.00 762.72 C 143.98 747.21 133.84 732.81 122.59 719.48 Z" />
<path fill="#000000" opacity="1.00" d=" M 870.87 755.94 C 875.82 752.09 882.77 748.98 889.13 750.15 C 899.79 754.07 899.69 766.75 905.15 774.99 C 915.76 775.15 929.01 777.63 934.04 788.17 C 934.39 797.48 923.60 802.07 916.07 804.51 C 920.13 812.85 922.55 826.06 933.85 826.79 C 941.70 828.41 953.09 830.34 954.32 840.04 C 956.54 848.59 941.21 850.95 946.55 859.46 C 951.23 865.76 945.33 871.64 942.85 877.39 C 934.90 877.95 925.30 878.14 920.31 870.71 C 914.98 861.31 900.28 866.41 895.52 856.25 C 893.78 850.70 900.83 849.56 903.13 845.93 C 899.44 836.00 887.91 833.14 881.15 825.85 C 870.15 816.15 865.89 797.15 876.95 785.90 C 874.97 775.99 869.82 766.13 870.87 755.94 Z" />
<path fill="#000000" opacity="1.00" d=" M 311.96 912.65 C 318.12 902.94 339.44 899.47 341.89 914.20 C 342.11 923.38 340.22 932.71 342.20 941.89 C 356.35 941.38 369.10 948.25 378.12 958.86 C 386.94 964.41 388.68 975.80 383.51 984.49 C 373.49 987.99 361.25 987.33 353.44 979.58 C 352.07 972.83 349.98 965.62 342.34 963.77 C 344.41 980.26 335.99 1003.17 353.28 1013.72 C 366.13 1024.87 382.24 1032.77 391.52 1047.53 C 394.85 1055.44 388.90 1063.37 382.47 1067.54 C 372.45 1077.20 358.15 1078.70 345.15 1080.33 C 343.24 1091.89 348.24 1104.58 346.57 1116.49 C 342.37 1131.63 315.70 1126.23 316.43 1111.25 C 315.25 1099.22 314.54 1086.93 312.84 1075.11 C 304.04 1068.95 294.06 1060.67 295.60 1048.61 C 298.55 1042.41 307.34 1047.36 312.64 1044.20 C 314.43 1027.70 316.17 1009.83 304.72 996.22 C 296.36 984.10 295.23 966.16 306.22 955.21 C 319.49 945.05 311.75 926.54 311.96 912.65 M 343.37 1038.00 C 342.64 1045.26 342.49 1052.59 343.07 1059.88 C 349.28 1059.62 356.49 1058.05 358.98 1051.55 C 353.58 1047.26 348.82 1042.23 343.37 1038.00 Z" />
<path fill="#000000" opacity="1.00" d=" M 755.28 963.62 C 766.03 961.33 777.65 970.56 774.57 982.06 C 777.97 1001.39 781.42 1021.12 788.59 1039.56 C 792.23 1051.22 800.68 1072.47 783.54 1076.93 C 770.86 1087.00 753.75 1079.75 739.36 1085.39 C 685.63 1095.31 632.58 1108.31 578.07 1113.45 C 553.64 1116.43 528.74 1117.85 505.19 1125.45 C 494.88 1124.34 477.59 1126.65 476.79 1111.99 C 468.46 1086.17 464.09 1059.01 457.21 1032.64 C 456.14 1027.39 450.57 1020.44 456.37 1016.24 C 466.21 1007.81 479.97 1012.24 491.37 1008.26 C 542.67 999.03 594.34 992.05 646.07 985.95 C 683.13 982.10 720.55 977.69 755.28 963.62 M 703.80 1002.49 C 631.76 1007.10 559.79 1015.30 489.20 1030.57 C 484.73 1031.01 484.78 1035.98 485.75 1039.30 C 490.99 1057.36 495.67 1075.51 501.69 1093.31 C 503.00 1095.56 503.59 1099.77 506.91 1099.57 C 538.03 1096.38 568.85 1091.47 600.05 1088.91 C 653.71 1081.14 706.91 1069.59 759.71 1057.71 C 761.99 1048.46 756.64 1038.24 753.79 1029.19 C 751.10 1017.30 750.28 1004.95 746.16 993.39 C 732.97 999.83 719.29 1006.55 703.80 1002.49 Z" />
<path fill="#000000" opacity="1.00" d=" M 821.34 1048.59 C 828.60 1037.12 850.02 1036.51 849.45 1053.89 C 856.39 1056.63 865.73 1053.61 870.81 1060.27 C 876.42 1068.67 866.36 1078.34 858.16 1079.69 C 858.45 1089.49 864.39 1097.19 873.41 1100.57 C 880.11 1105.03 877.46 1113.64 873.80 1119.16 C 870.73 1125.19 875.72 1131.34 876.93 1137.22 C 880.83 1145.84 870.40 1154.28 862.24 1152.85 C 853.99 1152.60 852.12 1142.87 846.98 1138.22 C 841.46 1135.94 831.67 1136.57 830.62 1129.07 C 832.97 1123.46 844.58 1118.60 837.10 1111.92 C 824.05 1102.82 809.57 1084.12 823.19 1069.25 C 826.13 1062.64 817.04 1055.64 821.34 1048.59 Z" />
<path fill="#000000" opacity="1.00" d=" M 355.20 1141.22 C 359.80 1132.59 370.49 1134.00 378.66 1132.44 C 388.07 1136.17 384.78 1150.06 392.81 1155.18 C 400.97 1157.93 412.55 1156.03 417.01 1165.28 C 418.48 1173.85 408.32 1181.98 400.07 1180.58 C 404.31 1192.84 407.91 1205.36 412.52 1217.49 C 416.23 1226.60 429.83 1225.38 432.56 1235.56 C 437.89 1245.50 421.56 1249.57 423.82 1259.21 C 426.50 1270.96 430.46 1282.37 434.39 1293.76 C 438.12 1301.26 445.67 1309.48 441.39 1318.34 C 433.76 1325.15 418.05 1328.63 411.96 1318.01 C 404.16 1303.99 401.30 1287.93 395.75 1273.00 C 382.46 1278.07 360.18 1274.24 362.35 1255.87 C 369.94 1252.98 378.01 1249.95 386.17 1252.49 C 391.71 1253.83 388.95 1246.58 388.48 1243.64 C 386.68 1231.16 371.73 1230.21 363.54 1223.52 C 353.15 1214.90 341.53 1204.45 340.66 1190.03 C 340.30 1177.69 350.32 1169.01 359.44 1162.44 C 363.75 1154.99 348.90 1148.41 355.20 1141.22 Z" />
<path fill="#000000" opacity="1.00" d=" M 698.35 1159.25 C 710.79 1155.36 728.43 1147.14 738.78 1159.17 C 761.46 1157.87 757.15 1186.90 766.65 1200.36 C 776.97 1212.63 772.37 1231.93 758.70 1239.46 C 712.81 1244.58 667.67 1257.54 622.87 1269.12 C 612.49 1274.77 597.04 1274.70 588.17 1266.75 C 582.91 1258.56 593.39 1252.83 599.89 1250.67 C 596.79 1236.61 593.70 1222.54 590.36 1208.54 C 589.09 1200.00 575.48 1197.60 578.53 1187.67 C 586.53 1179.20 599.34 1172.44 611.02 1177.43 C 640.67 1174.78 669.36 1165.63 698.35 1159.25 M 619.27 1201.32 C 619.70 1214.06 626.56 1226.41 629.14 1239.08 C 630.39 1245.00 637.17 1241.52 641.09 1240.86 C 671.78 1230.94 704.52 1228.18 734.63 1216.41 C 741.33 1214.50 737.43 1207.39 735.84 1203.04 C 732.25 1195.01 731.78 1184.73 723.99 1179.30 C 689.27 1187.20 653.70 1192.66 619.27 1201.32 Z" />
<path fill="#000000" opacity="1.00" d=" M 660.49 1293.00 C 665.11 1285.24 674.92 1283.77 683.12 1284.90 C 687.68 1287.75 687.68 1294.23 690.29 1298.63 C 698.83 1297.18 710.24 1294.69 716.32 1302.77 C 719.12 1311.32 713.15 1320.29 704.01 1320.63 C 703.82 1333.31 721.60 1333.42 723.91 1344.89 C 727.31 1355.26 715.88 1360.23 714.28 1369.30 C 709.45 1378.22 696.71 1372.66 690.93 1367.21 C 683.76 1364.65 672.59 1355.76 684.65 1351.13 C 684.22 1337.91 667.83 1331.45 670.51 1317.98 C 670.24 1308.74 663.78 1301.30 660.49 1293.00 Z" />
</g>
</svg>
