<?xml version="1.0" encoding="UTF-8"?>
<svg width="329px" height="211px" viewBox="0 0 329 211" version="1.1" xmlns="http://www.w3.org/2000/svg" xmlns:xlink="http://www.w3.org/1999/xlink">
    <!-- Generator: Sketch 43.2 (39069) - http://www.bohemiancoding.com/sketch -->
    <title>Group 8</title>
    <desc>Created with Sketch.</desc>
    <defs></defs>
    <g id="Page-1" stroke="none" stroke-width="1" fill="none" fill-rule="evenodd">
        <g id="Group-8" transform="translate(-6.000000, 0.000000)" fill-rule="nonzero" fill="#000000">
            <g id="iterative-cycle" transform="translate(80.674252, 0.000000)">
                <path d="M50.5879911,0.777727273 C66.0907143,-1.50913223 82.5475893,2.99876033 94.1379911,11.5220661 C107.484152,21.834876 117.187187,34.8758264 124.500357,48.521405 C126.208259,45.7591322 129.082679,40.5905372 133.790625,42.9968595 C133.476562,47.8558264 129.827455,52.1759917 127.97,56.7521488 C127.219241,58.8610331 126.32192,60.9577273 124.955,62.8569421 C123.540223,64.8049174 119.897098,65.1023554 117.902054,63.5810331 C112.736473,61.3161157 108.055446,58.3490496 102.856964,56.1328926 C100.099196,55.7354959 95.9326339,54.577438 97.1111161,51.6079339 C99.4979911,50.3060331 103.449196,48.7895868 105.707455,51.0959504 C110.065446,53.5656612 114.839196,55.5258264 119.391607,57.7468595 C121.563125,56.9910744 120.576071,55.3868595 119.0925,54.5945041 C113.406473,40.6490496 104.053393,27.6495455 91.5955804,17.0076033 C83.3880804,9.68136364 71.6511161,4.97842975 59.4804464,4.45913223 C48.4404018,3.94958678 37.6246875,8.06983471 30.2457143,14.6573554 C19.34625,23.1294628 13.9892411,35.2902893 11.5186161,47.1439256 C10.2115179,54.5652479 9.38897321,62.1084711 10.9233929,69.5541736 C11.3989732,72.723595 6.27227679,74.6130579 3.59526786,72.4017769 C3.12866071,58.9853719 3.50852679,44.9033884 9.96325893,32.2598347 C16.1936607,17.3464876 31.3015625,4.21289256 50.5879911,0.777727273 Z" id="Shape"></path>
                <path d="M119.852232,74.2229752 C121.868214,72.3115702 126.707768,71.9897521 127.730714,74.8397934 C129.579196,80.2131818 125.831384,85.6036364 123.704732,90.5893802 C120.528214,94.7340083 117.522188,99.0395455 112.972768,102.31624 C101.75625,110.937066 87.1867411,117.441694 71.4776339,117.758636 C51.2400446,119.058099 31.4122321,111.271074 17.7370536,99.3979339 C14.1746875,96.1797521 11.8207143,92.2423554 8.62924107,88.8193802 C6.84955357,93.4077273 7.72294643,98.4032231 8.2703125,103.089091 C7.64517857,106.243884 1.6121875,105.948884 0.206383929,103.459669 C0.687946429,95.721405 1.26821429,87.7344628 2.21040179,80.0644628 C4.86647321,76.9754959 9.76883929,78.3505372 13.2953125,79.4378926 C17.6503125,81.5102066 22.8129018,81.9978099 27.3683036,83.78 C29.0881696,84.6333058 31.8848214,85.7523554 31.1191071,87.758843 C31.0263839,89.392314 28.349375,89.8994215 26.9764732,88.9193388 C23.1718304,87.5979339 19.3013839,86.0034711 15.1677232,85.6085124 C19.7081696,96.1480579 31.0473214,103.662025 42.8740179,108.672149 C52.5082589,112.76314 63.5901786,113.945579 74.3221429,113.25562 C92.4749554,111.541694 109.105313,101.550702 117.342723,88.3390909 C119.639866,83.9530992 121.760536,78.9673554 119.852232,74.2229752 Z" id="Shape"></path>
            </g>
            <g id="Group-3" transform="translate(170.029148, 185.445678) rotate(8.000000) translate(-170.029148, -185.445678) translate(5.529148, 139.945678)">
                <path d="M310.950876,1.21478469 C313.502483,0.222057416 316.303134,-0.583444976 318.959602,0.583444976 C319.431474,2.90416268 317.277463,4.24956938 315.656494,5.4077512 C308.027888,10.1144976 299.044834,12.0389952 291.219615,16.4366029 C290.332669,19.7674641 290.690943,23.4901914 292.338127,26.5336842 C299.669628,24.5264593 306.214675,20.0287081 313.808327,18.8922967 C316.499748,18.3393301 318.959602,22.1752632 316.128367,23.7383732 C309.688181,27.3174163 302.522709,29.4726794 296.20923,33.3521531 C303.899004,39.8571292 314.070478,34.5712919 320.536879,29.0067943 C322.599137,26.6294737 328.314037,25.9763636 328.716003,30.0517703 C327.697981,36.012488 321.519947,39.0255024 316.333718,40.9238756 C305.209761,46.5536842 291.560412,41.1154545 284.408048,31.7150239 C282.743386,36.6307656 282.621049,41.8904785 281.790903,46.9629665 C281.039402,50.7771292 276.556614,50.6944019 273.568088,50.0325837 C261.067835,46.4187081 252.242072,34.5059809 250.800239,21.8269378 C253.697012,19.4888038 259.092961,20.3160766 260.01923,24.31311 C261.806228,31.1489952 265.284104,39.5088038 272.541328,41.8033971 C274.546786,31.8891866 278.107676,22.1230144 279.728645,12.287177 C289.860797,7.93311005 300.556574,4.92880383 310.950876,1.21478469 Z" id="Shape"></path>
                <path d="M219.267795,21.7267943 C222.457304,20.1114354 229.902404,19.6194258 228.294542,24.9966986 C223.440372,28.6192823 216.895325,29.0503349 211.58239,31.9762679 C210.433293,40.7627751 213.198991,49.9803349 218.232297,57.1776077 C218.035684,61.296555 212.482444,59.0498565 210.315325,57.7523445 C204.403811,52.12689 203.267822,43.7627273 201.799774,36.1648804 C196.264011,37.1053589 192.4934,42.3476555 186.761023,42.5000478 C183.637052,43.6495215 181.006799,45.8613876 178.123134,47.5115789 C181.072337,51.1689952 189.037371,53.1500957 187.176096,58.9366507 C180.674741,60.7610048 176.406042,53.3547368 170.91834,51.543445 C167.462311,52.9672249 162.359097,55.4055024 163.883944,60.0208134 C163.726653,63.6433971 167.296282,69.8174641 162.114422,71.1889952 C148.661687,67.6839713 135.32255,61.7101914 121.236282,61.22689 C120.174568,64.7798086 126.461833,67.6926794 123.774781,71.5503828 C120.70324,75.0466986 113.974688,72.0946411 113.253772,67.7797608 C109.526853,58.1616268 106.822324,48.0514833 104.31004,38.1416268 C105.511567,34.645311 110.531766,35.5074163 113.140173,36.8266986 C119.388114,29.5031579 132.923865,31.9544976 136.904197,40.3491388 C138.87907,46.7888038 132.03255,50.6160287 128.598367,54.926555 C137.306162,56.8815311 145.874143,59.8771292 154.555724,61.8277512 C155.01012,59.4286603 154.512032,57.0513397 153.694993,54.8002871 C155.682975,48.1385646 154.79166,40.8933971 156.604874,34.1576555 C157.775817,32.8296651 159.829336,32.8732057 161.472151,32.5466507 C167.938552,31.85 168.891036,44.2503828 175.466667,40.7627751 C189.260199,32.7817703 204.132922,26.8166986 219.267795,21.7267943 L219.267795,21.7267943 Z M122.69996,38.2156459 C118.112311,41.5116746 116.386481,48.2866029 118.776428,53.3721531 C123.163094,51.6000478 126.544847,47.6726794 128.279416,43.353445 C129.716879,40.1880383 125.710332,36.269378 122.69996,38.2156459 Z" id="Shape"></path>
                <path d="M235.219708,21.5526316 C238.92915,20.3378469 243.058035,22.6542105 243.250279,26.6904306 C244.574143,34.0313876 248.030173,40.6060287 251.669708,47.0108612 C253.509137,50.3634928 248.96081,51.21689 246.80243,49.6886124 C239.016534,45.6654545 236.50425,36.0386124 234.245378,28.21 C233.904582,26.1461722 232.038938,22.0664115 235.219708,21.5526316 Z" id="Shape"></path>
                <path d="M52.9982736,38.5291388 C57.7825365,37.0095694 63.9256175,32.6250239 68.491421,36.6089952 C63.8950332,43.7191866 53.3652855,43.8411005 46.2347676,47.7336364 C47.2047278,57.5041627 48.4455777,68.2761244 54.4706906,76.7404306 C56.5023639,81.8477512 48.4630544,79.9058373 46.2828287,77.9421531 C39.8120584,70.6926316 38.7066534,60.3473684 37.7672776,51.221244 C29.8284595,51.4911962 20.2555644,61.3444498 13.0507703,53.5985646 C11.9890571,49.7844019 17.4286985,50.2720574 19.809907,49.8366507 C30.9688181,46.3838756 42.0141301,42.508756 52.9982736,38.5291388 Z" id="Shape"></path>
                <path d="M67.0321116,47.6160766 C75.4646481,43.8846411 83.9190305,36.8310526 93.7016467,39.0733971 C93.7191235,39.8222967 93.7322311,40.5755502 93.7584462,41.3244498 C87.2614608,44.5072727 80.68583,47.6030144 74.8136388,51.8656459 C71.0561355,53.2676555 67.8447809,57.9352153 70.8638911,61.4750718 C78.0555777,60.6565072 83.9627224,54.9091388 91.3335458,54.6914354 C93.5268792,55.1355502 93.0462683,58.0701914 91.8360027,59.3285167 C86.413838,63.7827273 79.1129216,64.7362679 73.2450996,68.3414354 C75.7835989,72.0293301 81.2101328,74.2107177 85.3870784,72.0467464 C88.2532669,70.4139713 93.0462683,67.2833971 95.4711687,71.1541627 C95.5629216,74.4806699 91.7005578,76.18311 89.1402125,77.480622 C78.8944622,83.0538278 65.869907,75.5691866 61.911421,65.5330622 C61.1599203,60.1296651 58.6301594,54.404067 60.6967862,49.0921053 C62.3570784,47.4288517 64.9043161,47.8599043 67.0321116,47.6160766 Z" id="Shape"></path>
                <path d="M6.6236919,49.9890431 C9.27579017,51.0296651 10.0797211,54.1820096 10.7875299,56.6725359 C13.5139044,67.4140191 15.8820053,78.4689952 21.5138911,88.1567943 C21.6231208,92.5848804 14.357158,91.0130622 12.5483134,88.5355981 C4.85416999,77.8202392 5.50954847,63.9525359 0.157290837,52.3097608 C1.13598938,49.7060287 4.36918991,50.0935407 6.6236919,49.9890431 Z" id="Shape"></path>
            </g>
        </g>
    </g>
</svg>