<?xml version="1.0" encoding="UTF-8"?>
<svg width="132px" height="114px" viewBox="0 0 132 114" version="1.1" xmlns="http://www.w3.org/2000/svg" xmlns:xlink="http://www.w3.org/1999/xlink">
    <!-- Generator: Sketch 43.2 (39069) - http://www.bohemiancoding.com/sketch -->
    <title>repeat copy</title>
    <desc>Created with Sketch.</desc>
    <defs></defs>
    <g id="Page-1" stroke="none" stroke-width="1" fill="none" fill-rule="evenodd">
        <g id="repeat-copy" transform="translate(66.000000, 57.000000) rotate(-270.000000) translate(-66.000000, -57.000000) translate(10.000000, -8.000000)" stroke="#000000" stroke-width="2" fill="#131314" fill-rule="nonzero">
            <path d="M31.7025399,0.469857143 C34.0843941,-0.417857143 36.5244403,0.913714286 38.9384003,1.00471429 C43.1081502,1.13842857 47.1635229,2.60557143 51.3312661,2.38457143 C54.0482254,3.25 55.3304536,6.61885714 53.7071005,8.83442857 C50.0169321,14.2981429 47.885905,20.4991429 46.5033459,26.7781429 C46.1642277,28.9621429 41.8239154,30.732 41.0854804,27.9462857 C41.0754473,22.282 44.1335314,17.1172857 45.7087257,11.765 C31.3875011,13.5441429 19.1651977,22.9914286 12.868434,34.7787143 C7.48066769,45.3384286 4.93025765,57.0625714 5.09680685,68.7217143 C5.81918892,79.3371429 8.70069075,90.4428571 16.3900466,98.6718571 C21.2681322,103.925714 28.5521514,106.234143 35.420801,108.408857 C39.0046187,109.944714 42.9375878,110.048714 46.718054,110.821286 C47.9360704,111.982 49.320636,113.579143 48.4898966,115.284 C47.0932913,116.649 44.8378539,116.708429 42.941601,116.866286 C37.4775833,116.229286 32.4068624,114.089857 27.2518637,112.424 C20.0822216,109.981857 13.4684124,105.521 9.69797933,99.2828571 C4.22192189,91.9768571 1.93036543,83.1405714 0.503660834,74.4807143 C-0.746461475,61.6311429 1.39459872,48.5475714 6.2566314,36.4742857 C11.2049486,23.92 21.2761587,12.7771429 34.6923991,7.45642857 C33.4021444,7.397 32.0817905,7.15185714 31.0724622,6.34957143 C29.6778635,5.24085714 27.308049,6.62814286 26.2244759,5.044 C25.2432402,3.34657143 27.2016983,1.74571429 28.4979728,0.752142857 C29.3728577,-0.176428571 30.6350197,0.776285714 31.7025399,0.469857143 Z" id="Shape"></path>
            <path d="M64.1675942,6.91414286 C72.1780088,8.83257143 79.5743986,12.8477143 85.6524411,18.0347143 C91.0923794,21.9922857 95.5691416,26.9787143 99.3496078,32.318 C106.796163,41.483 111.07427,52.8041429 111.461547,64.2645714 C112.781901,81.7217143 102.255189,98.7331429 87.0951986,108.659571 C80.5596475,113.161286 72.9184504,115.967429 65.9093377,119.720714 C65.9113443,119.889714 65.9153575,120.060571 65.9213774,120.233286 C69.1700901,121.707857 72.4970609,123.028286 75.7758728,124.441571 C76.1390705,125.500143 76.7791813,126.456571 77.6119273,127.255143 C76.8213202,130.447571 72.4428822,130.406714 69.9887898,128.948857 C66.1882574,127.485429 62.5743405,125.541 58.5591001,124.614286 C56.737092,124.398857 54.1244768,124.190857 53.793385,122.088571 C53.5184785,119.575857 54.5900119,117.039 56.3678745,115.148429 C59.0406881,110.286429 61.2379336,105.212714 63.6960393,100.250429 C64.0552237,98.9875714 64.6993477,96.9855714 66.5634948,97.4702857 C68.7968594,98.5845714 70.4061661,101.383286 69.0296269,103.623 C66.6397462,106.468143 65.2511674,109.909429 63.9107473,113.250429 C72.4489021,109.616 81.0673215,105.914714 88.4637113,100.462143 C96.0085907,94.6938571 101.486655,86.801 104.701255,78.2915714 C107.610849,69.7152857 106.972745,60.4258571 104.315985,51.87 C100.34489,41.5832857 93.6106836,32.2232857 84.9942707,24.7742857 C82.7308069,23.1697143 80.619846,21.3942857 78.4807924,19.656 C75.0113518,17.6224286 71.3272032,15.8024286 67.3621283,14.7475714 C65.9675296,14.3984286 64.085323,14.4448571 63.3107688,13.0984286 C62.0566333,11.0797143 63.3649475,8.84742857 64.1675942,6.91414286 Z" id="Shape"></path>
        </g>
    </g>
</svg>