<?xml version="1.0" encoding="UTF-8"?>
<svg width="563px" height="180px" viewBox="0 0 563 180" version="1.1" xmlns="http://www.w3.org/2000/svg" xmlns:xlink="http://www.w3.org/1999/xlink">
    <!-- Generator: Sketch 43.2 (39069) - http://www.bohemiancoding.com/sketch -->
    <title>Group</title>
    <desc>Created with Sketch.</desc>
    <defs>
        <polygon id="path-1" points="0 179.94 0 0.303 562.775 0.303 562.775 179.94"></polygon>
    </defs>
    <g id="Page-1" stroke="none" stroke-width="1" fill="none" fill-rule="evenodd">
        <g id="Group">
            <g id="Kmart_Flat_MASTERBRAND_CMYK">
                <g id="Group-5">
                    <mask id="mask-2" fill="white">
                        <use xlink:href="#path-1"></use>
                    </mask>
                    <g id="Clip-2"></g>
                    <path d="M561.435,176.139 L310.132,90.041 L533.787,4.702 C534.682,4.36 535.205,3.429 535.031,2.488 C534.857,1.547 534.037,0.863 533.08,0.863 L271.859,0.863 C271.62,0.863 271.383,0.907 271.158,0.991 L212.443,23.17 L223.232,3.231 C223.565,2.617 223.55,1.872 223.192,1.271 C222.834,0.671 222.186,0.303 221.487,0.303 L77.79,0.303 C76.999,0.303 76.282,0.774 75.969,1.5 L0.163,177.055 C-0.103,177.668 -0.041,178.373 0.326,178.932 C0.693,179.49 1.316,179.826 1.984,179.826 L144.801,179.826 C145.602,179.826 146.325,179.344 146.633,178.605 L158.977,148.966 L167.96,147.453 L261.461,179.891 C261.67,179.963 261.89,180 262.111,180 L560.791,180 C561.761,180 562.589,179.299 562.748,178.342 C562.907,177.385 562.352,176.454 561.435,176.139" id="Fill-1" fill="#FFFFFF" mask="url(#mask-2)"></path>
                    <polygon id="Fill-3" fill="#CC1E2F" mask="url(#mask-2)" points="505.702 7.893 272.779 7.893 197.288 36.408 213.016 7.332 81.106 7.332 9.663 172.79 141.431 172.79 153.977 142.68 168.563 140.225 262.962 172.972 530.502 172.972 289.484 90.401"></polygon>
                    <path d="M562.448,80.004 C562.081,79.447 561.459,79.111 560.791,79.111 L546.572,79.107 L550.409,70.183 C550.71,69.483 550.583,68.672 550.083,68.097 C549.7,67.658 549.151,67.415 548.586,67.415 C548.411,67.415 512.296,77.273 512.296,77.273 C505.021,76.805 498.643,78.34 495.976,79.094 L436.152,79.113 C434.317,78.67 430.6,77.998 425.471,77.998 C415.71,77.998 407.301,80.474 401.166,84.011 C399.184,81.157 393.885,78.55 385.675,78.489 C380.749,78.453 374.68,79.292 367.921,81.657 C365.911,80.23 362.098,78.504 355.411,78.504 C353.485,78.504 350.768,78.728 348.286,79.091 L321.034,79.091 L311.121,83.639 L299.979,108.855 C299.708,109.469 299.766,110.178 300.132,110.74 C300.498,111.302 301.124,111.641 301.795,111.641 L485.981,111.644 C486.775,111.644 487.493,111.17 487.806,110.44 C487.806,110.44 491.632,101.486 492.2,100.152 C492.711,99.074 492.977,98.918 497.866,98.081 C499.069,97.874 500.586,97.77 502.375,97.767 C501.353,100.803 501.629,103.921 503.184,106.498 C505.107,109.72 508.6,111.647 512.521,111.647 L548.503,111.644 C549.296,111.644 550.013,111.172 550.325,110.444 L562.613,81.879 C562.877,81.266 562.815,80.561 562.448,80.004 L447.09907,91.5199953" id="Fill-4" fill="#FFFFFF" mask="url(#mask-2)"></path>
                </g>
                <path d="M396.785,92.383 C396.785,92.383 399.147,84.686 385.862,84.686 C373.434,84.686 367.957,88.124 366.293,88.828 C366.293,88.828 364.767,84.686 355.562,84.686 C343.148,84.686 339.782,87.594 338.093,88.298 L339.525,85.154 L317.076,85.154 L308.042,105.534 L330.499,105.534 L335.388,94.352 C336.512,93.497 337.999,92.433 340.836,92.433 C343.691,92.433 344.289,93.37 344.023,94.076 L338.996,105.534 L360.805,105.534 L365.691,94.352 C366.815,93.497 368.284,92.433 371.148,92.433 C373.98,92.433 374.581,93.37 374.313,94.076 L369.288,105.534 L391.007,105.534 L396.785,92.383 L381.571395,92.383" id="Fill-6" fill="#0F67B4"></path>
                <path d="M425.002,84.348 C428.801,84.348 437.309,85.218 440.461,87.113 L441.515,85.154 L464.214,85.154 L455.352,105.534 L432.662,105.534 L433.927,102.656 C431.713,103.876 425.819,106.029 418.121,106.029 C410.419,106.029 397.117,104.601 397.704,97.258 C398.316,89.816 410.221,84.348 425.002,84.348 Z M421.651,95.296 C421.357,96.612 424.386,97.374 428.774,97.374 C433.454,97.374 436.559,95.77 436.841,94.454 C437.115,93.131 434.453,92.393 429.796,92.393 C425.391,92.393 421.926,93.973 421.651,95.296 L421.651,95.296 Z" id="Fill-7" fill="#0F67B4"></path>
                <path d="M507.841,91.903 C494.542,91.129 488.125,94.271 486.795,97.385 L483.283,105.534 L460.443,105.534 L469.277,85.154 L492.15,85.154 L491.106,87.113 C498.289,84.189 506.67,82.981 511.586,83.344 L507.841,91.903" id="Fill-8" fill="#0F67B4"></path>
                <path d="M545.807,105.545 L549.146,97.809 L531.982,97.809 L534.59,91.759 L551.732,91.759 L554.585,85.161 L537.379,85.154 L541.507,75.565 L515.433,82.609 L508.358,99.08 C506.773,102.566 509.003,105.545 512.642,105.545 L545.807,105.545" id="Fill-9" fill="#0F67B4"></path>
            </g>
        </g>
    </g>
</svg>