<?xml version="1.0" encoding="UTF-8"?>
<svg width="272px" height="300px" viewBox="0 0 272 300" version="1.1" xmlns="http://www.w3.org/2000/svg" xmlns:xlink="http://www.w3.org/1999/xlink">
    <!-- Generator: Sketch 43.2 (39069) - http://www.bohemiancoding.com/sketch -->
    <title>Group</title>
    <desc>Created with Sketch.</desc>
    <defs></defs>
    <g id="Page-1" stroke="none" stroke-width="1" fill="none" fill-rule="evenodd">
        <g id="Group" fill-rule="nonzero" fill="#161619">
            <g id="question_marks-copy">
                <path d="M171.066917,0.497768595 C183.30906,-0.556714876 195.561015,3.05538223 206.279023,8.83539256 C207.678872,9.6115186 209.225902,10.1485847 210.504737,11.1277479 C212.424624,12.8764876 215.001917,13.7279339 216.748459,15.6928099 C219.672444,17.9786157 222.498308,20.5198554 224.431278,23.7324277 C227.414135,27.7309504 229.402707,32.3877066 230.619398,37.2049277 C231.459962,40.4044008 230.361015,43.6759194 229.22282,46.6527066 C225.863835,52.1576343 220.997068,56.5294835 215.966767,60.4788843 C213.111466,62.4142872 210.269248,64.3693388 207.47609,66.3866116 C201.523459,70.0052583 195.426917,73.2997004 189.336917,76.6858368 C188.283759,77.2098037 187.217519,77.7304959 186.324624,78.5131715 C188.408045,81.326219 190.229812,84.3357541 191.86515,87.4337087 C193.088383,90.4825413 194.448985,93.4789773 195.502143,96.5965806 C196.967406,100.051488 198.066353,103.732355 200.313308,106.791012 C200.816992,107.524566 200.568421,108.477531 200.620752,109.312603 C199.639549,109.947913 198.638722,110.665093 197.428571,110.740413 C195.047519,111.015496 192.738421,111.686829 190.527444,112.613595 C187.645977,113.779421 184.358947,114.077428 181.86015,116.061952 C180.666353,116.952696 179.027744,117.450465 177.611541,116.775857 C176.666316,116.34031 175.13891,116.127448 175.063684,114.840455 C174.972105,113.203058 174.246015,111.706477 174.003985,110.101829 C173.483947,107.757076 172.299962,105.625186 171.815902,103.267335 C170.998233,101.171467 170.671165,98.9151343 169.689962,96.8814876 C168.185451,93.5608471 167.707932,89.8996281 166.340789,86.5298657 C164.051316,79.64625 161.997331,72.6840393 160.335827,65.6235847 C160.136316,64.605124 159.534511,63.7471281 158.981767,62.8956818 C159.413496,62.0933574 159.747105,61.038874 160.770827,60.8391116 C162.494474,60.056436 164.41109,60.5574793 166.226316,60.419938 C171.868233,59.3196074 177.013008,56.647376 182.095639,54.0701136 C187.645977,50.5366116 193.127632,46.5937603 197.052444,41.2230992 C198.668158,38.9143698 199.852143,35.963781 199.031203,33.1343595 C197.582293,28.5954959 194.269098,24.5445764 189.785,22.7729132 C184.836466,21.3320041 179.430038,21.2665083 174.524023,22.9235537 C169.055451,23.8994421 164.041504,26.8565806 160.175564,30.8092562 C158.360338,32.7544835 155.334962,31.0286674 154.141165,29.1915083 C154.232744,21.0831198 153.166504,13.0140289 152.496015,4.94821281 C152.525451,4.07384298 151.750301,2.84579545 152.61703,2.24978306 C153.859887,1.99762397 155.141992,2.11224174 156.404474,2.11551653 C156.904887,2.7246281 157.398759,3.34028926 157.879549,3.96577479 C162.111805,2.26615702 166.550113,1.13635331 171.066917,0.497768595 L171.066917,0.497768595 Z M167.393947,5.66211777 C165.493684,6.01252066 163.629398,6.67402893 162.075827,7.84640496 C160.983421,8.79936983 159.452744,8.35072314 158.229511,7.95447314 C158.530414,13.3054855 159.263045,18.62375 159.776541,23.9583884 C160.512444,23.7389773 161.235263,23.4540702 161.876316,23.0185227 C164.587707,21.2730579 167.671955,20.2120248 170.798722,19.5079442 C177.209248,17.5659917 184.100564,17.3760537 190.60594,18.9512293 C195.309173,20.2054752 199.590489,23.1134917 202.354211,27.134938 C203.639586,29.4436674 205.291278,31.683626 205.647782,34.3689566 C205.745902,37.2376756 204.359135,39.8509607 203.047594,42.3070558 C202.11218,43.6431715 200.731955,44.602686 199.858684,45.9944731 C198.815338,47.6744421 197.023008,48.5946591 195.626429,49.9242252 C193.493947,52.0266426 190.844699,53.4577273 188.375338,55.1082231 C184.303346,58.0915599 179.609925,60.0466116 175.030977,62.0900826 C173.59515,62.8039876 171.936917,62.7777893 170.468383,63.3869008 C169.173195,63.9108678 167.815865,64.2416219 166.481429,64.6378719 C167.384135,72.9198244 170.651541,80.6647107 172.643383,88.6977789 C174.350677,93.4331302 176.3,98.096436 177.69985,102.94968 C178.900188,105.55314 179.469286,108.372738 180.545338,111.022045 C184.90188,109.990486 189.065451,108.235196 193.418722,107.167614 C193.333684,104.701694 191.603496,102.684421 191.034398,100.329845 C189.438308,94.5858574 187.086692,89.0547314 183.786579,84.083595 C182.550263,81.7519421 181.104624,79.1583058 178.589474,78.0416012 C178.504436,77.2360021 178.033459,76.2470145 178.76282,75.605155 C179.946805,74.5703202 181.61485,74.5506715 183.044135,74.0725517 C186.49797,72.9394731 189.582218,70.9614979 192.823459,69.3568492 C201.059023,64.6345971 209.418872,59.8959711 216.470451,53.4544525 C218.655263,51.7057128 220.257895,49.3806095 222.056767,47.2618182 C224.192519,44.4618698 225.674135,40.7417045 224.735451,37.2082025 C224.156541,33.9104855 222.720714,30.8845764 221.219474,27.9307128 C220.450865,25.6350826 218.812256,23.8503202 217.271767,22.0557335 C215.198158,19.3245558 212.359211,17.3531302 209.801541,15.1197211 C207.688684,13.3873554 205.147368,12.3164979 202.789211,10.9771074 C197.199624,7.68921488 190.851241,6.02234504 184.551917,4.72552686 C181.484023,4.1131405 178.340902,4.37839876 175.23703,4.39477273 C172.564887,4.35875 169.997406,5.19054752 167.393947,5.66211777 Z" id="Shape"></path>
                <path d="M53.8131579,72.3008884 C60.1517293,71.0335434 66.689812,70.5521488 73.1330451,71.2889773 C79.5468421,71.4920145 85.8265414,72.9722211 91.9361654,74.8323037 C97.5355639,76.8332025 103.17094,79.0829855 107.913421,82.7442045 C113.591316,86.0386467 117.895526,91.1866219 121.630639,96.4917872 C123.481842,99.7993285 125.319962,103.228037 125.892331,107.026798 C126.150714,108.919628 126.674023,110.763337 126.85718,112.665992 C126.840827,121.429339 124.878421,130.20906 121.126955,138.14061 C119.547218,142.722045 116.858722,146.795888 114.163684,150.781312 C109.182444,157.183533 103.929737,163.431839 97.8822556,168.858171 C96.0146992,170.764101 93.7252256,172.175537 91.475,173.577149 C93.2706015,176.478616 95.8021053,178.849566 97.9051504,181.528347 C100.070338,184.387242 102.64109,186.95468 104.371278,190.127955 C107.592895,195.007397 110.601917,200.1128 114.762218,204.271787 C115.92985,205.149432 117.182519,205.977955 117.836654,207.350093 C117.130188,208.941643 115.501391,210.261384 113.699248,210.114019 C111.96906,210.00595 110.27812,210.48407 108.577368,210.716581 C103.013947,212.137841 96.7506015,213.5853 93.1921053,218.530238 C92.0996992,219.450455 92.6262782,221.176271 91.4390226,222.017893 C90.0293609,223.32781 87.9361278,222.61718 86.2778947,222.279876 C84.9467293,222.001519 85.2541729,220.32155 84.6000376,219.414432 C82.1437594,214.937789 79.7790602,210.385826 76.9237594,206.151519 C71.6579699,197.509339 66.1992105,188.978502 61.4665414,180.025217 C58.6635714,175.473254 56.6913534,170.240134 52.6520677,166.578915 C52.1451128,165.187128 53.6005639,164.401178 54.5752256,163.81499 C57.4992105,162.14157 60.033985,159.901612 62.7224812,157.887614 C64.7993609,155.804845 67.3341353,154.236219 69.3128947,152.045382 C71.1248496,149.926591 73.4862782,148.305568 74.9090226,145.859298 C79.5599248,140.046539 83.3473684,132.953337 83.0759023,125.313244 C82.653985,123.194452 81.7578195,121.160806 80.4168421,119.461188 C76.5901504,113.56001 69.4993233,110.812459 62.7944361,109.888967 C59.2195865,109.728502 55.5695113,109.541839 52.0698872,110.435857 C47.1671429,111.316777 42.2938346,113.000021 38.3134211,116.071777 C34.3820677,118.573719 31.0230827,121.982779 28.4850376,125.883058 C27.3403008,128.086994 25.7507519,130.12719 25.2765038,132.616033 C25.0966165,133.53625 24.4065038,134.289452 23.6084586,134.744649 C21.8063158,134.960785 19.5659023,135.065579 18.2053008,133.647593 C16.9101128,130.182862 14.7743609,127.117655 13.3189098,123.721694 C11.3892105,120.263512 9.7931203,116.631767 7.84379699,113.189959 C5.7374812,108.372738 3.24195489,103.683233 1.88462406,98.5745558 C1.56082707,97.303936 0.654849624,96.1708574 0.684285714,94.8281921 C1.83883459,93.9472727 3.42838346,93.609969 4.84131579,93.9210744 C7.00323308,96.9338843 7.73259398,100.712996 9.44315789,103.98124 C10.5290226,107.292056 12.3540602,110.262293 13.8389474,113.396271 C15.0589098,116.602293 17.0572932,119.42844 18.4833083,122.542769 C19.588797,124.052448 20.1906015,125.964928 21.6689474,127.170052 C25.8325188,120.086674 31.9715789,114.231343 39.2815414,110.488254 C48.2759023,106.158977 58.7126316,104.770465 68.4952256,106.840134 C74.7454887,108.42186 80.9892105,111.241457 85.0873684,116.405806 C86.6671053,118.193843 87.4357143,120.499298 88.2762782,122.690134 C89.5747368,129.337965 87.2623684,136.215031 83.4389474,141.638089 C82.228797,142.997128 81.7316541,144.86376 80.3416165,146.072159 C79.2655639,147.09062 78.5329323,148.400537 77.5484586,149.497593 C72.2205263,155.618182 65.698797,160.507448 59.5335714,165.724194 C60.7306391,167.85281 62.3986842,169.706343 63.2261654,172.037996 C65.4698496,175.912076 67.4649624,179.930248 69.7740602,183.768306 C72.0046617,188.077934 74.4118797,192.318791 77.3064286,196.222345 C78.7160902,198.255992 79.6776692,200.564721 81.1331203,202.572169 C83.9982331,206.711508 86.245188,211.220899 88.8878947,215.497779 C90.9091729,213.889855 92.8421429,212.121467 95.2460902,211.086632 C99.4521805,208.696033 104.23718,207.746343 108.871729,206.560868 C108.541391,205.6603 107.959211,204.897273 107.337782,204.189917 C106.091654,202.807955 105.718797,200.888926 104.498835,199.484039 C102.523346,196.438481 100.453008,193.44532 98.637782,190.294969 C96.6132331,187.914194 94.8176316,185.346756 92.9566165,182.851364 C91.2820301,181.688812 89.9018045,180.192231 88.8617293,178.436942 C87.2885338,176.842118 85.7611278,175.132676 83.7856391,174.02907 C83.0464662,172.05437 85.0644737,170.416973 86.8077444,170.122242 C89.5453008,169.860258 91.6090977,167.888833 93.6925188,166.300558 C101.509436,159.096012 108.626429,150.967975 113.856241,141.670837 C116.338684,135.619019 119.370602,129.64907 120.220977,123.086384 C122.095075,115.488864 121.022293,107.341178 117.934774,100.211952 C116.871805,98.4468388 115.733609,96.7242975 114.634662,94.9853822 C112.155489,92.4605165 110.153835,89.3887603 107.112105,87.4697314 C105.34594,86.3235537 103.883947,84.7647521 102.042556,83.720093 C90.8535714,76.967469 77.564812,74.5015496 64.6358271,74.6423657 C56.3773684,75.064814 48.1418045,76.8855992 40.6356015,80.4125517 C34.4605639,83.7102686 28.5373684,87.5516012 23.3042857,92.2214566 C21.2470301,93.9570971 19.2224812,96.0202169 18.7057143,98.7677686 C17.515188,100.205403 15.3238346,99.1345455 13.8912782,98.6040289 C13.3123684,96.8978616 14.0221053,94.9297107 15.2257143,93.6296178 C17.7179699,90.3253512 21.1685338,87.9969731 24.3116541,85.3771384 C31.2487594,80.5730165 38.5456391,75.9817562 46.7779323,73.813843 C49.0935714,73.1752583 51.4092105,72.497376 53.8131579,72.3008884 Z" id="Shape"></path>
                <path d="M193.611692,121.265599 C196.679586,119.248326 200.921654,118.665413 204.136729,120.679411 C206.785977,122.346281 209.278233,124.402851 211.021504,127.035785 C210.687895,128.375176 210.246353,129.685093 209.857143,131.00811 C214.230038,131.80061 218.498271,133.051581 222.815564,134.08969 C227.152481,135.727087 231.525376,137.279339 235.823045,139.024804 C237.438759,139.63719 238.828797,140.724421 240.493571,141.238564 C243.106842,142.433864 245.396316,144.225176 247.901654,145.616963 C251.270451,147.454122 253.854286,150.352314 256.683421,152.883729 C259.231278,155.356198 261.890338,157.78937 263.806955,160.815279 C266.210902,164.194866 268.448045,167.810238 269.497932,171.861157 C270.155338,173.9603 271.538835,175.85968 271.506128,178.138936 C272.729361,184.416715 271.175789,191.624535 266.263233,195.983285 C263.506053,198.648967 259.96391,200.243791 256.703045,202.182469 C251.26391,204.864525 245.550038,206.957118 239.744586,208.692758 C228.297218,212.367076 216.476992,214.757676 204.620789,216.67343 C202.265902,216.869917 199.924098,217.338213 197.556128,217.269442 C196.905263,218.01282 196.702481,218.982159 196.633797,219.941674 C196.277293,224.840764 195.443271,229.707107 194.252744,234.468657 C193.919135,236.747913 193.729436,239.056643 193.130902,241.293326 C192.172594,244.859576 191.989436,248.569917 191.152143,252.159091 C190.769474,255.522304 190.089173,258.931364 190.592857,262.320775 C190.844699,264.121911 188.784173,265.503874 187.148835,265.0847 C184.005714,264.367521 180.960714,263.257366 177.784887,262.687552 C176.228045,262.366622 174.80203,261.593771 173.225564,261.351436 C171.433233,260.97811 169.408684,261.28594 167.84203,260.162686 C166.975301,259.429132 166.134737,258.525289 165.801128,257.421684 C166.818308,252.902469 167.184624,248.242438 168.450376,243.772345 C169.879662,235.061395 172.270526,226.524008 173.470865,217.767211 C174.834737,210.710031 175.488872,203.548058 176.44718,196.441756 C177.07188,194.761787 176.15282,193.121116 176.273835,191.428048 C177.961504,190.367014 180.012218,190.976126 181.758759,191.568864 C183.675376,192.50218 185.866729,192.348264 187.940338,192.469432 C198.102331,192.662645 208.431128,190.779638 217.549774,186.191653 C219.999511,184.295548 222.419812,182.35032 224.493421,180.038316 C226.668421,176.792996 227.270226,172.61436 226.328271,168.848347 C224.578459,163.081436 219.8,158.811105 214.681391,155.975134 C211.237368,154.301715 207.826053,152.471105 204.097481,151.511591 C197.853759,149.965888 191.341842,150.218048 185.003271,150.922128 C180.522444,151.60656 176.149549,152.844432 171.835526,154.206746 C169.634361,155.159711 167.429925,156.168347 165.595075,157.750072 C165.496955,158.306787 165.640865,159.112386 164.934398,159.305599 C163.825639,159.731322 162.47485,160.962645 161.379173,159.862314 C160.205,158.801281 158.236053,158.015331 158.209887,156.201095 C158.471541,155.113864 159.406955,154.344287 159.891015,153.3553 C161.810902,149.006374 163.482218,144.539556 165.470789,140.226653 C165.784774,138.946209 166.209962,137.675589 167.047256,136.637479 C167.809323,133.654143 168.976955,130.785424 169.974511,127.874132 C169.791353,127.883957 169.425038,127.90688 169.24515,127.919979 C169.385789,127.035785 169.418496,126.102469 169.817519,125.283771 C172.149511,123.669298 175.155263,124.242386 177.804511,123.715145 C179.78,123.286147 181.748947,123.934556 183.724436,124.0328 C186.01391,124.550217 188.375338,124.674659 190.628835,125.352541 C191.004962,123.649649 192.100639,122.139969 193.611692,121.265599 L193.611692,121.265599 Z M196.21188,126.986663 C198.798985,127.949452 201.467857,128.663357 204.169436,129.233171 C204.162895,128.240909 204.153083,127.104556 203.322331,126.416849 C202.118722,125.368915 201.130977,123.728244 199.420414,123.538306 C197.775263,123.967304 196.69594,125.424587 196.21188,126.986663 L196.21188,126.986663 Z M175.328609,128.172138 C173.791391,133.467479 171.410338,138.451715 169.529699,143.622614 C168.551767,146.026312 167.371053,148.367789 166.720188,150.886105 C168.852669,150.480031 170.854323,149.615486 172.944286,149.042397 C179.675338,147.414824 186.560113,146.029587 193.523383,146.488058 C199.224173,146.828636 205.078684,147.385351 210.308496,149.85782 C212.463872,151.04657 214.835113,151.780124 216.954511,153.037645 C220.270977,154.93375 223.387932,157.216281 226.040451,159.976932 C229.105075,162.773605 231.188496,166.549442 232.179511,170.557789 C233.507406,175.781085 231.237556,181.348233 227.499173,185.019277 C224.19906,187.773378 220.57188,190.236023 216.493346,191.670382 C211.368195,194.234545 205.598722,194.801085 200.054925,195.89814 C194.301805,196.268192 188.496353,196.831457 182.746504,196.264917 C182.023684,197.997283 181.781654,199.87374 181.516729,201.720723 C180.371992,212.062521 178.81515,222.365021 176.561654,232.52343 C175.194511,240.418957 173.022782,248.180217 172.362105,256.193636 C176.126654,257.870331 180.149586,258.921539 184.192143,259.668192 C185.114474,255.456808 185.228947,251.117707 186.242857,246.932521 C187.502068,237.681229 190.36718,228.675548 190.80218,219.316188 C190.949361,218.065217 191.33203,216.745475 190.795639,215.533802 C190.635376,214.855919 190.151316,214.112541 190.445677,213.424835 C191.260075,212.62251 192.313233,211.905331 193.510301,211.970826 C195.188158,211.83656 196.718835,212.815723 198.399962,212.678182 C206.020639,212.370351 213.448346,210.546291 220.925113,209.161054 C232.375752,206.400403 243.816579,203.141983 254.371053,197.80407 C256.369436,196.720114 258.148684,195.282479 260.071842,194.070806 C261.723534,193.121116 262.691654,191.414948 263.816767,189.941291 C264.732556,188.745992 265.353985,187.354205 265.690865,185.887097 C267.192105,181.0797 265.775902,176.026694 264.330263,171.392862 C263.545301,168.468471 261.818383,165.950155 260.297519,163.376167 C258.976165,161.064163 257.154398,159.099287 255.32282,157.186808 C248.931917,149.396074 239.947368,144.15313 230.596504,140.701498 C223.682293,137.97032 216.476992,136.084039 209.206278,134.597283 C205.049248,133.398709 200.830075,132.412996 196.718835,131.057231 C189.820977,129.059607 182.573158,126.613337 175.328609,128.172138 Z" id="Shape"></path>
                <path d="M104.963271,227.696384 C106.618233,226.89406 109.21515,226.930083 110.297744,228.606777 C109.810414,229.59249 109.159549,230.489783 108.68203,231.482045 C112.01812,229.405826 116.080301,227.961643 119.99203,229.222438 C122.091805,229.648161 123.354286,231.475496 124.620038,233.031023 C126.569361,235.323378 127.364135,238.29689 128.371504,241.07064 C128.773797,243.6872 126.402556,245.553833 124.580789,247.01439 C122.742669,247.885486 120.819511,248.704184 118.808045,249.057862 C114.945376,249.169205 110.778534,248.556818 107.691015,246.045052 C104.018045,242.239742 103.187293,236.607097 103.432594,231.524618 C103.540526,230.181952 103.46203,228.295671 104.963271,227.696384 L104.963271,227.696384 Z M110.945338,235.650857 C110.124398,235.719628 109.332895,235.346302 108.541391,235.172738 C108.557744,238.087304 109.368872,241.149236 111.43594,243.287676 C113.859511,245.629153 117.833383,245.763419 120.633083,244.037603 C121.741842,243.333523 122.147406,241.941736 121.967519,240.690764 C121.702594,238.745537 121.136767,236.744638 119.835038,235.225134 C119.059887,234.219773 118.284737,233.027748 116.983008,232.687169 C114.690263,232.850909 112.593759,234.10188 110.945338,235.650857 Z" id="Shape"></path>
                <path d="M166.357143,274.43751 C167.639248,273.500919 168.829774,272.007614 170.59594,272.253223 C172.888684,272.433337 175.443083,271.725981 177.493797,273.09157 C178.945977,273.995413 180.345827,275.040072 181.448045,276.363089 C183.505301,279.045145 183.917406,282.470579 185.055602,285.561983 C185.732632,287.92311 185.349962,290.392304 185.117744,292.789452 C184.829925,294.931167 183.560902,296.909143 181.66391,297.966901 C177.683496,300.907665 171.99906,300.288729 167.995752,297.714742 C164.819925,295.962727 162.520639,292.517645 162.504286,288.843326 C162.268797,286.862076 162.144511,284.82843 162.693985,282.886477 C163.285977,281.127913 162.517368,279.025496 163.848534,277.535465 C164.414361,277.522366 164.983459,277.499442 165.552556,277.463419 C165.434812,276.405661 165.366128,275.121942 166.357143,274.43751 L166.357143,274.43751 Z M171.799549,276.277944 C170.720226,276.716767 170.053008,277.735227 169.38906,278.63907 C169.703045,279.483967 170.020301,280.332138 170.272143,281.203233 C169.768459,281.177035 169.268045,281.144287 168.767632,281.118089 C167.685038,283.302376 167.161729,285.77157 167.727556,288.185093 C167.514962,291.626901 169.954887,295.114556 173.34985,295.871033 C175.802857,296.40155 178.226429,294.662634 179.00812,292.380103 C179.711316,290.222014 179.757105,287.900186 179.305752,285.686426 C178.798797,282.663791 178.206805,279.244907 175.701466,277.185062 C174.671203,276.222273 173.137256,276.032335 171.799549,276.277944 Z" id="Shape"></path>
            </g>
        </g>
    </g>
</svg>