<?xml version="1.0" encoding="UTF-8"?>
<svg width="196px" height="98px" viewBox="0 0 196 98" version="1.1" xmlns="http://www.w3.org/2000/svg" xmlns:xlink="http://www.w3.org/1999/xlink">
    <!-- Generator: Sketch 43.2 (39069) - http://www.bohemiancoding.com/sketch -->
    <title>Group 2</title>
    <desc>Created with Sketch.</desc>
    <defs></defs>
    <g id="Page-1" stroke="none" stroke-width="1" fill="none" fill-rule="evenodd">
        <g id="Group-2" fill-rule="nonzero" fill="#181819">
            <g id="smiley-copy-2">
                <path d="M47.0538136,0.359803797 C48.0269068,0.103462894 49.05065,0.367524908 50.0222083,0.0972860052 C52.8570713,0.0880206714 55.7164918,-0.0540477807 58.5068442,0.523491361 C60.1752232,0.457089802 61.7637901,1.07169028 63.3984025,1.32494274 C66.4573532,2.24375501 69.5024902,3.25522062 72.3711198,4.68053781 C73.4163508,5.27043073 74.4508379,5.87576587 75.4730462,6.50426435 C75.9688019,6.7019248 76.380141,7.03084415 76.731621,7.42770928 C78.4184182,8.44844023 79.7184338,9.97722031 81.1013312,11.3654762 C82.048332,12.2549482 82.7129209,13.3853189 83.3928583,14.4801725 C84.1449334,15.5611282 84.410462,16.8768056 84.8739859,18.0890201 C85.0781206,19.2132139 85.3712764,20.3420404 85.2669068,21.492486 C85.245419,22.1178961 85.2177917,22.8946399 84.5931088,23.2281919 C83.9592169,23.3115799 83.3207204,23.2343688 82.6852937,23.2390015 C82.1081911,22.4390943 82.4995771,21.4291729 82.2463273,20.5397009 C82.1833986,19.3382959 81.7014565,18.2156463 81.4144401,17.0528469 C80.6378074,15.1596304 79.3715583,13.5119452 77.9932655,12.0217706 C74.9680814,8.55653579 71.002036,5.95143276 66.6967894,4.41184312 C62.6478622,2.84291326 58.3733125,1.68783498 54.0174158,1.5781952 C53.4602662,1.38980007 52.8954424,1.55039919 52.3336883,1.59672586 C51.4772435,1.38516741 50.5901018,1.4608343 49.7321222,1.60290275 C47.5050587,1.58437208 45.3255756,2.08161167 43.1184652,2.3194219 C41.8982616,2.55259947 40.7056852,2.92012438 39.4778074,3.1224175 C35.8171966,4.25896512 32.1289585,5.44338362 28.7845262,7.35667506 C26.0663117,8.71713491 23.5476273,10.454385 21.1808927,12.3568669 C19.398935,13.5629045 17.9408301,15.1766168 16.2755208,16.532444 C14.4628661,18.4302932 12.7591856,20.4393264 11.2335474,22.5842512 C10.0256226,23.9076497 9.25359436,25.5383485 8.25133908,27.0099923 C7.52996085,28.0415328 7.09406421,29.2413936 6.39877839,30.2883763 C5.94139389,31.5839788 5.27987471,32.8054586 4.82095536,34.0887074 C3.63298356,37.4381256 2.90546594,41.0438846 3.45801096,44.5986844 C3.8908379,48.3341581 4.96676586,52.049557 6.91755677,55.2754374 C7.11094753,55.7742212 7.35498825,56.245209 7.69265466,56.6636932 C11.0033203,62.003614 15.3346594,66.755186 20.5869068,70.2096113 C21.5845576,70.6219187 22.3780736,71.4017509 23.4263743,71.7167723 C28.0938449,74.4253382 33.4259045,75.6360085 38.6812216,76.5239363 C40.8254033,76.7710119 42.9619107,77.0443392 45.1245106,76.9825703 C45.6248708,77.0366181 46.125231,76.7061545 46.6010337,76.9702165 C46.7545184,77.2466323 46.9248865,77.5245924 46.9233516,77.8550559 C46.6041034,78.0928662 46.4214565,78.4464931 46.2234612,78.7815893 C45.1552075,79.6262789 43.7446829,79.2201484 42.5029914,79.2850058 C41.9535161,79.1383047 41.3902271,79.1383047 40.8269381,79.133672 C37.3366954,78.6302555 33.8249648,78.1175737 30.4114644,77.2142037 C26.8889898,76.1888401 23.4555364,74.8422782 20.2384965,73.0710552 C19.0351762,72.2711481 17.699859,71.6673572 16.6285356,70.6790549 C15.4620517,69.9795222 14.4889585,69.0251928 13.4406578,68.1696936 C11.8812529,66.546716 10.1929209,65.0380108 8.79160532,63.2698763 C8.50305403,62.7046909 7.91674236,62.3865811 7.61130775,61.836838 C6.87765074,60.7296306 6.16394675,59.6038925 5.28447925,58.6078691 C4.83937353,57.6813357 4.30678152,56.8026733 3.85093187,55.8823168 C2.84714174,54.3396387 2.26083007,52.5792252 1.63614722,50.8589616 C0.716773688,48.090171 0.05678935,45.1685024 0.231761942,42.2360243 C-0.0890211433,40.8554895 0.541801096,39.518193 0.57403289,38.1453794 C0.659984338,37.830358 0.851840251,37.5431327 0.851840251,37.2080364 C0.844166014,36.3324624 1.3629444,35.5819703 1.50722005,34.7341923 C1.63614722,33.9852445 2.31301488,33.4833722 2.43273297,32.7390571 C2.51714957,32.2526271 2.85481597,31.8511293 2.88858262,31.3523454 C3.07122944,31.1608619 3.25848081,30.9755552 3.44419734,30.7887043 C3.33675803,30.1154234 3.72967894,29.5471496 4.19473767,29.1101347 C4.22389977,28.2407375 4.90997651,27.6786406 5.34280345,27.0022712 C6.081065,26.0680167 6.34812843,24.7801353 7.31354738,24.0358202 C7.30587314,23.9261804 7.29359436,23.7099893 7.28745497,23.6018937 C7.43326547,23.527771 7.58061081,23.4521041 7.7264213,23.3779815 C8.04873923,22.7047005 8.61970243,22.1981956 8.96964761,21.5388127 C9.26280345,20.9242122 10.0179483,20.6091909 10.091621,19.8849506 C10.9419264,19.4587453 11.196711,18.4102183 12.0638998,18.0087205 C12.0623649,17.900625 12.0623649,17.6844338 12.0623649,17.5778825 C12.9495067,16.8690845 13.6662803,15.9718913 14.5564918,15.2661817 C16.815787,13.4100265 18.8602036,11.2589248 21.3927016,9.76566185 C23.4923727,8.27394311 25.6979483,6.94900037 27.9679875,5.73369742 C28.8535944,5.08975672 29.9402662,4.86584448 30.8903367,4.34544156 C31.229538,4.13542733 31.6884573,4.35625112 31.9892874,4.06748155 C32.6216445,3.53626908 33.4427878,3.27375129 34.2623962,3.29073773 C35.0896789,3.00660083 35.8402193,2.43987124 36.7365701,2.35185057 C38.1087236,2.06462522 39.4225529,1.52260319 40.8207987,1.34965029 C41.4592952,1.30486785 42.034863,0.923444938 42.6887079,0.999111831 C44.1514174,0.824614711 45.5895693,0.512681805 47.0538136,0.359803797 Z" id="Shape"></path>
                <path d="M59.5750979,16.2467629 C61.4491464,15.8529862 63.5564918,16.5803149 64.8242756,18.0272512 C65.8127173,19.5529428 66.1196868,21.3967443 66.3545184,23.1695115 C66.2133125,24.1717117 66.0690368,25.2758307 65.3353798,26.0355881 C64.4420987,26.9883732 63.2664056,27.6199601 62.0554111,28.0646962 C61.5182146,28.1666148 60.9687392,28.2113973 60.4653093,28.4461191 C59.2481754,28.5464935 58.0018794,28.5820106 56.8093031,28.2685335 C56.4363352,27.9643217 56.1109475,27.598341 55.8331402,27.2045643 C55.3757557,26.2872963 55.3941738,25.2310482 55.1931088,24.2442902 C55.4402193,23.1231848 55.2545027,21.9325894 55.6827251,20.8485453 C55.9896946,19.3552824 56.6343305,17.7801756 57.9773218,16.9293091 C58.4853563,16.6498049 59.0332968,16.4506002 59.5750979,16.2467629 Z" id="Shape"></path>
                <path d="M150.408896,20.1505569 C150.992138,20.2957137 151.56924,19.8278144 152.115646,20.1366589 C153.048833,19.9034813 154.066437,19.9714271 155.011903,20.1258493 C160.551167,19.9961346 165.936946,21.6530852 171.064871,23.6605742 C173.744714,24.9453671 176.485951,26.2100852 178.825059,28.0755057 C181.676805,29.9239398 184.117212,32.3421919 186.431762,34.8052265 C188.387157,36.968682 190.06628,39.3807572 191.467596,41.9410778 C192.856633,43.991805 193.576476,46.3868938 194.454409,48.6831524 C195.002349,49.7857271 195.065278,51.0365472 195.409084,52.2070677 C195.453594,53.8099704 195.99693,55.3665465 195.909444,56.9833473 C195.981582,60.2401121 195.323132,63.4320196 194.308598,66.5173758 C192.33018,71.63184 188.962725,76.1641325 184.803289,79.689592 C183.303743,81.3094812 181.443508,82.5247842 179.646202,83.7771485 C178.278653,84.8843559 176.656319,85.5946981 175.208958,86.5799119 C173.410117,87.4060709 171.747878,88.5240878 169.916805,89.2946548 C168.906875,89.5062132 167.999781,90.0235277 167.080407,90.4744406 C166.021363,90.7879177 165.011433,91.248096 163.93704,91.5013484 C163.258637,91.6804782 162.644699,92.0757991 161.935599,92.1298469 C159.312545,93.2185236 156.434706,93.4625108 153.655098,93.9659272 C152.858512,93.9134237 152.081879,94.0740228 151.303712,94.2114586 C149.067439,94.3890441 146.821958,94.4986839 144.570337,94.4044864 C143.606453,94.242343 142.633359,94.1079957 141.654127,94.1218937 C140.888238,94.0307846 140.139233,93.8099608 139.36567,93.7852532 C138.188442,93.5443545 137.077212,93.0594687 135.904589,92.7923183 C132.294628,91.6943762 128.647831,90.0405141 126.19361,87.0493555 C125.116147,85.5823443 123.469256,84.2558574 123.433955,82.2838855 C122.758622,82.9108398 122.170775,83.6242705 121.486233,84.2404152 C120.582208,85.2457039 119.418794,85.9668557 118.488677,86.9458926 C116.652999,88.33106 114.814252,89.727037 112.772905,90.789462 C110.823649,92.040282 108.630352,92.8185701 106.524542,93.7667226 C105.275176,94.1666761 104.036554,94.603691 102.851652,95.1750533 C102.11953,95.179686 101.468755,95.5595646 100.756586,95.6815582 C99.0513704,96.2868934 97.2678778,96.6374318 95.4782459,96.8875958 C94.4468285,96.9447321 93.4507126,97.3060801 92.4085513,97.2365901 C91.3003915,97.5454345 90.1523258,97.4666792 89.0318872,97.6643397 C87.5292717,97.6102919 86.0220517,98.0565721 84.531715,97.6983125 C82.7129209,97.6921357 80.8803132,97.7492719 79.0860767,97.4126314 C75.4131872,97.2211478 71.8600157,96.138648 68.3436805,95.1210055 C65.1650117,93.936587 62.0477369,92.554508 59.1392013,90.7801966 C57.6718872,89.8706497 56.4731715,88.6090201 55.0979483,87.5774796 C53.2070164,85.7089706 51.3053406,83.829652 49.764354,81.6492101 C48.3384808,79.4085436 46.8819107,77.153979 45.9364448,74.6585158 C45.0477682,72.1676852 44.2941582,69.610453 44.0884886,66.9682887 C43.8490525,65.9691769 44.0792796,64.9360921 43.8444479,63.9400687 C43.7293344,62.5842416 44.0470478,61.2577546 43.9933281,59.9019274 C44.2941582,58.5939711 44.2726703,57.2211575 44.6318246,55.9363645 C43.6433829,56.2621954 42.5950822,56.050637 41.5912921,56.2853588 C40.8422866,56.1540999 40.084072,56.0568139 39.3366014,55.9070243 C38.2223023,55.4916285 36.9852153,55.6259759 35.8816601,55.1735187 C34.1303994,54.6469389 32.3960219,53.904168 31.0607048,52.6116539 C29.9433359,51.7916719 29.2465153,50.5593825 28.59574,49.3626102 C27.811433,48.1364977 27.3371652,46.7482418 26.8322005,45.3908704 C26.655693,45.0063591 26.9028034,44.6774397 27.1821457,44.4411737 C27.9864056,44.4535275 28.6509945,43.9053286 29.3416758,43.5563343 C30.1290525,42.9509992 31.1727486,43.6412665 31.5303681,44.4195546 C32.8994518,46.2510022 34.084354,48.3171717 36.0151919,49.6235838 C37.9982146,50.6659338 40.2605795,50.9408054 42.4492717,51.1631734 C42.8867032,51.0288261 43.3333438,51.0566221 43.7692404,51.1801598 C44.4860141,51.0627989 45.1981832,50.8419752 45.9318403,50.8821249 C46.5396398,48.743377 47.291715,46.6478674 48.1435552,44.5955959 C48.3584338,43.9948935 48.8603289,43.5269941 48.9570243,42.879965 C48.1374158,44.0365875 47.6201723,45.3646186 47.1858105,46.7050036 C46.4582929,47.7411768 44.7622866,47.2238623 44.5934534,46.0209131 C44.8144714,44.4859561 45.4207361,42.9679856 46.4843853,41.8252611 C47.572592,39.9938135 49.2962255,38.6781361 50.7374471,37.1431791 C51.9806735,36.2552513 53.1671104,35.2746701 54.2722005,34.2091567 C55.9083477,32.9444386 57.6181676,31.7770066 59.3771026,30.6929625 C61.5611903,29.1286653 63.996993,27.9843966 66.3836805,26.7737263 C68.2116836,25.9352136 70.1210337,25.2912729 72.0518716,24.7322644 C74.219076,24.4110662 76.3463743,23.7115335 78.5550196,23.6821933 C79.8765231,23.374893 81.2502114,23.7022682 82.571715,23.3996006 C83.8333594,23.6914586 85.1379796,23.4567368 86.4165074,23.5988053 C87.2836962,23.8026426 88.1861864,23.6065264 89.0503054,23.8366155 C90.0264683,23.8366155 90.96426,24.1624464 91.938888,24.2056846 C92.9027721,24.5701211 93.9618168,24.5052638 94.9287706,24.8835982 C101.057416,26.2903847 106.74249,29.1811689 111.948692,32.6741997 C113.121316,33.620808 114.38296,34.4438785 115.577071,35.3580581 C116.373657,36.2722377 117.520188,36.788008 118.270728,37.7516027 C118.898481,38.2967132 119.50628,38.8634427 120.11408,39.4332608 C120.273704,39.6108463 120.396492,39.3205325 120.433328,39.1954505 C121.929804,35.5294668 124.729366,32.6402269 127.568833,29.9826203 C133.253908,25.1152316 140.252811,21.8183169 147.587847,20.4810204 C148.519499,20.2663735 149.475709,20.3343193 150.408896,20.1505569 L150.408896,20.1505569 Z M151.028974,22.151869 C145.569522,22.5456456 140.286578,24.4712909 135.579201,27.236993 C133.098888,28.5372282 131.0161,30.4443427 128.855035,32.2016677 C128.132122,33.2100449 127.122193,33.9636254 126.426907,34.9951659 C125.363258,36.2305437 124.333375,37.5508538 123.756273,39.0966203 C123.506092,39.7343841 123.142334,40.3628826 123.163821,41.0685922 C123.133125,41.5349473 123.255912,42.0368196 123.019546,42.4676576 C123.585904,43.3972794 124.457698,44.0690161 125.073171,44.9615766 C125.611903,45.582354 125.885106,46.3791727 126.423837,46.9984058 C127.329397,48.2229741 127.857384,49.6714546 128.644761,50.9670572 C129.140517,52.3630341 129.957056,53.6663577 130.168865,55.1457227 C130.716805,56.2112361 130.66462,57.4543351 131.112796,58.5538213 C131.203352,59.0155438 131.11433,59.4942527 131.2187,59.9559752 C131.616226,61.8723551 131.416695,63.8412385 131.462741,65.7854144 C131.352232,67.0161596 131.148097,68.2391836 130.928614,69.4591193 C130.644667,70.0999715 130.466625,70.7778851 130.311605,71.4604314 C128.878058,75.3055449 126.621832,78.8248275 123.791574,81.7773806 C123.788504,81.8545917 123.782365,82.0090139 123.779295,82.086225 C123.839154,82.0754155 123.958872,82.0568848 124.017197,82.0460753 C124.17989,81.6847272 124.591229,81.7325981 124.918152,81.7356866 C125.852874,81.7001695 126.465278,82.564934 126.89964,83.2860858 C128.256445,84.9739208 129.482788,86.8872122 131.402882,87.9882427 C133.393579,89.323995 135.599154,90.352447 137.910634,90.9794013 C139.766265,91.6248862 141.700172,92.151466 143.673986,92.1329354 C144.7361,92.4201607 145.848865,92.1360238 146.915583,92.3939089 C147.256319,92.346038 147.59859,92.207058 147.936257,92.3676571 C148.697541,92.1962485 149.483383,92.3027998 150.256946,92.2518405 C152.094158,92.0093976 153.954393,91.8719618 155.768583,91.4874504 C160.997807,90.6365839 166.038246,88.7711634 170.797807,86.4131359 C172.467721,85.475793 174.217447,84.6743416 175.789131,83.5671342 C177.747596,82.2035859 179.773594,80.9296025 181.581644,79.3683938 C184.046609,77.167877 186.212279,74.6492504 188.202976,72.0101745 C190.304182,68.7812057 191.794518,65.1461064 192.514362,61.358129 C192.552733,60.1103974 192.944119,58.892006 192.83361,57.6380975 C192.739984,55.508615 192.566547,53.3667786 192.086139,51.2805343 C191.436899,49.0089833 190.847518,46.6864729 189.704056,44.603317 C188.953516,42.8336383 187.822334,41.2662526 186.840031,39.6232001 C181.290023,31.5453732 172.782365,25.5244505 163.269381,23.2420899 C162.52498,22.8668439 161.663931,23.041341 160.92567,22.6722719 C159.986343,22.5379245 159.048551,22.3865907 158.106155,22.2584203 C157.209804,22.0190658 156.264338,22.276951 155.367987,22.0607598 C154.740235,21.8569225 154.120157,22.3078354 153.483195,22.1333383 C152.67433,21.8399361 151.856257,22.2676856 151.028974,22.151869 L151.028974,22.151869 Z M79.354675,25.67424 C76.2573532,25.9599212 73.1845889,26.5652563 70.2499608,27.612239 C68.9161785,28.257724 67.4810963,28.6715755 66.1795458,29.3865505 C61.4291934,31.8789253 56.9551135,34.9550161 53.0596711,38.6580612 C53.8316993,38.4588565 54.4487079,39.0116881 54.7526077,39.6803363 C54.3458731,40.5698084 53.3743148,40.9481428 52.8708849,41.7604038 C52.1802036,42.7857674 51.5064056,43.8312059 51.0290681,44.9770188 C50.1403915,46.5891869 49.7658888,48.4129135 49.0521848,50.0992042 C48.577917,51.9167539 48.1466249,53.7543784 47.5695223,55.5487647 C47.0891151,58.1090853 46.8128426,60.7033788 46.8619577,63.3131145 C46.6440094,64.4434852 46.9018637,65.5754002 47.020047,66.7026824 C46.9939546,67.8994547 47.4451997,69.0390908 47.5434299,70.2265977 C47.6278465,71.1747502 48.1282067,71.9993649 48.3584338,72.9120003 C48.8311668,74.6430735 49.7106343,76.1996496 50.6115897,77.7346066 C51.0428818,78.6426093 51.5570556,79.5150949 52.1694597,80.3134578 C52.8785591,81.2461681 53.4556617,82.2885182 54.3243853,83.0884253 C54.8861394,83.6088282 55.2023179,84.3531434 55.8592326,84.7778045 C57.5322161,86.4532857 59.3540799,87.9866985 61.2956617,89.3425257 C61.9495067,89.6266626 62.5450274,90.0111739 63.1190603,90.4327466 C65.1465936,91.4040624 67.1818011,92.3661129 69.2968207,93.1397683 C70.8976664,93.5814159 72.4432576,94.2377104 74.0886139,94.5079493 C75.505278,94.9233451 77.0017541,94.957318 78.4260924,95.332564 C79.3178387,95.3356524 80.1942365,95.4900746 81.0721691,95.6352315 C82.9615662,95.7417829 84.8862647,95.5981702 86.7557087,95.7695789 C90.3426468,95.4205846 93.9817698,95.2476317 97.5011746,94.3442617 C100.019859,93.8269472 102.415756,92.8710736 104.83314,92.0078533 C110.613375,89.740935 115.930086,86.2556253 120.183148,81.6955368 C124.020266,77.6450417 127.323258,72.7375032 128.202725,67.0995476 C128.486672,66.2038986 128.325513,65.2588346 128.475928,64.344655 C128.304025,62.823596 128.560345,61.2701084 128.247236,59.7629474 C128.044636,58.8950945 128.133657,57.9855475 127.772968,57.1547559 C127.539671,55.5317783 126.832106,54.0477807 126.271887,52.5251775 C124.103148,47.5651354 120.812435,43.1254963 116.74509,39.5907714 C112.725325,35.558807 107.976507,32.3143959 102.909977,29.7556196 C98.5479405,27.6662868 93.8482381,26.2610445 89.0349569,25.7869683 C87.0550039,25.4704027 85.03361,25.6263691 83.0475176,25.4117222 C81.8319186,25.6850496 80.5702741,25.3993685 79.354675,25.67424 Z" id="Shape"></path>
                <path d="M22.755646,22.8544901 C24.474675,22.8483132 26.324166,23.0181777 27.751574,24.1083986 C29.0301018,25.1677351 30.2656539,26.5760659 30.3301175,28.3256697 C30.1367267,31.2071886 28.0692874,33.926564 25.3065623,34.7712536 C23.831574,35.0059754 22.0388724,34.9411181 21.0596398,33.6285291 C19.851715,32.3591784 19.3667032,30.5786901 19.228567,28.869236 C19.3022396,27.9427026 19.127267,26.9713868 19.4879561,26.0911801 C19.6890211,25.5692329 19.4373062,24.9700747 19.7012999,24.4697466 C19.9299922,23.9385342 20.4917463,23.6682953 20.9828974,23.4335735 C21.6121848,23.3563624 22.1186844,22.9147148 22.755646,22.8544901 Z" id="Shape"></path>
                <path d="M167.312169,38.5561425 C167.769554,38.4897409 168.245356,38.5654078 168.698136,38.4202509 C170.213031,38.4295163 171.643508,39.2232465 172.670321,40.3227328 C173.058637,40.7829111 173.258168,41.3758924 173.666437,41.8268053 C173.677181,42.248378 173.684855,42.6699507 173.678716,43.0930676 C173.758528,43.9979819 172.957338,44.6758955 173.038684,45.5854424 C172.443164,46.7405207 171.299702,47.4879243 170.303587,48.2677566 C169.623649,49.2715011 168.30675,48.9194184 167.316774,49.1572286 C166.716648,48.7124926 165.904714,48.8205882 165.372122,48.2816546 C164.451214,47.5280741 164.49419,46.207764 164.081316,45.1746793 C163.867972,43.6289128 163.950854,41.9472547 164.808833,40.5945159 C165.307659,39.5892272 166.271543,38.9035925 167.312169,38.5561425 Z" id="Shape"></path>
                <path d="M140.648802,39.573785 C141.678684,39.4919412 142.671731,40.0200652 143.413062,40.7041557 C144.020861,41.2415451 144.037745,42.1727111 144.662428,42.6931141 C145.59408,43.5810419 146.312388,44.8349504 146.020767,46.16607 C145.632451,47.200699 144.814377,48.0160483 143.902678,48.5997644 C142.349413,49.1973784 140.67029,50.1192791 138.981958,49.5448284 C138.199186,49.4290117 137.511574,48.8576495 137.249115,48.1087017 C137.091026,47.6299928 136.675082,47.3180599 136.437181,46.8918545 C136.188536,45.8031778 136.122537,44.6743513 136.239186,43.5640554 C136.481691,42.6653181 136.510854,41.6198796 137.25065,40.955864 C137.714174,40.5852506 138.099421,40.0926437 138.651966,39.8471123 C139.307345,39.7065881 139.971934,39.5537101 140.648802,39.573785 Z" id="Shape"></path>
                <path d="M97.9646985,44.1817444 C99.1971809,44.0041588 100.428128,44.5940517 101.485638,45.1947542 C102.37278,45.9467904 103.319781,46.6633096 103.985904,47.6392581 C105.28592,49.1680382 106.372592,50.9577918 106.736351,52.9591039 C106.788536,54.6608369 105.516147,56.1031405 104.07953,56.8397346 C103.160157,57.4126411 102.067345,57.6288322 100.997557,57.5315462 C99.7865623,57.6149342 98.5218481,57.3570491 97.5548943,56.5880264 C97.1527643,56.2405763 96.552639,56.3471277 96.1612529,55.9826912 C94.7169616,54.279414 94.2887392,51.9337403 94.4529679,49.7532984 C94.53278,48.8993435 94.2641817,47.9419257 94.7906343,47.1914336 C94.974816,46.8146434 94.8950039,46.3544651 95.1329052,45.9915729 C95.6209867,44.8689233 96.8089585,44.3037379 97.9646985,44.1817444 Z" id="Shape"></path>
                <path d="M65.594769,45.3028497 C67.5332811,45.1731351 69.3628191,46.30505 70.449491,47.867803 C71.9812686,49.9494147 73.0940329,52.8494642 71.9045262,55.3464716 C71.0143148,57.5006617 68.5785121,58.7375838 66.3238215,58.3746916 C65.5671417,58.0797451 64.7291151,58.0287858 64.0230854,57.6041246 C63.3615662,57.2582188 62.5020517,57.0806333 62.1505717,56.3455834 C61.1590603,54.5867142 60.9165544,52.4541432 61.3217541,50.4914367 C61.1360376,48.0716403 62.9839937,45.2040195 65.594769,45.3028497 Z" id="Shape"></path>
                <path d="M139.930493,61.6901368 C140.688708,61.5249051 141.463806,61.4708573 142.172905,61.8769877 C142.195928,62.0931789 142.252717,62.3062815 142.350948,62.503942 C142.616476,62.9517665 142.38011,63.5462921 142.794518,63.9292592 C142.819076,64.7971121 143.210462,65.5939308 143.370086,66.4386204 C143.63101,67.5875218 144.375411,68.5279532 144.794424,69.610453 C145.735286,70.8983344 146.903305,72.0070861 148.175693,72.9660481 C149.627659,74.2909908 151.612216,74.701754 153.443289,75.2005378 C156.140016,75.6560834 159.027063,75.5711511 161.561096,74.4608553 C164.621582,73.2455523 167.19859,71.0929065 169.450211,68.720981 C170.460141,67.9056316 170.498512,66.4370762 171.463931,65.5892982 C172.082475,65.6078288 172.704088,65.1816235 173.307283,65.4379644 C174.097729,66.0077824 173.344119,67.0254249 173.511417,67.8037129 C173.070916,69.3896293 171.597463,70.353224 170.539953,71.5175676 C167.996711,73.7335266 165.200219,75.8151383 161.952482,76.8266039 C158.755395,77.779389 155.308128,77.8674097 152.063461,77.1385368 C150.56852,76.8312365 149.039812,76.4436367 147.715239,75.6313758 C146.633171,74.8608089 145.425247,74.2554737 144.510478,73.2687157 C142.863587,71.8557523 141.451527,69.9995971 140.954236,67.8654818 C140.461551,66.6378251 139.981143,65.3684744 139.830728,64.0543412 C139.333438,63.3995909 139.089397,62.1734784 139.930493,61.6901368 Z" id="Shape"></path>
                <path d="M66.2547533,71.1654849 C66.5678622,70.8628173 67.0574785,70.8442867 67.3598434,70.5122789 C67.7266719,70.4952924 68.0935004,70.4767618 68.4618637,70.4891155 C69.0497103,70.4335235 69.4334221,71.0373145 70.0258731,70.9848109 C70.2929366,72.041059 70.5016758,73.1204703 70.9298982,74.1273033 C71.5469068,76.1085405 72.9405482,77.6975453 74.3004229,79.203162 C75.1215662,79.8270278 75.8506186,80.5883294 76.7991543,81.0222559 C77.8228974,81.7403192 79.0062647,82.2684433 80.2740486,82.2792528 C82.2064213,82.7842135 84.2861394,82.6174375 86.1632576,82.0105581 C87.8101488,81.4067672 89.4140642,80.7041461 91.0057009,79.9629194 C92.1061864,79.1877198 93.3509475,78.6426093 94.4683164,77.8843962 C95.5519186,77.0520603 96.804354,76.4776096 97.8940955,75.6267431 C98.3652937,75.2514971 99.0820673,74.9441969 99.1219734,74.2585622 C99.5333125,73.9945002 99.96,73.750513 100.441942,73.6455059 C101.120345,73.4756415 101.757306,72.972225 102.487894,73.1621643 C103.009742,73.3104097 103.548473,73.2996001 104.087204,73.2810695 C104.314362,73.8647855 104.922161,74.7079309 105.594424,74.1550993 C105.878371,74.2755486 106.159248,74.4114402 106.433986,74.5550529 C106.371057,75.1634765 106.628912,75.8892609 106.176132,76.389589 C105.009648,77.834981 103.93065,79.4039109 102.42036,80.5142067 C99.6852623,82.8413497 96.5710572,84.7639065 93.1560219,85.892733 C91.5935474,86.2880539 90.0280031,86.6972728 88.4164135,86.8532393 C86.7234769,86.8285317 85.0121222,87.2809889 83.3345341,86.8733142 C81.8718246,86.7204362 80.4152545,86.5243199 79.0016601,86.0981146 C76.0608927,85.4850583 73.545278,83.662876 71.2245889,81.8267957 C69.6836022,80.3150021 68.2822866,78.5885615 67.5516993,76.5239363 C67.2554738,75.5248245 66.6016288,74.6168218 66.6706969,73.5343219 C66.6983242,72.7035303 66.0030384,71.9947323 66.2547533,71.1654849 Z" id="Shape"></path>
            </g>
        </g>
    </g>
</svg>