<?xml version="1.0" encoding="UTF-8"?>
<svg width="428px" height="367px" viewBox="0 0 428 367" version="1.1" xmlns="http://www.w3.org/2000/svg" xmlns:xlink="http://www.w3.org/1999/xlink">
    <!-- Generator: Sketch 43.2 (39069) - http://www.bohemiancoding.com/sketch -->
    <title>Group 2</title>
    <desc>Created with Sketch.</desc>
    <defs></defs>
    <g id="Page-1" stroke="none" stroke-width="1" fill="none" fill-rule="evenodd">
        <g id="Group-2" fill-rule="nonzero" fill="#181819">
            <g id="smiley-copy" transform="translate(214.000000, 260.500000) rotate(-360.000000) translate(-214.000000, -260.500000) translate(0.000000, 154.000000)">
                <path d="M102.750164,0.782791798 C104.875082,0.225094637 107.110603,0.799589905 109.232169,0.211656151 C115.422584,0.191498423 121.666625,-0.117586751 127.759843,1.13891167 C131.403038,0.99444795 134.87195,2.33157729 138.44141,2.88255521 C145.121159,4.88152997 151.770744,7.08208202 158.034894,10.1830126 C160.317338,11.466388 162.576319,12.7833596 164.808489,14.1507256 C165.891057,14.5807571 166.789287,15.2963565 167.556805,16.1597792 C171.240219,18.380489 174.079029,21.7065142 177.098825,24.7268139 C179.166766,26.6619558 180.618011,29.1211987 182.102772,31.5031703 C183.745059,33.8549054 184.324886,36.7173028 185.337071,39.3546057 C185.782835,41.8004101 186.422991,44.2562934 186.195082,46.7592114 C186.14816,48.119858 186.087831,49.8097476 184.723727,50.5354259 C183.339514,50.7168454 181.945247,50.5488644 180.557682,50.5589432 C179.297478,48.8186593 180.152138,46.6214669 179.599123,44.6863249 C179.461707,42.0725394 178.409303,39.6300946 177.782553,37.1002997 C176.086641,32.9814038 173.321566,29.3966877 170.311825,26.154653 C163.70581,18.6156625 155.045262,12.9479811 145.644009,9.59843849 C136.802475,6.18506309 127.468254,3.67206625 117.956398,3.43353312 C116.739765,3.02365931 115.506374,3.37305994 114.279687,3.47384858 C112.409491,3.01358044 110.472263,3.17820189 108.598716,3.48728707 C103.735536,3.44697161 98.9762569,4.52876972 94.1566484,5.04615142 C91.4921222,5.55345426 88.8879248,6.35304416 86.2066406,6.79315457 C78.2130619,9.26583596 70.1591543,11.8426656 62.8560063,16.0052366 C56.9203132,18.9650631 51.4203289,22.7446372 46.2521535,26.8836909 C42.3609397,29.5075552 39.1769146,33.0183596 35.5404229,35.9681073 C31.582177,40.097082 27.8618951,44.4679495 24.5303994,49.1344637 C21.892686,52.0136593 20.2068285,55.5614196 18.0182302,58.7631388 C16.4429757,61.0073659 15.4911198,63.6177918 13.9728426,65.8956151 C12.9740642,68.7143375 11.5295223,71.3717981 10.5273923,74.1636435 C7.9332498,81.4506625 6.34458888,89.2953785 7.5511668,97.0292271 C8.4963195,105.156151 10.8457948,113.239401 15.1056852,120.25765 C15.5279875,121.342808 16.0608927,122.367492 16.7982459,123.27795 C24.0276586,134.895521 33.4858888,145.233076 44.9550822,152.748549 C47.1336257,153.645568 48.8664056,155.342177 51.1555521,156.027539 C61.3477839,161.920315 72.9912608,164.554259 84.4671574,166.486041 C89.14935,167.02358 93.8147847,167.618233 98.5371966,167.483849 C99.6298199,167.601435 100.722443,166.882476 101.761441,167.456972 C102.096601,168.058344 102.46863,168.663076 102.465278,169.382035 C101.768144,169.899416 101.369303,170.66877 100.936946,171.397808 C98.6042287,173.235521 95.5241034,172.35194 92.8126547,172.493044 C91.61278,172.17388 90.3827408,172.17388 89.1527016,172.163801 C81.5311511,171.068565 73.8626782,169.95317 66.4087079,167.987792 C58.7167737,165.757003 51.2192326,162.827413 44.1942678,158.973927 C41.5666092,157.233644 38.6507126,155.920032 36.3112921,153.769874 C33.764072,152.247965 31.6391543,150.171719 29.3500078,148.310489 C25.9447768,144.779527 22.258011,141.497177 19.1979953,137.65041 C18.5678935,136.420789 17.2875803,135.728707 16.6206108,134.532681 C15.0185435,132.123833 13.460047,129.674669 11.5395771,127.507713 C10.5676116,125.49194 9.40460454,123.580315 8.40917776,121.577981 C6.21722788,118.221719 4.93691464,114.391751 3.57281128,110.649132 C1.56519969,104.625331 0.124009397,98.2689274 0.506092404,91.8890063 C-0.194393109,88.8855047 1.18311668,85.9760726 1.25350039,82.9893691 C1.44119029,82.3040063 1.86014096,81.6791167 1.86014096,80.9500789 C1.84338293,79.0451735 2.97622553,77.4123975 3.29127643,75.5679653 C3.57281128,73.9385489 5.05086922,72.8466719 5.31229444,71.2273344 C5.49663273,70.1690536 6.2339859,69.2955521 6.30772122,68.2103943 C6.70656226,67.7938013 7.1154581,67.3906467 7.52100235,66.9841325 C7.28638998,65.5193375 8.14440094,64.2829968 9.15993735,63.332224 C9.22361785,61.4407571 10.7217854,60.2178549 11.6669381,58.7463407 C13.2790603,56.7137697 13.8622396,53.9118454 15.9703994,52.2925079 C15.9536413,52.0539748 15.9268285,51.5836278 15.9134221,51.3484543 C16.2318246,51.1871924 16.5535787,51.022571 16.8719812,50.8613091 C17.5758183,49.3965142 18.8226155,48.2945584 19.5867815,46.86 C20.2269381,45.5228707 21.875928,44.8375079 22.036805,43.2618454 C23.8935944,42.3345899 24.4499608,40.0534069 26.3436179,39.1799054 C26.3402662,38.9447319 26.3402662,38.4743849 26.3402662,38.242571 C28.2774941,36.7005047 29.8426938,34.7485647 31.7866249,33.2132177 C36.7201879,29.1749527 41.1845262,24.495 46.714675,21.2462461 C51.2996711,18.0008517 56.115928,15.1182965 61.0729522,12.4742744 C63.0068285,11.0733123 65.3797651,10.5861672 67.4544088,9.45397476 C68.1951135,8.99706625 69.1972435,9.47749211 69.8541582,8.8492429 C71.2350196,7.69353312 73.0281284,7.12239748 74.8178857,7.15935331 C76.6244009,6.54118297 78.2633359,5.30820189 80.2206735,5.11670347 C83.2170086,4.49181388 86.0859828,3.31258675 89.1392952,2.93630915 C90.533563,2.83888013 91.790415,2.00905363 93.2181989,2.17367508 C96.4122788,1.79403785 99.552733,1.11539432 102.750164,0.782791798 Z" id="Shape"></path>
                <path d="M130.092561,35.3465773 C134.184871,34.4898738 138.786625,36.0722555 141.555051,39.2202208 C143.713485,42.5395268 144.383806,46.5509148 144.896601,50.4077603 C144.588254,52.5881546 144.273203,54.9902839 142.671135,56.6432177 C140.720501,58.7161041 138.153171,60.0901893 135.508755,61.0577603 C134.335693,61.2794953 133.135818,61.3769243 132.036492,61.8875868 C129.378669,62.1059621 126.657165,62.1832334 124.052968,61.5012303 C123.238528,60.8393849 122.527987,60.0431546 121.921347,59.1864511 C120.922569,57.190836 120.962788,54.8928549 120.523727,52.7460568 C121.063336,50.3069716 120.657792,47.7167035 121.59289,45.3582492 C122.263211,42.1094953 123.670885,38.6826814 126.60354,36.83153 C127.712921,36.2234385 128.909444,35.7900473 130.092561,35.3465773 Z" id="Shape"></path>
                <path d="M328.443915,43.8397003 C329.717525,44.1555047 330.977729,43.1375394 332.170901,43.8094637 C334.208677,43.3021609 336.430791,43.4499842 338.49538,43.7859464 C350.591323,43.5037382 362.352106,47.108612 373.54982,51.4761199 C379.401723,54.2713249 385.38769,57.0228549 390.495536,61.0812776 C396.722819,65.1027445 402.051872,70.3639117 407.106092,75.7225079 C411.376038,80.4293375 415.042694,85.6770662 418.102709,91.2473186 C421.135912,95.7088959 422.707815,100.919669 424.624933,105.915426 C425.821457,108.314196 425.958872,111.035489 426.709632,113.582082 C426.806829,117.069369 427.993297,120.455868 427.802255,123.973391 C427.959781,131.058833 426.521942,138.00317 424.306531,144.715694 C419.986312,155.84276 412.63289,165.703249 403.550039,173.373265 C400.275521,176.897508 396.213375,179.54153 392.288645,182.266183 C389.302365,184.675032 385.759718,186.220457 382.599154,188.363896 C378.671073,190.161293 375.041284,192.593659 371.042819,194.27011 C368.837463,194.730379 366.856664,195.855852 364.849052,196.836861 C362.536445,197.518864 360.331088,198.520032 357.984965,199.071009 C356.503555,199.460726 355.162913,200.320789 353.614471,200.438375 C347.886578,202.806909 341.602318,203.337729 335.532561,204.432965 C333.793078,204.318738 332.097165,204.668139 330.397901,204.967145 C325.514612,205.353502 320.611214,205.592035 315.694409,205.387098 C313.589601,205.034338 311.464683,204.74205 309.326359,204.772287 C307.653908,204.574069 306.018324,204.093644 304.329115,204.03989 C301.758434,203.515789 299.331872,202.460868 296.771245,201.879653 C288.888269,199.490962 280.924855,195.892808 275.565638,189.385221 C273.212811,186.19358 269.616539,183.307666 269.539452,179.017429 C268.064745,180.381435 266.781081,181.93358 265.286265,183.274069 C263.312169,185.461183 260.771652,187.030126 258.740579,189.160126 C254.73206,192.173707 250.716836,195.210804 246.259201,197.522224 C242.002662,200.243517 237.213218,201.936767 232.614816,203.999574 C229.886609,204.869716 227.181864,205.820489 224.594424,207.063549 C222.995709,207.073628 221.574628,207.900095 220.019483,208.165505 C216.29585,209.482476 212.401284,210.24511 208.493312,210.789369 C206.241034,210.913675 204.065842,211.699826 201.790102,211.548644 C199.370243,212.220568 196.863242,212.049227 194.41657,212.479259 C191.135348,212.361672 187.844072,213.332603 184.589663,212.55317 C180.618011,212.539732 176.616194,212.664038 172.698168,211.93164 C164.677776,211.515047 156.91881,209.159953 149.240282,206.945962 C142.299107,204.369132 135.491997,201.362271 129.140705,197.502066 C125.93657,195.523249 123.318966,192.778438 120.315928,190.534211 C116.18675,186.469069 112.034111,182.38041 108.669099,177.636625 C105.555458,172.761814 102.374785,167.856767 100.310196,162.427618 C98.3696163,157.008549 96.7239781,151.445016 96.274863,145.696703 C95.7520125,143.523028 96.2547533,141.275442 95.7419577,139.108486 C95.4905873,136.158738 96.1843696,133.272823 96.0670634,130.323076 C96.7239781,127.477476 96.6770556,124.490773 97.4613312,121.695568 C95.3028974,122.404448 93.013751,121.94418 90.8218011,122.454842 C89.1862177,122.169274 87.5305247,121.957618 85.8982929,121.631735 C83.4650274,120.727997 80.7636335,121.020284 78.3538293,120.035915 C74.5296476,118.890284 70.7423336,117.274306 67.826437,114.462303 C65.3864683,112.678344 63.8648395,109.997366 62.4437588,107.393659 C60.7310885,104.72612 59.6954424,101.70582 58.5927643,98.7527129 C58.2073297,97.9161672 58.7469381,97.2005678 59.3569303,96.6865457 C61.1131715,96.7134227 62.5644166,95.5207571 64.072639,94.7614826 C65.7920125,93.444511 68.0711042,94.9462618 68.8520282,96.639511 C71.8416601,100.624022 74.4290995,105.119196 78.645419,107.961435 C82.975693,110.22918 87.9159593,110.827192 92.6953485,111.310978 C93.650556,111.018691 94.6258731,111.079164 95.5777291,111.347934 C97.1429287,111.092603 98.6980736,110.612177 100.300141,110.699527 C101.627377,106.046451 103.269663,101.487445 105.129804,97.0225079 C105.599029,95.7156151 106.695004,94.6976498 106.906155,93.2899685 C105.116398,95.8063249 103.986907,98.6955994 103.038403,101.611751 C101.449742,103.866057 97.7462177,102.740584 97.3775411,100.123438 C97.8601723,96.7839748 99.1840564,93.4814669 101.506719,90.995347 C103.883007,87.010836 107.64686,84.1484385 110.794017,80.8089748 C113.508818,78.8771924 116.099608,76.7438328 118.512764,74.425694 C122.085576,71.674164 125.819264,69.1342902 129.660204,66.775836 C134.429538,63.3725394 139.748536,60.8830599 144.960282,58.2491167 C148.952044,56.4248423 153.121441,55.0238801 157.33776,53.8076972 C162.070227,53.1088959 166.715552,51.5869874 171.538512,51.5231546 C174.424244,50.8545899 177.423931,51.5668297 180.309663,50.9083438 C183.064683,51.5433123 185.913547,51.0326498 188.705435,51.341735 C190.599092,51.785205 192.569836,51.3585331 194.456789,51.8591167 C196.58841,51.8591167 198.636241,52.5679968 200.764511,52.6620662 C202.869319,53.4549369 205.181926,53.3138328 207.293438,54.1369401 C220.676398,57.1975552 233.090744,63.4867666 244.459389,71.0862303 C247.020016,73.1456782 249.775035,74.9363565 252.382584,76.9252524 C254.122067,78.9141483 256.625717,80.0362618 258.264652,82.1326656 C259.635458,83.318612 260.962694,84.5515931 262.28993,85.7912934 C262.638496,86.1776498 262.906625,85.546041 262.987063,85.2739117 C266.254879,77.2981703 272.368207,71.0123186 278.568677,65.2304101 C290.983023,54.6408833 306.266343,47.4680915 322.283665,44.5586593 C324.318089,44.0916719 326.406139,44.2394953 328.443915,43.8397003 L328.443915,43.8397003 Z M329.797964,48.1937697 C317.876304,49.0504732 306.340078,53.2399211 296.060705,59.2570032 C290.644511,62.0858044 286.096382,66.2349369 281.377322,70.0581861 C279.798716,72.2520189 277.593359,73.8915142 276.075082,76.1357413 C273.75242,78.8234385 271.503493,81.6959148 270.243289,85.0588959 C269.696977,86.4464196 268.902647,87.8137855 268.949569,89.3491325 C268.882537,90.3637382 269.150666,91.4556151 268.634518,92.3929495 C269.871261,94.4154416 271.774973,95.876877 273.118966,97.8187382 C274.29538,99.169306 274.891966,100.902871 276.068379,102.250079 C278.045826,104.914259 279.198778,108.065584 280.918152,110.884306 C282.00072,113.921404 283.783774,116.756924 284.246296,119.975442 C285.442819,122.29358 285.328865,124.998076 286.307533,127.390126 C286.505278,128.394653 286.310885,129.436136 286.538794,130.440662 C287.40686,134.609953 286.971151,138.89347 287.071699,143.123233 C286.830384,145.800852 286.38462,148.461672 285.905341,151.115773 C285.285294,152.510016 284.896507,153.98489 284.557995,155.469842 C281.427596,163.8353 276.500736,171.491877 270.320376,177.915473 C270.313673,178.083454 270.300266,178.419416 270.293563,178.587397 C270.424276,178.56388 270.685701,178.523565 270.813062,178.500047 C271.168332,177.713896 272.066562,177.818044 272.780454,177.824763 C274.821582,177.747492 276.158872,179.62888 277.107377,181.197823 C280.070196,184.86989 282.748128,189.032461 286.940987,191.427871 C291.288019,194.333943 296.104276,196.571451 301.151793,197.935457 C305.203884,199.339779 309.426907,200.48541 313.737071,200.445095 C316.056382,201.069984 318.486296,200.451814 320.815662,201.012871 C321.559718,200.908722 322.307126,200.606356 323.044479,200.955757 C324.706875,200.582839 326.422897,200.814653 328.112106,200.703785 C332.123978,200.176325 336.186124,199.877319 340.147721,199.040773 C351.566641,197.189621 362.573312,193.131199 372.966641,188.001057 C376.613187,185.961767 380.434017,184.218123 383.866061,181.809274 C388.142709,178.842729 392.566829,176.071041 396.51502,172.674464 C401.897698,167.887003 406.626813,162.407461 410.973845,156.665868 C415.562193,149.640899 418.816601,141.73235 420.388504,133.491199 C420.472294,130.776625 421.326954,128.125883 421.085638,125.397871 C420.88119,120.764953 420.502459,116.105158 419.453406,111.566309 C418.035677,106.624306 416.748661,101.571435 414.251715,97.039306 C412.61278,93.1891798 410.142647,89.779164 407.997619,86.2045268 C395.878215,68.630347 377.300266,55.531183 356.527016,50.5656625 C354.901488,49.7492744 353.021237,50.1289117 351.409115,49.3259621 C349.357933,49.0336751 347.310102,48.7044322 345.252216,48.4255836 C343.294879,47.9048423 341.23029,48.4658991 339.272952,47.9955521 C337.902146,47.552082 336.548097,48.5330915 335.157181,48.1534543 C333.390885,47.5151262 331.604479,48.4457413 329.797964,48.1937697 L329.797964,48.1937697 Z M173.284699,55.8570662 C166.521159,56.4785962 159.811245,57.7955678 153.402976,60.0733912 C150.490431,61.4777129 147.35668,62.3780915 144.514518,63.9335962 C134.1413,69.3560252 124.37137,76.0483912 115.864996,84.1047634 C117.550854,83.6713722 118.898199,84.8741167 119.561817,86.3288328 C118.673641,88.2639748 116.552075,89.087082 115.452749,90.8542429 C113.944526,93.0850315 112.473171,95.3594953 111.430822,97.8523344 C109.490243,101.359779 108.672451,105.327492 107.113955,108.996199 C106.078309,112.950473 105.136507,116.948423 103.876304,120.852303 C102.827251,126.422555 102.223962,132.066719 102.331214,137.744479 C101.855286,140.203722 102.418356,142.666325 102.676429,145.118849 C102.619452,147.722555 103.604824,150.201956 103.819327,152.785505 C104.003665,154.848312 105.096288,156.64235 105.599029,158.627886 C106.631323,162.394022 108.551793,165.780521 110.519186,169.119984 C111.460987,171.095442 112.583774,172.993628 113.921065,174.730552 C115.469507,176.759763 116.72971,179.027508 118.626719,180.767792 C119.853406,181.899984 120.543837,183.519322 121.978324,184.443218 C125.631574,188.088407 129.60993,191.424511 133.84971,194.374259 C135.277494,194.992429 136.577917,195.828975 137.831417,196.746151 C142.258888,198.859353 146.703117,200.952397 151.321629,202.635568 C154.817353,203.59642 158.19242,205.024259 161.785341,205.612192 C164.878872,206.515931 168.146688,206.589842 171.256977,207.40623 C173.20426,207.41295 175.118027,207.748912 177.035145,208.064716 C181.160971,208.29653 185.363884,207.984085 189.446139,208.357003 C197.278841,207.597729 205.225497,207.221451 212.910728,205.256073 C218.410713,204.130599 223.642569,202.050994 228.921347,200.172965 C241.543493,195.241041 253.153453,187.658375 262.440752,177.737413 C270.819765,168.925126 278.03242,158.248249 279.95289,145.982271 C280.572937,144.033691 280.221018,141.977603 280.549475,139.988707 C280.174096,136.679479 280.733814,133.2997 280.050086,130.02071 C279.607674,128.132603 279.802067,126.153785 279.01444,124.346309 C278.504996,120.815347 276.959906,117.586751 275.73657,114.274164 C271.000752,103.48306 263.81491,93.8241483 254.933156,86.1339748 C246.155301,77.3620032 235.785435,70.3034385 224.721785,64.7365457 C215.196523,60.1909779 204.933908,57.1337224 194.423273,56.1023186 C190.099702,55.4135962 185.685638,55.752918 181.348661,55.2859306 C178.69419,55.8805836 175.93917,55.2590536 173.284699,55.8570662 Z" id="Shape"></path>
                <path d="M49.6909005,49.7223975 C53.4446985,49.708959 57.4833829,50.0785174 60.6003759,52.4504101 C63.3922631,54.7551104 66.0903054,57.8190852 66.2310728,61.6255363 C65.8087706,67.8945899 61.2941582,73.8108833 55.2612686,75.6485962 C52.0403759,76.1592587 48.1257009,76.0181546 45.9873767,73.1624763 C43.3496633,70.4008675 42.290556,66.527224 41.9889115,62.808123 C42.1497886,60.7923502 41.7677056,58.6791483 42.5553328,56.764164 C42.9943931,55.628612 42.4447298,54.3250789 43.021206,53.2365615 C43.5205951,52.0808517 44.7472827,51.492918 45.8197964,50.9822555 C47.1939546,50.8142744 48.2999843,49.8534227 49.6909005,49.7223975 Z" id="Shape"></path>
                <path d="M365.355145,83.8830284 C366.353923,83.7385647 367.392921,83.9031861 368.381644,83.5873817 C371.689679,83.6075394 374.813375,85.3343849 377.055599,87.7264353 C377.903555,88.7276025 378.339264,90.0176972 379.230791,90.9987066 C379.254252,91.9158833 379.27101,92.8330599 379.257604,93.7535962 C379.431887,95.7223344 377.682349,97.1972082 377.859984,99.1760252 C376.559561,101.689022 374.062616,103.315079 371.887424,105.011688 C370.402662,107.195442 367.526985,106.429448 365.3652,106.94683 C364.054722,105.979259 362.281723,106.214432 361.118716,105.041924 C359.107753,103.402429 359.201597,100.529953 358.300016,98.2823659 C357.834143,94.9193849 358.015129,91.2607571 359.888677,88.3177287 C360.977948,86.1306151 363.082756,84.6389432 365.355145,83.8830284 Z" id="Shape"></path>
                <path d="M307.131057,86.0970189 C309.379984,85.918959 311.548473,87.0679495 313.167298,88.5562618 C314.494534,89.7254101 314.531402,91.7512618 315.895505,92.8834543 C317.92993,94.8152366 319.498481,97.5432492 318.861676,100.439243 C318.01372,102.690189 316.227314,104.464069 314.23646,105.734006 C310.844636,107.03418 307.17798,109.039874 303.491214,107.790095 C301.781895,107.538123 300.280376,106.295063 299.707251,104.665647 C299.362036,103.624164 298.453751,102.945521 297.934252,102.018265 C297.391292,99.6497319 297.247173,97.1938486 297.501895,94.7782808 C298.031449,92.8229811 298.095129,90.5485174 299.710603,89.1038801 C300.722788,88.297571 301.564041,87.2258517 302.770619,86.6916719 C304.201754,86.3859464 305.652999,86.0533438 307.131057,86.0970189 Z" id="Shape"></path>
                <path d="M213.922913,96.1221293 C216.614252,95.7357729 219.30224,97.0191483 221.611496,98.326041 C223.548724,99.9621767 225.616664,101.521041 227.071261,103.644322 C229.91007,106.970347 232.283007,110.864148 233.077338,115.218218 C233.191292,118.920521 230.412811,122.058407 227.275709,123.660946 C225.268097,124.907366 222.881754,125.377713 220.545685,125.166057 C217.901269,125.347476 215.139546,124.78642 213.028034,123.113328 C212.149914,122.357413 210.839436,122.589227 209.984777,121.796356 C206.830916,118.090694 205.895818,112.987429 206.25444,108.243644 C206.428724,106.385773 205.842193,104.302808 206.991793,102.670032 C207.393986,101.850284 207.219702,100.849117 207.739201,100.059606 C208.805012,97.6171609 211.399154,96.3875394 213.922913,96.1221293 Z" id="Shape"></path>
                <path d="M143.237557,98.5612145 C147.470634,98.2790063 151.465748,100.741609 153.838684,104.141546 C157.183587,108.670315 159.6135,114.979685 157.016006,120.412192 C155.072075,125.098864 149.753078,127.789921 144.829569,127.00041 C143.177228,126.358722 141.347251,126.247855 139.805513,125.323959 C138.360971,124.571404 136.484072,124.185047 135.716554,122.585868 C133.551417,118.759259 133.021864,114.119621 133.906688,109.849543 C133.501143,104.585016 137.536476,98.3461987 143.237557,98.5612145 Z" id="Shape"></path>
                <path d="M305.562506,134.213517 C307.218199,133.854038 308.91076,133.736451 310.459201,134.620032 C310.509475,135.090379 310.633485,135.554006 310.847987,135.984038 C311.427815,136.958328 310.911668,138.251782 311.816601,139.084968 C311.870227,140.973076 312.724886,142.70664 313.073453,144.544353 C313.643226,147.043912 315.268755,149.089921 316.183743,151.445016 C318.238277,154.24694 320.788849,156.659148 323.56733,158.745473 C326.737948,161.628028 331.071574,162.521688 335.070039,163.606845 C340.95881,164.597934 347.263179,164.413155 352.79668,161.997587 C359.479781,159.353565 365.107126,154.670252 370.023931,149.509874 C372.229287,147.735994 372.313078,144.540994 374.421237,142.696562 C375.771934,142.736877 377.129334,141.809621 378.446515,142.367319 C380.172592,143.607019 378.526954,145.821009 378.892279,147.514259 C377.930368,150.96459 374.712827,153.060994 372.403571,155.594148 C366.849961,160.415205 360.743336,164.943975 353.651339,167.144527 C346.669945,169.217413 339.14224,169.408912 332.056946,167.82317 C328.792482,167.154606 325.454283,166.311341 322.561848,164.54418 C320.198966,162.867729 317.561253,161.550757 315.563696,159.403959 C311.967424,156.329905 308.883947,152.29164 307.798027,147.648644 C306.722161,144.977744 305.673109,142.216136 305.344652,139.357098 C304.258731,137.932618 303.725826,135.265079 305.562506,134.213517 Z" id="Shape"></path>
                <path d="M144.678747,154.828155 C145.362475,154.169669 146.431637,154.129353 147.091903,153.407035 C147.892937,153.370079 148.69397,153.329763 149.498356,153.35664 C150.78202,153.235694 151.619922,154.549306 152.913641,154.435079 C153.496821,156.73306 153.952639,159.081435 154.887737,161.271909 C156.235082,165.582303 159.27834,169.039353 162.247862,172.314984 C164.040971,173.672271 165.632984,175.328565 167.704276,176.272618 C169.939796,177.834842 172.523884,178.983833 175.29231,179.00735 C179.511981,180.105946 184.053406,179.743107 188.15242,178.422776 C191.748692,177.109164 195.25112,175.580536 198.726735,173.967918 C201.129836,172.281388 203.847987,171.095442 206.287956,169.445868 C208.65419,167.635032 211.389099,166.385252 213.768739,164.534101 C214.797682,163.717713 216.362882,163.049148 216.450023,161.557476 C217.348254,160.982981 218.28,160.452161 219.332404,160.223707 C220.813814,159.854148 222.20473,158.758912 223.800094,159.172145 C224.93964,159.494669 226.116053,159.471151 227.292467,159.430836 C227.788504,160.700773 229.11574,162.535126 230.583743,161.332382 C231.20379,161.594432 231.817134,161.890079 232.417071,162.202524 C232.279655,163.526215 232.842725,165.105237 231.854002,166.193754 C229.306782,169.33836 226.950603,172.751735 223.652623,175.167303 C217.680063,180.230252 210.879655,184.412981 203.422334,186.868864 C200.010399,187.728927 196.591762,188.619227 193.072576,188.958549 C189.375756,188.904795 185.638716,189.889164 181.975411,189.002224 C178.781331,188.669621 175.600658,188.24295 172.513829,187.315694 C166.092153,185.981924 160.598872,182.017571 155.531245,178.022981 C152.166233,174.733912 149.106218,170.977855 147.510854,166.486041 C146.863994,164.312366 145.43621,162.336909 145.587032,159.981814 C145.647361,158.174338 144.129084,156.632271 144.678747,154.828155 Z" id="Shape"></path>
            </g>
            <g id="smiley-copy-2">
                <path d="M102.750164,0.782791798 C104.875082,0.225094637 107.110603,0.799589905 109.232169,0.211656151 C115.422584,0.191498423 121.666625,-0.117586751 127.759843,1.13891167 C131.403038,0.99444795 134.87195,2.33157729 138.44141,2.88255521 C145.121159,4.88152997 151.770744,7.08208202 158.034894,10.1830126 C160.317338,11.466388 162.576319,12.7833596 164.808489,14.1507256 C165.891057,14.5807571 166.789287,15.2963565 167.556805,16.1597792 C171.240219,18.380489 174.079029,21.7065142 177.098825,24.7268139 C179.166766,26.6619558 180.618011,29.1211987 182.102772,31.5031703 C183.745059,33.8549054 184.324886,36.7173028 185.337071,39.3546057 C185.782835,41.8004101 186.422991,44.2562934 186.195082,46.7592114 C186.14816,48.119858 186.087831,49.8097476 184.723727,50.5354259 C183.339514,50.7168454 181.945247,50.5488644 180.557682,50.5589432 C179.297478,48.8186593 180.152138,46.6214669 179.599123,44.6863249 C179.461707,42.0725394 178.409303,39.6300946 177.782553,37.1002997 C176.086641,32.9814038 173.321566,29.3966877 170.311825,26.154653 C163.70581,18.6156625 155.045262,12.9479811 145.644009,9.59843849 C136.802475,6.18506309 127.468254,3.67206625 117.956398,3.43353312 C116.739765,3.02365931 115.506374,3.37305994 114.279687,3.47384858 C112.409491,3.01358044 110.472263,3.17820189 108.598716,3.48728707 C103.735536,3.44697161 98.9762569,4.52876972 94.1566484,5.04615142 C91.4921222,5.55345426 88.8879248,6.35304416 86.2066406,6.79315457 C78.2130619,9.26583596 70.1591543,11.8426656 62.8560063,16.0052366 C56.9203132,18.9650631 51.4203289,22.7446372 46.2521535,26.8836909 C42.3609397,29.5075552 39.1769146,33.0183596 35.5404229,35.9681073 C31.582177,40.097082 27.8618951,44.4679495 24.5303994,49.1344637 C21.892686,52.0136593 20.2068285,55.5614196 18.0182302,58.7631388 C16.4429757,61.0073659 15.4911198,63.6177918 13.9728426,65.8956151 C12.9740642,68.7143375 11.5295223,71.3717981 10.5273923,74.1636435 C7.9332498,81.4506625 6.34458888,89.2953785 7.5511668,97.0292271 C8.4963195,105.156151 10.8457948,113.239401 15.1056852,120.25765 C15.5279875,121.342808 16.0608927,122.367492 16.7982459,123.27795 C24.0276586,134.895521 33.4858888,145.233076 44.9550822,152.748549 C47.1336257,153.645568 48.8664056,155.342177 51.1555521,156.027539 C61.3477839,161.920315 72.9912608,164.554259 84.4671574,166.486041 C89.14935,167.02358 93.8147847,167.618233 98.5371966,167.483849 C99.6298199,167.601435 100.722443,166.882476 101.761441,167.456972 C102.096601,168.058344 102.46863,168.663076 102.465278,169.382035 C101.768144,169.899416 101.369303,170.66877 100.936946,171.397808 C98.6042287,173.235521 95.5241034,172.35194 92.8126547,172.493044 C91.61278,172.17388 90.3827408,172.17388 89.1527016,172.163801 C81.5311511,171.068565 73.8626782,169.95317 66.4087079,167.987792 C58.7167737,165.757003 51.2192326,162.827413 44.1942678,158.973927 C41.5666092,157.233644 38.6507126,155.920032 36.3112921,153.769874 C33.764072,152.247965 31.6391543,150.171719 29.3500078,148.310489 C25.9447768,144.779527 22.258011,141.497177 19.1979953,137.65041 C18.5678935,136.420789 17.2875803,135.728707 16.6206108,134.532681 C15.0185435,132.123833 13.460047,129.674669 11.5395771,127.507713 C10.5676116,125.49194 9.40460454,123.580315 8.40917776,121.577981 C6.21722788,118.221719 4.93691464,114.391751 3.57281128,110.649132 C1.56519969,104.625331 0.124009397,98.2689274 0.506092404,91.8890063 C-0.194393109,88.8855047 1.18311668,85.9760726 1.25350039,82.9893691 C1.44119029,82.3040063 1.86014096,81.6791167 1.86014096,80.9500789 C1.84338293,79.0451735 2.97622553,77.4123975 3.29127643,75.5679653 C3.57281128,73.9385489 5.05086922,72.8466719 5.31229444,71.2273344 C5.49663273,70.1690536 6.2339859,69.2955521 6.30772122,68.2103943 C6.70656226,67.7938013 7.1154581,67.3906467 7.52100235,66.9841325 C7.28638998,65.5193375 8.14440094,64.2829968 9.15993735,63.332224 C9.22361785,61.4407571 10.7217854,60.2178549 11.6669381,58.7463407 C13.2790603,56.7137697 13.8622396,53.9118454 15.9703994,52.2925079 C15.9536413,52.0539748 15.9268285,51.5836278 15.9134221,51.3484543 C16.2318246,51.1871924 16.5535787,51.022571 16.8719812,50.8613091 C17.5758183,49.3965142 18.8226155,48.2945584 19.5867815,46.86 C20.2269381,45.5228707 21.875928,44.8375079 22.036805,43.2618454 C23.8935944,42.3345899 24.4499608,40.0534069 26.3436179,39.1799054 C26.3402662,38.9447319 26.3402662,38.4743849 26.3402662,38.242571 C28.2774941,36.7005047 29.8426938,34.7485647 31.7866249,33.2132177 C36.7201879,29.1749527 41.1845262,24.495 46.714675,21.2462461 C51.2996711,18.0008517 56.115928,15.1182965 61.0729522,12.4742744 C63.0068285,11.0733123 65.3797651,10.5861672 67.4544088,9.45397476 C68.1951135,8.99706625 69.1972435,9.47749211 69.8541582,8.8492429 C71.2350196,7.69353312 73.0281284,7.12239748 74.8178857,7.15935331 C76.6244009,6.54118297 78.2633359,5.30820189 80.2206735,5.11670347 C83.2170086,4.49181388 86.0859828,3.31258675 89.1392952,2.93630915 C90.533563,2.83888013 91.790415,2.00905363 93.2181989,2.17367508 C96.4122788,1.79403785 99.552733,1.11539432 102.750164,0.782791798 Z" id="Shape"></path>
                <path d="M130.092561,35.3465773 C134.184871,34.4898738 138.786625,36.0722555 141.555051,39.2202208 C143.713485,42.5395268 144.383806,46.5509148 144.896601,50.4077603 C144.588254,52.5881546 144.273203,54.9902839 142.671135,56.6432177 C140.720501,58.7161041 138.153171,60.0901893 135.508755,61.0577603 C134.335693,61.2794953 133.135818,61.3769243 132.036492,61.8875868 C129.378669,62.1059621 126.657165,62.1832334 124.052968,61.5012303 C123.238528,60.8393849 122.527987,60.0431546 121.921347,59.1864511 C120.922569,57.190836 120.962788,54.8928549 120.523727,52.7460568 C121.063336,50.3069716 120.657792,47.7167035 121.59289,45.3582492 C122.263211,42.1094953 123.670885,38.6826814 126.60354,36.83153 C127.712921,36.2234385 128.909444,35.7900473 130.092561,35.3465773 Z" id="Shape"></path>
                <path d="M328.443915,43.8397003 C329.717525,44.1555047 330.977729,43.1375394 332.170901,43.8094637 C334.208677,43.3021609 336.430791,43.4499842 338.49538,43.7859464 C350.591323,43.5037382 362.352106,47.108612 373.54982,51.4761199 C379.401723,54.2713249 385.38769,57.0228549 390.495536,61.0812776 C396.722819,65.1027445 402.051872,70.3639117 407.106092,75.7225079 C411.376038,80.4293375 415.042694,85.6770662 418.102709,91.2473186 C421.135912,95.7088959 422.707815,100.919669 424.624933,105.915426 C425.821457,108.314196 425.958872,111.035489 426.709632,113.582082 C426.806829,117.069369 427.993297,120.455868 427.802255,123.973391 C427.959781,131.058833 426.521942,138.00317 424.306531,144.715694 C419.986312,155.84276 412.63289,165.703249 403.550039,173.373265 C400.275521,176.897508 396.213375,179.54153 392.288645,182.266183 C389.302365,184.675032 385.759718,186.220457 382.599154,188.363896 C378.671073,190.161293 375.041284,192.593659 371.042819,194.27011 C368.837463,194.730379 366.856664,195.855852 364.849052,196.836861 C362.536445,197.518864 360.331088,198.520032 357.984965,199.071009 C356.503555,199.460726 355.162913,200.320789 353.614471,200.438375 C347.886578,202.806909 341.602318,203.337729 335.532561,204.432965 C333.793078,204.318738 332.097165,204.668139 330.397901,204.967145 C325.514612,205.353502 320.611214,205.592035 315.694409,205.387098 C313.589601,205.034338 311.464683,204.74205 309.326359,204.772287 C307.653908,204.574069 306.018324,204.093644 304.329115,204.03989 C301.758434,203.515789 299.331872,202.460868 296.771245,201.879653 C288.888269,199.490962 280.924855,195.892808 275.565638,189.385221 C273.212811,186.19358 269.616539,183.307666 269.539452,179.017429 C268.064745,180.381435 266.781081,181.93358 265.286265,183.274069 C263.312169,185.461183 260.771652,187.030126 258.740579,189.160126 C254.73206,192.173707 250.716836,195.210804 246.259201,197.522224 C242.002662,200.243517 237.213218,201.936767 232.614816,203.999574 C229.886609,204.869716 227.181864,205.820489 224.594424,207.063549 C222.995709,207.073628 221.574628,207.900095 220.019483,208.165505 C216.29585,209.482476 212.401284,210.24511 208.493312,210.789369 C206.241034,210.913675 204.065842,211.699826 201.790102,211.548644 C199.370243,212.220568 196.863242,212.049227 194.41657,212.479259 C191.135348,212.361672 187.844072,213.332603 184.589663,212.55317 C180.618011,212.539732 176.616194,212.664038 172.698168,211.93164 C164.677776,211.515047 156.91881,209.159953 149.240282,206.945962 C142.299107,204.369132 135.491997,201.362271 129.140705,197.502066 C125.93657,195.523249 123.318966,192.778438 120.315928,190.534211 C116.18675,186.469069 112.034111,182.38041 108.669099,177.636625 C105.555458,172.761814 102.374785,167.856767 100.310196,162.427618 C98.3696163,157.008549 96.7239781,151.445016 96.274863,145.696703 C95.7520125,143.523028 96.2547533,141.275442 95.7419577,139.108486 C95.4905873,136.158738 96.1843696,133.272823 96.0670634,130.323076 C96.7239781,127.477476 96.6770556,124.490773 97.4613312,121.695568 C95.3028974,122.404448 93.013751,121.94418 90.8218011,122.454842 C89.1862177,122.169274 87.5305247,121.957618 85.8982929,121.631735 C83.4650274,120.727997 80.7636335,121.020284 78.3538293,120.035915 C74.5296476,118.890284 70.7423336,117.274306 67.826437,114.462303 C65.3864683,112.678344 63.8648395,109.997366 62.4437588,107.393659 C60.7310885,104.72612 59.6954424,101.70582 58.5927643,98.7527129 C58.2073297,97.9161672 58.7469381,97.2005678 59.3569303,96.6865457 C61.1131715,96.7134227 62.5644166,95.5207571 64.072639,94.7614826 C65.7920125,93.444511 68.0711042,94.9462618 68.8520282,96.639511 C71.8416601,100.624022 74.4290995,105.119196 78.645419,107.961435 C82.975693,110.22918 87.9159593,110.827192 92.6953485,111.310978 C93.650556,111.018691 94.6258731,111.079164 95.5777291,111.347934 C97.1429287,111.092603 98.6980736,110.612177 100.300141,110.699527 C101.627377,106.046451 103.269663,101.487445 105.129804,97.0225079 C105.599029,95.7156151 106.695004,94.6976498 106.906155,93.2899685 C105.116398,95.8063249 103.986907,98.6955994 103.038403,101.611751 C101.449742,103.866057 97.7462177,102.740584 97.3775411,100.123438 C97.8601723,96.7839748 99.1840564,93.4814669 101.506719,90.995347 C103.883007,87.010836 107.64686,84.1484385 110.794017,80.8089748 C113.508818,78.8771924 116.099608,76.7438328 118.512764,74.425694 C122.085576,71.674164 125.819264,69.1342902 129.660204,66.775836 C134.429538,63.3725394 139.748536,60.8830599 144.960282,58.2491167 C148.952044,56.4248423 153.121441,55.0238801 157.33776,53.8076972 C162.070227,53.1088959 166.715552,51.5869874 171.538512,51.5231546 C174.424244,50.8545899 177.423931,51.5668297 180.309663,50.9083438 C183.064683,51.5433123 185.913547,51.0326498 188.705435,51.341735 C190.599092,51.785205 192.569836,51.3585331 194.456789,51.8591167 C196.58841,51.8591167 198.636241,52.5679968 200.764511,52.6620662 C202.869319,53.4549369 205.181926,53.3138328 207.293438,54.1369401 C220.676398,57.1975552 233.090744,63.4867666 244.459389,71.0862303 C247.020016,73.1456782 249.775035,74.9363565 252.382584,76.9252524 C254.122067,78.9141483 256.625717,80.0362618 258.264652,82.1326656 C259.635458,83.318612 260.962694,84.5515931 262.28993,85.7912934 C262.638496,86.1776498 262.906625,85.546041 262.987063,85.2739117 C266.254879,77.2981703 272.368207,71.0123186 278.568677,65.2304101 C290.983023,54.6408833 306.266343,47.4680915 322.283665,44.5586593 C324.318089,44.0916719 326.406139,44.2394953 328.443915,43.8397003 L328.443915,43.8397003 Z M329.797964,48.1937697 C317.876304,49.0504732 306.340078,53.2399211 296.060705,59.2570032 C290.644511,62.0858044 286.096382,66.2349369 281.377322,70.0581861 C279.798716,72.2520189 277.593359,73.8915142 276.075082,76.1357413 C273.75242,78.8234385 271.503493,81.6959148 270.243289,85.0588959 C269.696977,86.4464196 268.902647,87.8137855 268.949569,89.3491325 C268.882537,90.3637382 269.150666,91.4556151 268.634518,92.3929495 C269.871261,94.4154416 271.774973,95.876877 273.118966,97.8187382 C274.29538,99.169306 274.891966,100.902871 276.068379,102.250079 C278.045826,104.914259 279.198778,108.065584 280.918152,110.884306 C282.00072,113.921404 283.783774,116.756924 284.246296,119.975442 C285.442819,122.29358 285.328865,124.998076 286.307533,127.390126 C286.505278,128.394653 286.310885,129.436136 286.538794,130.440662 C287.40686,134.609953 286.971151,138.89347 287.071699,143.123233 C286.830384,145.800852 286.38462,148.461672 285.905341,151.115773 C285.285294,152.510016 284.896507,153.98489 284.557995,155.469842 C281.427596,163.8353 276.500736,171.491877 270.320376,177.915473 C270.313673,178.083454 270.300266,178.419416 270.293563,178.587397 C270.424276,178.56388 270.685701,178.523565 270.813062,178.500047 C271.168332,177.713896 272.066562,177.818044 272.780454,177.824763 C274.821582,177.747492 276.158872,179.62888 277.107377,181.197823 C280.070196,184.86989 282.748128,189.032461 286.940987,191.427871 C291.288019,194.333943 296.104276,196.571451 301.151793,197.935457 C305.203884,199.339779 309.426907,200.48541 313.737071,200.445095 C316.056382,201.069984 318.486296,200.451814 320.815662,201.012871 C321.559718,200.908722 322.307126,200.606356 323.044479,200.955757 C324.706875,200.582839 326.422897,200.814653 328.112106,200.703785 C332.123978,200.176325 336.186124,199.877319 340.147721,199.040773 C351.566641,197.189621 362.573312,193.131199 372.966641,188.001057 C376.613187,185.961767 380.434017,184.218123 383.866061,181.809274 C388.142709,178.842729 392.566829,176.071041 396.51502,172.674464 C401.897698,167.887003 406.626813,162.407461 410.973845,156.665868 C415.562193,149.640899 418.816601,141.73235 420.388504,133.491199 C420.472294,130.776625 421.326954,128.125883 421.085638,125.397871 C420.88119,120.764953 420.502459,116.105158 419.453406,111.566309 C418.035677,106.624306 416.748661,101.571435 414.251715,97.039306 C412.61278,93.1891798 410.142647,89.779164 407.997619,86.2045268 C395.878215,68.630347 377.300266,55.531183 356.527016,50.5656625 C354.901488,49.7492744 353.021237,50.1289117 351.409115,49.3259621 C349.357933,49.0336751 347.310102,48.7044322 345.252216,48.4255836 C343.294879,47.9048423 341.23029,48.4658991 339.272952,47.9955521 C337.902146,47.552082 336.548097,48.5330915 335.157181,48.1534543 C333.390885,47.5151262 331.604479,48.4457413 329.797964,48.1937697 L329.797964,48.1937697 Z M173.284699,55.8570662 C166.521159,56.4785962 159.811245,57.7955678 153.402976,60.0733912 C150.490431,61.4777129 147.35668,62.3780915 144.514518,63.9335962 C134.1413,69.3560252 124.37137,76.0483912 115.864996,84.1047634 C117.550854,83.6713722 118.898199,84.8741167 119.561817,86.3288328 C118.673641,88.2639748 116.552075,89.087082 115.452749,90.8542429 C113.944526,93.0850315 112.473171,95.3594953 111.430822,97.8523344 C109.490243,101.359779 108.672451,105.327492 107.113955,108.996199 C106.078309,112.950473 105.136507,116.948423 103.876304,120.852303 C102.827251,126.422555 102.223962,132.066719 102.331214,137.744479 C101.855286,140.203722 102.418356,142.666325 102.676429,145.118849 C102.619452,147.722555 103.604824,150.201956 103.819327,152.785505 C104.003665,154.848312 105.096288,156.64235 105.599029,158.627886 C106.631323,162.394022 108.551793,165.780521 110.519186,169.119984 C111.460987,171.095442 112.583774,172.993628 113.921065,174.730552 C115.469507,176.759763 116.72971,179.027508 118.626719,180.767792 C119.853406,181.899984 120.543837,183.519322 121.978324,184.443218 C125.631574,188.088407 129.60993,191.424511 133.84971,194.374259 C135.277494,194.992429 136.577917,195.828975 137.831417,196.746151 C142.258888,198.859353 146.703117,200.952397 151.321629,202.635568 C154.817353,203.59642 158.19242,205.024259 161.785341,205.612192 C164.878872,206.515931 168.146688,206.589842 171.256977,207.40623 C173.20426,207.41295 175.118027,207.748912 177.035145,208.064716 C181.160971,208.29653 185.363884,207.984085 189.446139,208.357003 C197.278841,207.597729 205.225497,207.221451 212.910728,205.256073 C218.410713,204.130599 223.642569,202.050994 228.921347,200.172965 C241.543493,195.241041 253.153453,187.658375 262.440752,177.737413 C270.819765,168.925126 278.03242,158.248249 279.95289,145.982271 C280.572937,144.033691 280.221018,141.977603 280.549475,139.988707 C280.174096,136.679479 280.733814,133.2997 280.050086,130.02071 C279.607674,128.132603 279.802067,126.153785 279.01444,124.346309 C278.504996,120.815347 276.959906,117.586751 275.73657,114.274164 C271.000752,103.48306 263.81491,93.8241483 254.933156,86.1339748 C246.155301,77.3620032 235.785435,70.3034385 224.721785,64.7365457 C215.196523,60.1909779 204.933908,57.1337224 194.423273,56.1023186 C190.099702,55.4135962 185.685638,55.752918 181.348661,55.2859306 C178.69419,55.8805836 175.93917,55.2590536 173.284699,55.8570662 Z" id="Shape"></path>
                <path d="M49.6909005,49.7223975 C53.4446985,49.708959 57.4833829,50.0785174 60.6003759,52.4504101 C63.3922631,54.7551104 66.0903054,57.8190852 66.2310728,61.6255363 C65.8087706,67.8945899 61.2941582,73.8108833 55.2612686,75.6485962 C52.0403759,76.1592587 48.1257009,76.0181546 45.9873767,73.1624763 C43.3496633,70.4008675 42.290556,66.527224 41.9889115,62.808123 C42.1497886,60.7923502 41.7677056,58.6791483 42.5553328,56.764164 C42.9943931,55.628612 42.4447298,54.3250789 43.021206,53.2365615 C43.5205951,52.0808517 44.7472827,51.492918 45.8197964,50.9822555 C47.1939546,50.8142744 48.2999843,49.8534227 49.6909005,49.7223975 Z" id="Shape"></path>
                <path d="M365.355145,83.8830284 C366.353923,83.7385647 367.392921,83.9031861 368.381644,83.5873817 C371.689679,83.6075394 374.813375,85.3343849 377.055599,87.7264353 C377.903555,88.7276025 378.339264,90.0176972 379.230791,90.9987066 C379.254252,91.9158833 379.27101,92.8330599 379.257604,93.7535962 C379.431887,95.7223344 377.682349,97.1972082 377.859984,99.1760252 C376.559561,101.689022 374.062616,103.315079 371.887424,105.011688 C370.402662,107.195442 367.526985,106.429448 365.3652,106.94683 C364.054722,105.979259 362.281723,106.214432 361.118716,105.041924 C359.107753,103.402429 359.201597,100.529953 358.300016,98.2823659 C357.834143,94.9193849 358.015129,91.2607571 359.888677,88.3177287 C360.977948,86.1306151 363.082756,84.6389432 365.355145,83.8830284 Z" id="Shape"></path>
                <path d="M307.131057,86.0970189 C309.379984,85.918959 311.548473,87.0679495 313.167298,88.5562618 C314.494534,89.7254101 314.531402,91.7512618 315.895505,92.8834543 C317.92993,94.8152366 319.498481,97.5432492 318.861676,100.439243 C318.01372,102.690189 316.227314,104.464069 314.23646,105.734006 C310.844636,107.03418 307.17798,109.039874 303.491214,107.790095 C301.781895,107.538123 300.280376,106.295063 299.707251,104.665647 C299.362036,103.624164 298.453751,102.945521 297.934252,102.018265 C297.391292,99.6497319 297.247173,97.1938486 297.501895,94.7782808 C298.031449,92.8229811 298.095129,90.5485174 299.710603,89.1038801 C300.722788,88.297571 301.564041,87.2258517 302.770619,86.6916719 C304.201754,86.3859464 305.652999,86.0533438 307.131057,86.0970189 Z" id="Shape"></path>
                <path d="M213.922913,96.1221293 C216.614252,95.7357729 219.30224,97.0191483 221.611496,98.326041 C223.548724,99.9621767 225.616664,101.521041 227.071261,103.644322 C229.91007,106.970347 232.283007,110.864148 233.077338,115.218218 C233.191292,118.920521 230.412811,122.058407 227.275709,123.660946 C225.268097,124.907366 222.881754,125.377713 220.545685,125.166057 C217.901269,125.347476 215.139546,124.78642 213.028034,123.113328 C212.149914,122.357413 210.839436,122.589227 209.984777,121.796356 C206.830916,118.090694 205.895818,112.987429 206.25444,108.243644 C206.428724,106.385773 205.842193,104.302808 206.991793,102.670032 C207.393986,101.850284 207.219702,100.849117 207.739201,100.059606 C208.805012,97.6171609 211.399154,96.3875394 213.922913,96.1221293 Z" id="Shape"></path>
                <path d="M143.237557,98.5612145 C147.470634,98.2790063 151.465748,100.741609 153.838684,104.141546 C157.183587,108.670315 159.6135,114.979685 157.016006,120.412192 C155.072075,125.098864 149.753078,127.789921 144.829569,127.00041 C143.177228,126.358722 141.347251,126.247855 139.805513,125.323959 C138.360971,124.571404 136.484072,124.185047 135.716554,122.585868 C133.551417,118.759259 133.021864,114.119621 133.906688,109.849543 C133.501143,104.585016 137.536476,98.3461987 143.237557,98.5612145 Z" id="Shape"></path>
                <path d="M305.562506,134.213517 C307.218199,133.854038 308.91076,133.736451 310.459201,134.620032 C310.509475,135.090379 310.633485,135.554006 310.847987,135.984038 C311.427815,136.958328 310.911668,138.251782 311.816601,139.084968 C311.870227,140.973076 312.724886,142.70664 313.073453,144.544353 C313.643226,147.043912 315.268755,149.089921 316.183743,151.445016 C318.238277,154.24694 320.788849,156.659148 323.56733,158.745473 C326.737948,161.628028 331.071574,162.521688 335.070039,163.606845 C340.95881,164.597934 347.263179,164.413155 352.79668,161.997587 C359.479781,159.353565 365.107126,154.670252 370.023931,149.509874 C372.229287,147.735994 372.313078,144.540994 374.421237,142.696562 C375.771934,142.736877 377.129334,141.809621 378.446515,142.367319 C380.172592,143.607019 378.526954,145.821009 378.892279,147.514259 C377.930368,150.96459 374.712827,153.060994 372.403571,155.594148 C366.849961,160.415205 360.743336,164.943975 353.651339,167.144527 C346.669945,169.217413 339.14224,169.408912 332.056946,167.82317 C328.792482,167.154606 325.454283,166.311341 322.561848,164.54418 C320.198966,162.867729 317.561253,161.550757 315.563696,159.403959 C311.967424,156.329905 308.883947,152.29164 307.798027,147.648644 C306.722161,144.977744 305.673109,142.216136 305.344652,139.357098 C304.258731,137.932618 303.725826,135.265079 305.562506,134.213517 Z" id="Shape"></path>
                <path d="M144.678747,154.828155 C145.362475,154.169669 146.431637,154.129353 147.091903,153.407035 C147.892937,153.370079 148.69397,153.329763 149.498356,153.35664 C150.78202,153.235694 151.619922,154.549306 152.913641,154.435079 C153.496821,156.73306 153.952639,159.081435 154.887737,161.271909 C156.235082,165.582303 159.27834,169.039353 162.247862,172.314984 C164.040971,173.672271 165.632984,175.328565 167.704276,176.272618 C169.939796,177.834842 172.523884,178.983833 175.29231,179.00735 C179.511981,180.105946 184.053406,179.743107 188.15242,178.422776 C191.748692,177.109164 195.25112,175.580536 198.726735,173.967918 C201.129836,172.281388 203.847987,171.095442 206.287956,169.445868 C208.65419,167.635032 211.389099,166.385252 213.768739,164.534101 C214.797682,163.717713 216.362882,163.049148 216.450023,161.557476 C217.348254,160.982981 218.28,160.452161 219.332404,160.223707 C220.813814,159.854148 222.20473,158.758912 223.800094,159.172145 C224.93964,159.494669 226.116053,159.471151 227.292467,159.430836 C227.788504,160.700773 229.11574,162.535126 230.583743,161.332382 C231.20379,161.594432 231.817134,161.890079 232.417071,162.202524 C232.279655,163.526215 232.842725,165.105237 231.854002,166.193754 C229.306782,169.33836 226.950603,172.751735 223.652623,175.167303 C217.680063,180.230252 210.879655,184.412981 203.422334,186.868864 C200.010399,187.728927 196.591762,188.619227 193.072576,188.958549 C189.375756,188.904795 185.638716,189.889164 181.975411,189.002224 C178.781331,188.669621 175.600658,188.24295 172.513829,187.315694 C166.092153,185.981924 160.598872,182.017571 155.531245,178.022981 C152.166233,174.733912 149.106218,170.977855 147.510854,166.486041 C146.863994,164.312366 145.43621,162.336909 145.587032,159.981814 C145.647361,158.174338 144.129084,156.632271 144.678747,154.828155 Z" id="Shape"></path>
            </g>
        </g>
    </g>
</svg>