<?xml version="1.0" encoding="UTF-8" ?>
<!DOCTYPE svg PUBLIC "-//W3C//DTD SVG 1.1//EN" "http://www.w3.org/Graphics/SVG/1.1/DTD/svg11.dtd">
<svg width="1344pt" height="732pt" viewBox="0 0 1344 732" version="1.1" xmlns="http://www.w3.org/2000/svg">
<g id="#ffffffff">
<path fill="#ffffff" opacity="1.00" d=" M 632.01 417.39 C 635.83 418.25 629.85 420.93 632.01 417.39 Z" />
<path fill="#ffffff" opacity="1.00" d=" M 855.03 442.73 C 858.99 441.82 854.30 446.71 855.03 442.73 Z" />
<path fill="#ffffff" opacity="1.00" d=" M 622.22 443.25 C 622.78 443.81 622.78 443.81 622.22 443.25 Z" />
<path fill="#ffffff" opacity="1.00" d=" M 855.00 446.03 C 858.97 445.10 854.02 450.02 855.00 446.03 Z" />
<path fill="#ffffff" opacity="1.00" d=" M 533.70 552.73 C 534.80 553.79 535.89 554.88 536.98 555.98 C 536.37 557.20 535.74 558.41 535.11 559.64 C 534.61 557.33 534.14 555.03 533.70 552.73 Z" />
</g>
<g id="#000000ff">
<path fill="#000000" opacity="1.00" d=" M 189.30 95.39 C 226.60 76.58 268.90 65.60 311.01 67.48 C 343.83 67.24 375.97 74.67 407.79 81.50 C 408.41 82.07 409.03 82.65 409.66 83.23 C 447.23 94.54 482.04 113.57 512.74 137.81 C 532.19 123.13 554.31 111.62 575.63 100.84 C 617.27 82.95 661.70 71.00 706.74 66.83 C 714.63 67.75 722.72 66.88 730.53 68.37 C 735.27 67.72 739.65 69.59 744.41 69.39 C 746.11 71.01 747.99 72.42 749.90 73.78 C 750.83 78.80 745.53 79.44 741.79 78.89 C 741.77 79.61 741.77 80.32 741.77 81.04 C 748.33 81.70 755.31 81.71 761.32 84.76 C 761.59 84.66 762.15 84.46 762.43 84.36 C 784.53 89.35 802.23 104.63 817.40 120.58 C 817.84 120.73 818.71 121.01 819.15 121.16 C 834.16 139.05 851.32 155.77 861.85 177.00 C 888.49 232.13 904.02 293.52 900.41 355.03 C 900.73 382.42 892.26 410.35 873.34 430.61 C 956.84 433.08 1040.88 434.93 1124.03 444.88 C 1126.63 445.20 1128.86 447.33 1130.38 449.24 C 1130.57 449.90 1130.95 451.23 1131.14 451.90 C 1130.51 453.85 1129.92 455.81 1129.35 457.78 C 1124.04 458.07 1118.77 457.04 1113.46 457.41 C 1111.85 456.43 1109.98 455.82 1108.84 454.25 C 1071.45 449.26 1033.70 446.30 996.03 445.29 C 995.85 445.10 995.49 444.73 995.31 444.55 C 952.27 442.82 909.25 439.95 866.12 439.50 C 863.76 443.45 860.09 446.21 856.95 449.47 L 856.71 449.23 C 845.50 461.16 830.87 469.01 816.93 477.21 C 816.42 477.30 815.39 477.48 814.88 477.56 C 809.91 481.42 803.61 482.71 798.07 485.48 C 797.41 485.45 796.78 485.42 796.15 485.40 C 796.08 485.75 795.96 486.45 795.89 486.80 C 778.54 490.48 760.66 496.72 742.38 497.85 C 742.07 498.11 741.44 498.61 741.12 498.86 C 739.74 499.02 738.37 499.18 737.01 499.35 C 737.92 524.69 733.39 549.89 725.75 574.01 C 725.45 574.31 724.84 574.90 724.53 575.19 C 714.15 607.92 692.92 635.44 668.55 658.95 C 659.31 664.95 650.88 672.85 640.10 676.64 L 640.73 677.03 C 616.69 689.62 590.51 696.74 564.17 702.54 C 563.99 702.30 563.64 701.84 563.46 701.61 C 543.17 705.77 521.93 701.58 501.43 704.72 C 499.82 703.97 498.24 703.21 496.67 702.42 C 477.20 701.32 457.69 698.73 438.48 695.48 C 394.75 685.21 352.51 666.52 317.42 637.91 C 313.75 633.53 309.09 630.12 304.71 626.49 C 263.83 587.62 236.70 528.43 251.50 471.76 C 208.75 461.15 166.96 444.63 131.53 418.15 C 101.92 393.98 78.46 361.28 67.88 324.61 C 44.52 264.10 79.58 200.74 120.05 156.92 C 120.29 156.53 120.76 155.76 121.00 155.37 C 122.80 153.84 124.29 152.00 125.57 150.02 C 125.81 150.19 126.30 150.52 126.54 150.68 C 127.33 149.72 128.12 148.76 128.91 147.81 C 131.30 148.73 133.72 149.59 136.19 150.26 C 140.49 153.55 138.45 158.71 134.77 161.53 C 120.42 167.23 112.03 182.53 102.81 194.41 C 82.92 220.51 71.45 253.04 71.78 285.94 C 74.54 334.94 100.54 381.06 138.80 411.24 C 172.70 436.95 212.83 453.21 253.87 463.64 C 260.70 442.55 272.86 423.73 286.18 406.18 C 309.74 375.92 339.72 348.58 376.90 336.79 C 393.75 330.26 411.59 326.87 429.36 323.98 C 427.83 304.76 428.96 285.38 433.37 266.54 C 446.36 220.10 469.84 174.09 507.36 142.69 C 442.17 88.90 354.48 65.90 270.98 75.03 C 220.64 85.18 171.55 105.94 131.69 138.72 C 118.67 149.10 109.28 162.99 99.92 176.55 C 99.23 175.46 98.55 174.37 97.87 173.29 C 106.52 158.46 116.63 141.82 130.60 132.65 C 145.28 119.32 164.33 107.83 181.87 99.83 C 184.19 98.13 186.58 96.33 189.30 95.39 M 689.47 77.15 C 645.34 82.26 601.47 95.20 562.19 116.13 C 546.67 123.16 532.18 132.06 519.11 142.90 C 543.17 163.57 559.92 191.01 573.67 219.23 C 589.51 254.27 591.64 294.89 582.00 331.89 C 588.34 333.47 594.62 335.31 600.81 337.38 C 601.05 337.35 601.51 337.30 601.74 337.27 C 617.92 343.10 633.95 348.55 649.39 356.41 C 649.56 356.68 649.92 357.24 650.10 357.51 C 659.13 361.79 666.47 369.09 674.25 374.71 C 680.76 382.62 689.22 389.47 695.63 398.27 C 701.79 406.36 708.31 414.35 713.04 423.37 C 722.29 423.87 731.76 423.52 740.82 425.41 C 741.03 425.23 741.47 424.87 741.69 424.69 C 746.53 426.17 767.33 423.63 761.19 428.24 C 762.42 428.31 763.62 428.58 764.85 428.80 C 764.97 428.63 765.20 428.29 765.32 428.12 C 765.64 428.43 766.29 429.07 766.62 429.38 C 766.95 428.95 767.60 428.08 767.92 427.65 C 766.33 428.05 764.94 428.15 765.27 426.16 C 777.48 427.88 794.24 423.71 803.63 429.26 L 803.84 427.52 C 804.77 427.51 806.62 427.48 807.55 427.46 C 807.52 428.32 807.47 430.05 807.44 430.91 C 807.66 430.94 808.10 431.02 808.32 431.05 C 808.03 429.69 807.74 428.32 807.48 426.97 C 821.11 428.11 834.74 429.00 848.41 429.46 C 848.48 430.31 848.63 432.01 848.71 432.85 C 848.90 432.86 849.29 432.88 849.48 432.89 C 849.26 431.63 849.05 430.37 848.85 429.12 C 850.33 429.64 851.81 430.20 853.28 430.79 C 853.37 430.45 853.54 429.77 853.62 429.43 L 855.25 430.08 C 855.03 430.50 854.60 431.33 854.38 431.75 C 854.71 432.03 855.37 432.59 855.70 432.88 C 855.70 432.08 855.70 430.49 855.70 429.69 C 858.54 429.76 861.39 429.85 864.24 429.99 C 888.48 403.44 895.91 366.28 892.77 331.34 C 893.42 322.97 892.62 314.40 891.48 306.13 C 891.15 285.42 884.44 265.65 880.58 245.45 C 880.30 245.47 879.73 245.50 879.44 245.52 C 879.52 242.44 878.99 239.38 877.57 236.63 C 877.54 236.11 877.49 235.07 877.46 234.55 C 876.70 233.70 875.96 232.85 875.23 232.01 C 875.26 231.19 875.34 229.56 875.38 228.74 C 864.53 197.99 850.56 167.41 827.67 143.29 C 810.78 124.72 793.00 105.65 769.53 95.44 C 750.01 87.16 728.29 90.74 708.17 86.44 C 707.80 86.06 707.04 85.30 706.66 84.91 C 706.93 84.40 707.46 83.37 707.72 82.86 C 718.47 79.89 729.66 78.81 740.73 80.60 C 740.46 80.10 739.92 79.10 739.64 78.60 C 723.27 75.22 705.97 73.99 689.47 77.15 M 470.29 198.30 C 470.40 198.49 470.62 198.89 470.74 199.09 C 462.03 209.88 457.60 223.58 451.67 236.05 C 452.18 236.41 453.19 237.11 453.70 237.47 C 453.72 238.06 453.77 239.25 453.79 239.84 C 452.97 239.07 452.14 238.28 451.33 237.51 C 441.29 264.52 435.26 293.62 438.81 322.52 C 477.54 318.51 516.70 319.70 555.07 326.39 C 557.67 325.43 560.43 325.16 563.19 325.32 C 565.80 328.89 569.99 330.24 574.26 330.38 C 594.22 263.74 562.57 192.28 513.17 147.29 C 495.59 161.31 482.11 179.29 470.29 198.30 M 439.90 330.70 C 441.05 335.61 442.46 340.46 443.79 345.32 C 455.69 339.01 468.10 333.77 480.35 328.24 C 466.85 328.15 453.38 329.97 439.90 330.70 M 506.45 328.11 C 505.45 329.60 504.44 331.10 503.45 332.60 C 502.30 332.51 501.14 332.43 500.00 332.36 C 499.58 332.01 498.75 331.31 498.34 330.96 C 479.48 334.10 463.24 345.27 444.94 350.25 C 445.28 350.54 445.97 351.12 446.31 351.41 C 447.25 354.73 448.57 357.92 450.02 361.05 C 472.27 351.63 494.31 340.56 516.02 330.76 C 516.07 330.42 516.17 329.75 516.22 329.41 C 513.41 329.19 510.59 329.08 507.78 329.15 C 507.45 328.89 506.78 328.37 506.45 328.11 M 423.65 333.42 C 377.82 339.74 332.97 361.05 303.86 397.86 C 286.60 417.93 270.34 439.94 262.67 465.60 C 319.04 476.14 378.90 478.02 433.47 458.37 C 433.71 458.39 434.18 458.44 434.42 458.47 C 451.97 451.64 469.16 444.38 485.24 434.56 C 467.15 416.22 453.47 393.88 443.33 370.31 C 442.10 369.90 440.88 369.48 439.67 369.07 C 440.15 367.62 440.65 366.19 441.16 364.76 C 436.88 354.26 432.69 343.46 431.44 332.10 C 428.80 332.26 426.11 332.36 423.65 333.42 M 530.20 336.93 C 529.28 336.56 528.37 336.20 527.46 335.84 C 527.18 335.14 526.62 333.75 526.34 333.05 C 524.28 333.93 521.89 334.20 520.22 335.80 C 496.76 344.42 475.04 357.17 452.09 366.99 C 455.68 374.90 459.62 382.64 463.67 390.32 C 463.88 389.06 464.10 387.80 464.33 386.55 C 478.96 376.67 495.44 370.06 510.58 361.09 C 511.10 360.99 512.15 360.79 512.68 360.69 C 527.88 352.13 544.00 345.54 560.13 338.88 C 560.61 339.14 561.56 339.65 562.04 339.91 C 562.41 339.75 563.15 339.42 563.51 339.26 C 564.47 339.79 565.44 340.33 566.42 340.87 C 566.33 342.44 566.26 344.02 566.16 345.61 C 563.21 347.24 560.27 348.95 557.72 351.18 C 556.49 350.13 555.28 349.07 554.08 347.99 C 548.79 350.05 543.38 351.89 538.33 354.48 C 538.10 354.46 537.66 354.41 537.43 354.39 C 537.12 354.72 536.49 355.39 536.17 355.72 C 511.55 364.95 490.19 380.44 466.88 392.14 C 466.25 391.86 464.98 391.32 464.35 391.04 C 469.28 400.18 475.31 408.66 481.46 417.03 C 482.39 415.75 483.30 414.47 484.21 413.18 C 495.86 406.36 507.83 400.09 519.63 393.56 C 519.83 393.57 520.21 393.58 520.40 393.58 C 528.87 389.11 537.30 383.82 546.58 381.51 C 549.71 377.76 552.67 373.86 555.24 369.70 C 556.29 370.42 555.68 371.86 556.02 372.90 L 556.35 372.95 C 556.10 370.36 557.68 369.13 560.15 369.43 C 560.52 368.07 559.65 366.86 559.09 365.71 C 559.93 367.80 557.25 369.70 556.17 367.48 C 554.53 368.74 553.22 370.55 551.02 370.78 C 550.56 370.59 549.65 370.19 549.19 370.00 C 549.09 369.06 548.90 367.20 548.80 366.27 C 527.52 375.65 506.24 385.08 486.23 397.06 C 481.66 399.13 477.19 402.47 471.88 401.33 C 472.02 400.62 472.30 399.20 472.43 398.48 C 502.36 381.42 533.18 363.75 565.60 352.47 C 567.38 347.56 570.10 343.04 571.36 337.94 C 567.96 337.77 564.54 337.37 561.51 335.71 C 557.21 338.71 552.11 340.41 548.02 343.78 C 547.36 343.53 546.02 343.04 545.35 342.80 C 545.13 341.65 544.93 340.49 544.74 339.35 C 545.67 338.44 546.60 337.54 547.53 336.62 C 519.26 345.66 494.44 363.93 466.55 372.96 C 466.52 372.29 466.46 370.97 466.42 370.31 C 474.95 362.36 487.10 359.81 496.24 352.91 C 496.85 352.99 498.07 353.15 498.68 353.23 C 507.55 346.94 518.11 343.76 527.55 338.51 C 527.78 338.52 528.24 338.53 528.47 338.54 C 533.20 336.43 537.69 333.80 542.61 332.14 C 538.11 330.90 531.63 331.80 530.20 336.93 M 567.38 332.04 C 567.23 336.62 571.82 330.84 567.38 332.04 M 572.34 338.04 C 572.45 341.37 575.32 336.51 572.34 338.04 M 579.40 338.97 C 578.74 340.50 578.09 342.04 577.41 343.57 C 577.43 343.81 577.46 344.29 577.47 344.52 C 564.82 379.02 536.63 404.90 509.03 427.60 C 508.90 427.43 508.65 427.10 508.52 426.93 C 505.38 429.55 502.23 432.16 498.81 434.41 C 502.57 438.40 507.01 441.69 511.63 444.84 L 511.40 445.44 C 521.06 451.12 530.48 458.14 540.59 463.52 C 541.03 463.47 541.46 463.42 541.91 463.37 C 571.13 480.78 605.19 489.70 638.94 492.83 C 668.68 497.60 698.93 497.00 728.76 493.20 C 727.76 490.51 728.51 486.29 726.48 484.59 C 727.52 483.06 726.18 481.41 726.11 479.82 C 724.09 478.10 724.40 473.35 724.51 470.36 C 722.37 465.07 721.88 459.31 719.78 454.01 C 717.05 449.35 714.14 444.02 712.23 438.63 C 712.44 437.68 712.67 436.74 712.91 435.80 C 712.04 435.51 711.18 435.22 710.34 434.93 C 710.72 434.45 711.50 433.50 711.89 433.02 C 696.76 430.71 681.23 431.75 666.15 429.46 C 641.68 426.84 616.71 425.58 592.83 419.65 L 594.69 418.80 C 594.27 417.92 593.03 417.17 593.92 416.05 L 592.70 416.96 C 592.33 415.54 591.96 414.14 591.57 412.74 C 589.76 413.27 587.95 413.80 586.14 414.30 C 597.92 430.83 618.51 439.20 637.34 443.72 C 637.39 445.12 637.89 445.85 638.84 445.90 L 638.16 444.34 C 642.49 444.72 643.06 450.04 644.42 453.30 C 643.22 455.15 642.04 457.02 640.87 458.89 C 639.81 458.27 637.53 458.86 637.81 456.97 C 637.56 457.14 637.07 457.47 636.82 457.64 C 624.21 449.37 609.15 445.67 596.38 437.56 C 586.72 432.04 580.38 422.15 571.84 415.59 C 571.41 414.34 570.99 413.12 570.56 411.89 C 570.72 409.51 570.76 407.12 570.91 404.74 C 572.16 403.97 573.42 403.20 574.66 402.41 C 588.30 404.18 602.12 396.51 613.42 389.98 C 614.84 390.12 616.27 390.28 617.70 390.42 C 617.75 390.83 617.86 391.65 617.91 392.06 C 618.36 391.85 619.24 391.43 619.69 391.22 C 620.92 392.99 622.21 394.73 623.45 396.51 C 623.11 399.94 621.46 402.98 618.96 405.31 C 618.49 405.06 617.56 404.54 617.09 404.29 C 616.92 404.72 616.58 405.58 616.40 406.01 C 615.85 405.66 614.73 404.97 614.18 404.63 C 612.24 405.63 610.28 406.55 608.38 407.61 C 606.69 407.70 604.99 407.80 603.31 407.92 C 603.38 408.57 603.51 409.89 603.58 410.54 C 607.80 411.85 612.10 412.91 616.30 414.32 C 616.70 413.95 617.50 413.21 617.90 412.84 C 617.85 413.26 617.75 414.11 617.69 414.53 C 646.61 418.39 675.65 422.18 704.87 422.70 C 705.08 424.53 706.84 424.44 708.20 424.70 C 708.23 422.92 705.65 422.70 704.73 421.47 C 704.55 421.59 704.19 421.83 704.01 421.95 C 687.60 399.84 668.36 377.33 644.07 362.56 C 642.48 364.11 640.60 365.28 638.79 366.54 C 633.25 362.28 628.79 357.41 622.51 354.36 C 622.44 354.75 622.31 355.51 622.25 355.89 C 619.24 352.70 615.50 350.95 611.38 349.57 C 611.18 349.58 610.78 349.59 610.58 349.60 C 600.66 344.79 589.95 342.03 579.40 338.97 M 567.44 350.88 C 566.05 355.49 572.07 349.93 567.44 350.88 M 561.33 362.19 C 558.81 369.30 566.09 362.51 561.33 362.19 M 483.42 419.09 C 486.60 422.64 489.97 426.01 493.38 429.35 C 508.78 418.91 523.36 407.08 535.97 393.39 C 517.86 400.88 501.54 411.80 483.42 419.09 M 632.01 417.39 C 629.85 420.93 635.83 418.25 632.01 417.39 M 833.13 430.79 C 834.96 435.74 838.32 428.06 833.13 430.79 M 717.84 432.77 C 727.87 451.12 733.46 471.63 736.44 492.27 C 779.87 484.93 824.98 471.88 856.09 438.77 C 810.04 436.31 763.95 434.89 717.84 432.77 M 260.22 473.23 C 242.33 545.02 291.45 614.60 350.50 650.53 C 350.71 650.52 351.14 650.50 351.35 650.48 C 379.27 669.48 411.71 680.76 444.40 688.54 C 444.66 688.49 445.16 688.40 445.41 688.35 C 479.10 695.68 513.87 699.56 548.22 695.56 C 548.21 695.29 548.18 694.75 548.17 694.48 C 556.24 695.51 564.64 694.20 572.52 692.34 C 572.77 692.39 573.28 692.50 573.53 692.55 C 609.40 685.15 645.13 670.70 671.78 644.74 C 700.23 617.96 719.50 580.90 725.62 542.53 C 725.79 542.27 726.14 541.76 726.32 541.50 C 728.04 534.21 728.99 526.78 729.68 519.33 L 728.01 519.74 C 728.43 519.38 729.27 518.66 729.69 518.30 L 728.24 517.90 C 729.09 512.31 729.49 506.71 729.79 501.07 C 723.37 498.94 717.12 502.37 710.62 502.34 C 708.90 503.11 706.95 502.69 705.14 502.79 C 702.28 502.88 697.65 504.67 695.86 502.79 C 695.33 503.05 694.27 503.55 693.73 503.81 L 693.45 502.88 C 689.88 503.36 686.18 504.09 682.72 502.72 C 681.83 503.22 680.95 503.73 680.08 504.24 C 679.61 503.93 678.66 503.31 678.18 503.00 C 665.48 505.26 652.77 501.29 640.02 501.87 C 639.86 500.93 639.55 499.05 639.40 498.11 C 641.68 498.47 643.97 498.83 646.25 499.28 C 641.69 497.70 635.57 495.93 630.40 497.08 C 633.13 497.23 635.86 497.42 638.57 497.79 C 638.79 498.78 639.22 500.77 639.43 501.76 C 585.24 496.48 532.12 475.52 490.60 439.79 C 422.41 482.24 337.60 489.95 260.22 473.23 M 855.03 442.73 C 854.30 446.71 858.99 441.82 855.03 442.73 M 622.22 443.25 C 622.78 443.81 622.78 443.81 622.22 443.25 M 855.00 446.03 C 854.02 450.02 858.97 445.10 855.00 446.03 M 851.16 447.30 C 848.33 451.87 857.53 447.19 851.16 447.30 M 552.92 474.28 C 548.79 476.78 556.33 477.03 552.92 474.28 M 556.55 476.96 C 556.95 481.23 561.14 475.23 556.55 476.96 M 778.25 486.10 L 779.23 488.08 L 776.91 487.13 C 777.01 487.58 777.20 488.48 777.30 488.94 C 778.65 488.51 780.01 488.10 781.36 487.67 C 780.31 487.14 779.28 486.62 778.25 486.10 M 587.20 487.97 C 589.46 489.04 591.85 489.79 594.21 490.64 C 593.92 490.28 593.34 489.57 593.05 489.21 C 591.11 488.73 589.15 488.29 587.20 487.97 M 767.25 490.22 C 766.60 494.35 772.26 488.26 767.25 490.22 M 750.94 494.50 C 749.62 494.36 748.31 494.22 747.01 494.08 C 747.68 494.67 748.36 495.26 749.05 495.86 C 749.47 495.57 750.33 495.00 750.76 494.71 C 752.34 496.02 754.26 494.03 756.01 493.86 C 755.70 493.44 755.10 492.62 754.80 492.20 C 753.51 492.97 752.22 493.73 750.94 494.50 M 617.31 494.25 C 617.52 494.74 617.95 495.71 618.17 496.19 C 619.88 495.93 621.60 495.70 623.33 495.45 C 621.31 495.04 619.31 494.65 617.31 494.25 M 647.09 497.95 C 647.11 498.39 647.14 499.26 647.16 499.70 C 650.44 499.42 653.83 499.19 656.88 500.71 C 657.00 500.44 657.25 499.91 657.37 499.64 C 655.97 499.35 654.61 499.04 653.24 498.69 C 651.81 498.84 650.39 498.99 648.98 499.18 C 648.51 498.87 647.56 498.26 647.09 497.95 M 672.74 501.26 C 672.72 500.94 672.68 500.30 672.66 499.99 C 667.85 497.83 667.91 502.93 672.74 501.26 M 661.75 500.15 C 665.85 503.79 667.72 497.52 661.75 500.15 Z" />
<path fill="#000000" opacity="1.00" d=" M 389.93 186.41 C 390.97 186.49 392.01 186.58 393.06 186.66 C 400.79 200.46 403.97 217.01 410.30 231.78 C 412.84 236.03 410.42 240.72 409.70 245.11 C 407.37 246.01 405.07 246.95 402.72 247.75 C 402.10 247.43 400.86 246.79 400.24 246.47 C 400.16 244.39 400.12 242.31 400.08 240.24 C 400.52 239.86 401.41 239.10 401.85 238.72 C 401.51 234.16 400.16 229.77 398.10 225.71 C 393.86 228.09 389.82 230.92 386.41 234.40 C 389.40 239.96 391.67 246.42 397.59 249.52 C 397.51 251.99 397.46 254.47 397.23 256.93 C 394.27 257.94 390.11 259.26 388.10 255.95 C 377.61 242.43 372.56 225.53 367.61 209.33 C 366.18 204.44 362.50 199.89 364.98 194.68 C 366.75 194.31 368.51 193.91 370.28 193.50 C 379.55 200.81 378.45 214.52 382.66 224.75 C 386.81 222.35 390.96 219.93 395.33 217.92 C 393.95 207.67 383.03 195.70 389.93 186.41 Z" />
<path fill="#000000" opacity="1.00" d=" M 339.44 208.64 C 345.80 208.10 353.34 212.10 352.85 219.30 C 351.89 220.42 350.95 221.57 350.01 222.71 C 347.48 221.93 344.87 221.44 342.22 221.42 C 340.25 227.98 338.62 237.28 345.39 241.66 C 354.93 242.84 364.25 238.82 372.36 234.07 C 374.36 236.09 375.20 238.72 374.96 241.55 C 363.39 249.56 346.43 255.94 333.98 246.22 C 327.85 234.54 327.34 216.61 339.44 208.64 Z" />
<path fill="#000000" opacity="1.00" d=" M 296.13 227.36 C 298.93 220.55 306.38 216.47 313.56 217.27 C 325.12 222.26 321.04 235.05 315.99 243.33 C 316.75 244.12 317.51 244.91 318.28 245.70 C 318.60 245.57 319.26 245.32 319.58 245.19 C 320.26 245.85 320.94 246.51 321.62 247.17 C 324.25 247.28 326.92 247.24 329.41 246.24 C 330.05 246.28 331.32 246.38 331.96 246.42 C 332.15 246.92 332.53 247.90 332.72 248.40 C 333.14 248.61 333.98 249.04 334.41 249.26 C 334.80 250.51 335.21 251.76 335.63 253.01 C 335.32 253.16 334.68 253.45 334.36 253.60 C 334.52 255.30 331.79 256.62 330.91 258.25 C 329.46 257.60 328.02 256.95 326.59 256.29 C 326.25 256.54 325.57 257.06 325.23 257.32 C 322.85 257.22 320.47 257.12 318.10 257.07 C 318.35 258.03 318.61 258.99 318.88 259.95 C 318.27 260.13 317.04 260.48 316.43 260.66 C 316.31 261.19 316.07 262.25 315.95 262.78 C 315.15 262.98 313.54 263.39 312.74 263.59 C 312.17 263.20 311.04 262.42 310.47 262.03 C 310.16 262.23 309.54 262.64 309.23 262.85 C 307.83 260.84 306.37 258.86 304.75 257.02 C 304.63 255.99 304.52 254.96 304.40 253.93 C 303.68 253.28 302.96 252.62 302.24 251.96 C 299.13 244.43 298.38 236.12 294.66 228.85 C 295.03 228.48 295.76 227.74 296.13 227.36 Z" />
<path fill="#000000" opacity="1.00" d=" M 256.42 219.59 C 260.36 219.78 263.80 224.52 259.72 227.24 C 248.94 229.38 239.03 234.55 230.56 241.50 C 230.17 245.82 229.87 250.23 231.00 254.48 C 239.26 253.01 246.26 247.67 252.93 242.82 C 253.88 243.72 254.84 244.61 255.81 245.50 C 255.85 247.19 255.88 248.88 255.89 250.57 C 250.39 256.19 242.79 259.00 237.38 264.70 C 238.06 265.02 239.42 265.67 240.10 265.99 C 240.86 265.90 242.36 265.71 243.11 265.61 C 243.45 265.90 244.12 266.46 244.46 266.75 C 249.66 264.93 254.22 262.00 257.45 257.45 C 258.44 257.29 259.44 257.14 260.44 256.99 C 261.49 258.11 262.55 259.22 263.62 260.33 C 263.48 266.19 258.73 269.77 254.15 272.46 C 243.17 279.30 227.85 275.64 221.99 263.85 C 218.06 257.15 220.37 248.02 214.44 242.40 C 215.29 240.44 216.22 238.53 217.17 236.63 C 222.99 234.12 228.41 230.79 234.33 228.49 C 240.28 224.31 247.88 222.63 255.02 221.51 C 255.37 221.03 256.07 220.07 256.42 219.59 Z" />
<path fill="#000000" opacity="1.00" d=" M 266.78 233.37 C 269.63 230.95 273.16 229.75 276.77 229.00 C 288.25 235.51 294.45 248.20 304.03 256.65 C 303.92 259.00 302.81 260.97 301.59 262.92 C 300.94 263.08 299.62 263.40 298.97 263.57 C 297.12 262.27 295.23 261.06 293.36 259.81 C 291.72 257.26 289.30 255.40 287.25 253.22 C 284.93 252.79 282.91 253.76 280.89 254.77 C 274.82 260.03 282.14 267.57 278.69 273.62 C 275.82 276.79 270.36 274.76 268.56 271.45 C 265.18 259.02 268.19 246.00 266.78 233.37 Z" />
<path fill="#000000" opacity="1.00" d=" M 182.23 246.19 C 184.44 233.58 201.27 229.84 210.86 236.62 C 211.22 238.80 211.52 240.99 211.76 243.19 C 210.70 244.52 207.47 244.93 207.89 246.84 C 207.60 246.76 207.00 246.62 206.71 246.54 C 204.12 248.31 201.50 246.60 199.24 245.21 C 199.05 245.35 198.68 245.64 198.50 245.79 C 197.62 245.10 196.74 244.41 195.85 243.72 C 186.90 257.02 205.82 264.76 208.66 276.14 C 206.57 283.32 200.62 288.08 193.83 290.61 C 191.71 289.93 189.67 289.03 187.74 287.94 C 187.29 285.28 187.02 282.59 186.73 279.91 C 187.95 279.15 189.18 278.40 190.39 277.63 C 192.34 277.16 194.28 276.66 196.22 276.14 C 190.04 267.09 180.79 258.14 182.23 246.19 Z" />
<path fill="#000000" opacity="1.00" d=" M 161.83 234.57 C 163.21 234.26 164.59 233.97 165.98 233.68 C 166.99 234.82 168.02 235.96 169.05 237.09 C 168.53 238.98 168.47 241.14 166.60 242.25 C 159.96 244.52 155.04 249.61 150.90 255.05 C 151.27 257.51 150.28 261.55 152.79 262.73 C 156.40 262.05 159.49 259.67 163.22 260.11 C 163.42 259.53 163.82 258.37 164.03 257.79 C 164.68 257.75 165.99 257.67 166.64 257.63 C 167.16 256.78 167.68 255.94 168.20 255.10 C 169.53 254.93 170.85 254.77 172.18 254.61 C 179.38 261.74 168.58 265.82 163.82 269.34 C 160.30 269.09 157.45 271.43 154.42 272.87 C 157.36 276.14 161.67 276.89 165.86 276.90 C 167.22 275.11 168.58 273.33 169.89 271.52 C 171.28 271.58 172.67 271.65 174.06 271.73 C 179.58 277.78 173.69 284.09 167.63 286.23 C 156.40 289.81 144.02 281.44 142.05 270.02 C 140.58 260.84 134.06 249.02 143.86 242.26 C 145.06 242.36 146.26 242.45 147.45 242.53 C 151.64 238.73 157.70 238.35 161.83 234.57 Z" />
<path fill="#000000" opacity="1.00" d=" M 846.73 241.26 C 847.40 241.35 848.75 241.53 849.43 241.62 L 849.56 240.09 C 851.00 241.27 852.36 242.68 854.38 242.63 C 857.22 254.91 850.90 267.60 853.40 280.01 C 854.25 284.44 850.52 287.82 846.90 289.54 C 837.49 285.70 829.79 278.83 822.07 272.41 C 822.88 276.22 823.86 279.99 824.70 283.80 L 825.40 283.59 C 825.54 284.56 825.68 285.53 825.84 286.50 C 824.92 288.56 824.03 290.63 823.05 292.67 C 821.52 292.31 818.95 293.83 818.15 292.13 L 817.82 292.90 C 815.97 292.57 814.43 290.90 813.14 289.58 C 812.98 289.68 812.65 289.90 812.49 290.01 C 812.11 289.22 811.34 287.64 810.95 286.85 C 806.13 295.10 799.96 304.07 789.88 305.76 C 770.92 303.55 758.40 281.27 766.84 263.93 C 768.67 250.08 786.53 242.78 797.49 251.29 C 798.07 254.17 797.81 256.92 796.20 259.43 C 794.68 258.92 791.57 260.76 791.40 258.30 C 791.00 258.61 790.18 259.23 789.77 259.54 C 787.96 259.43 786.19 259.28 784.87 257.91 C 772.60 266.55 772.58 289.52 788.03 294.66 C 791.93 292.68 794.37 288.88 797.19 285.68 C 797.55 284.06 797.90 282.43 798.27 280.82 C 795.36 280.01 793.57 282.83 791.37 284.18 C 790.25 284.22 789.13 284.27 788.03 284.32 C 787.60 285.10 787.18 285.89 786.78 286.68 C 785.57 286.25 784.37 285.82 783.18 285.41 C 781.79 282.91 781.04 280.14 780.69 277.32 C 787.51 271.89 796.11 271.10 804.36 269.86 C 806.75 271.69 808.64 274.04 810.50 276.40 C 809.91 269.45 808.51 262.48 805.96 255.99 C 806.74 254.45 807.52 252.91 808.32 251.38 C 809.84 250.39 813.20 251.94 813.34 249.44 C 824.51 253.47 828.37 267.27 839.60 271.53 C 843.24 261.70 840.71 250.26 846.73 241.26 Z" />
<path fill="#000000" opacity="1.00" d=" M 109.38 242.17 C 113.79 242.29 118.20 242.74 122.44 244.01 C 122.50 244.47 122.61 245.40 122.67 245.86 C 123.75 246.30 124.83 246.74 125.92 247.18 C 126.79 248.48 127.66 249.77 128.56 251.06 C 128.34 254.13 128.31 257.22 128.51 260.29 C 126.12 265.78 123.50 271.68 119.28 275.90 C 124.39 282.64 133.34 285.12 141.43 285.48 C 142.76 286.26 144.12 287.01 145.48 287.77 C 145.66 288.85 145.84 289.94 146.03 291.03 C 137.08 298.99 122.07 290.91 113.10 285.36 C 113.31 289.35 114.72 293.10 115.71 296.93 C 114.78 298.43 113.88 299.94 113.00 301.48 C 111.68 301.48 110.36 301.48 109.05 301.44 C 108.98 301.69 108.84 302.18 108.77 302.43 C 98.85 292.36 102.18 274.80 97.03 261.84 C 96.25 261.35 95.46 260.87 94.67 260.39 C 94.95 258.16 95.20 255.94 95.44 253.71 C 100.43 250.14 103.08 243.96 109.38 242.17 M 108.76 257.02 C 108.54 261.69 109.17 266.35 110.70 270.77 C 114.75 266.33 117.68 260.92 117.45 254.76 C 115.93 254.63 114.58 252.82 113.08 252.17 C 112.03 254.11 110.30 255.49 108.76 257.02 Z" />
<path fill="#000000" opacity="1.00" d=" M 712.27 254.25 C 718.58 244.28 732.16 243.84 741.34 250.13 C 740.92 250.84 740.08 252.24 739.66 252.95 C 742.32 252.22 745.00 251.78 747.68 252.73 C 754.16 268.69 753.24 287.44 760.64 303.45 C 758.56 305.83 755.85 307.44 752.87 308.40 C 751.81 307.18 750.95 305.76 749.39 305.15 C 742.56 290.29 741.19 273.75 739.03 257.71 C 738.67 258.24 737.96 259.30 737.61 259.83 C 734.31 259.72 731.03 259.48 727.76 259.08 C 727.61 258.47 727.31 257.25 727.16 256.65 C 725.82 257.49 724.49 258.33 723.17 259.19 C 722.93 262.70 722.91 266.32 724.48 269.56 C 724.48 269.81 724.47 270.29 724.47 270.54 C 728.64 279.11 739.30 284.32 739.66 294.30 C 736.10 301.12 727.56 299.78 722.07 303.29 C 719.44 302.12 716.40 301.61 714.38 299.41 C 713.15 296.30 712.79 292.85 715.95 290.76 C 716.22 290.37 716.74 289.60 717.01 289.21 C 718.20 288.98 719.40 288.76 720.61 288.53 C 721.53 288.92 722.45 289.30 723.40 289.69 L 723.07 290.81 C 724.19 291.11 725.32 291.42 726.46 291.73 C 719.67 280.38 707.36 268.67 712.27 254.25 Z" />
<path fill="#000000" opacity="1.00" d=" M 665.59 259.20 C 672.47 255.59 679.41 252.09 686.84 249.74 C 688.27 250.71 689.70 251.68 691.15 252.64 C 690.81 254.25 690.38 255.85 690.77 257.49 C 689.19 257.36 688.65 258.10 689.16 259.71 C 688.25 259.58 686.43 259.32 685.53 259.19 L 685.73 260.19 C 681.51 261.40 678.33 264.42 674.77 266.78 C 674.47 270.51 674.20 274.28 674.87 277.98 C 681.25 273.83 690.17 273.30 694.45 266.27 C 696.85 266.38 698.75 267.82 700.51 269.32 C 700.57 271.55 700.67 273.79 700.81 276.03 C 700.52 275.81 699.95 275.37 699.66 275.15 C 699.24 276.05 698.83 276.94 698.42 277.84 C 690.74 278.92 686.03 285.84 679.08 288.42 C 678.89 289.05 678.50 290.31 678.31 290.94 C 680.79 294.13 684.56 295.40 688.33 296.38 C 694.14 295.55 697.28 289.92 701.97 286.90 C 703.19 287.49 704.44 288.06 705.70 288.62 C 707.66 292.13 707.60 295.85 704.79 298.88 C 704.27 299.00 703.23 299.24 702.71 299.36 C 695.31 308.20 679.58 309.01 672.56 299.33 C 665.14 292.06 665.56 281.13 663.57 271.66 C 663.72 267.39 663.86 263.18 665.59 259.20 Z" />
<path fill="#000000" opacity="1.00" d=" M 628.60 265.92 C 637.50 260.17 650.17 262.04 656.51 270.69 C 668.25 284.45 665.78 305.10 652.76 316.68 C 648.32 316.20 643.89 316.91 639.46 316.83 C 638.20 315.11 636.94 313.40 635.66 311.71 C 631.58 296.70 625.53 282.27 621.35 267.24 C 622.98 266.32 624.62 265.41 626.26 264.50 C 627.03 264.97 627.82 265.44 628.60 265.92 M 638.02 273.79 C 637.17 275.54 636.29 277.27 635.42 279.00 C 637.86 286.99 640.91 294.86 644.38 302.13 C 644.74 301.75 645.45 300.99 645.81 300.61 C 647.75 300.21 648.49 302.49 649.84 303.41 C 655.49 294.85 653.33 282.99 646.52 275.74 C 644.66 274.99 642.84 274.17 641.03 273.33 C 640.28 273.44 638.77 273.68 638.02 273.79 Z" />
<path fill="#000000" opacity="1.00" d=" M 1242.78 406.10 C 1253.28 399.88 1279.69 403.81 1273.98 419.70 C 1271.44 420.16 1268.89 420.50 1266.33 420.66 C 1259.08 407.41 1237.85 413.47 1238.18 428.06 C 1238.06 433.78 1243.16 441.42 1247.85 442.14 C 1248.06 449.46 1261.97 452.27 1262.41 461.22 C 1261.13 464.05 1258.69 466.00 1256.76 468.36 C 1256.41 468.45 1255.71 468.63 1255.36 468.72 C 1249.54 475.47 1226.14 480.92 1231.85 466.23 C 1238.93 469.02 1245.01 463.60 1250.54 459.95 C 1239.72 449.31 1224.01 436.84 1229.68 419.64 C 1233.20 415.28 1236.25 409.69 1241.86 407.72 C 1242.09 407.31 1242.55 406.50 1242.78 406.10 Z" />
<path fill="#000000" opacity="1.00" d=" M 1207.91 403.72 C 1209.46 403.95 1211.03 404.19 1212.60 404.45 C 1215.40 428.34 1222.48 451.86 1220.36 476.21 C 1218.74 477.09 1217.22 478.07 1216.16 479.61 C 1198.95 476.15 1182.09 465.40 1175.39 448.62 C 1169.79 437.51 1170.23 424.35 1166.41 413.09 C 1167.80 408.08 1172.84 405.95 1177.46 408.23 C 1178.27 409.64 1179.09 411.05 1179.93 412.46 C 1176.06 433.55 1186.42 461.43 1209.10 467.17 C 1215.53 446.03 1201.18 424.27 1207.91 403.72 Z" />
<path fill="#000000" opacity="1.00" d=" M 505.45 526.53 C 508.41 527.25 511.32 526.44 513.85 524.86 C 515.52 524.73 516.54 525.98 517.71 526.95 C 517.78 528.26 517.86 529.58 517.95 530.90 C 517.37 531.93 516.81 532.97 516.25 534.02 C 514.79 533.68 513.34 533.34 511.89 532.98 C 503.16 536.23 493.87 538.11 485.73 542.92 C 497.41 551.71 487.88 569.84 497.95 580.05 C 501.19 581.18 503.27 584.16 504.28 587.34 C 503.15 588.44 502.03 589.55 500.92 590.68 C 481.37 587.00 481.50 563.81 481.11 548.07 C 482.44 546.47 483.83 544.90 485.09 543.24 C 475.97 544.86 467.78 553.33 458.40 550.70 C 457.56 549.31 456.74 547.93 455.92 546.55 C 456.42 545.57 456.93 544.59 457.44 543.62 C 467.81 540.28 477.56 535.19 488.13 532.44 C 488.31 532.16 488.68 531.61 488.86 531.33 C 494.50 530.16 499.98 528.34 505.45 526.53 Z" />
<path fill="#000000" opacity="1.00" d=" M 522.45 535.71 C 525.12 534.58 527.96 533.96 530.82 533.48 C 541.66 539.76 544.63 553.08 554.12 560.85 C 558.41 564.29 562.61 570.81 557.74 575.60 C 557.22 575.84 556.17 576.33 555.64 576.57 C 554.34 576.45 553.04 576.33 551.75 576.24 C 549.42 569.55 543.79 563.00 536.22 567.75 C 536.85 571.85 538.37 575.79 538.63 579.96 C 537.67 581.24 536.75 582.55 535.84 583.86 C 534.20 584.39 532.55 584.91 530.92 585.44 C 518.83 572.60 526.71 551.89 522.45 535.71 M 533.70 552.73 C 534.14 555.03 534.61 557.33 535.11 559.64 C 535.74 558.41 536.37 557.20 536.98 555.98 C 535.89 554.88 534.80 553.79 533.70 552.73 Z" />
<path fill="#000000" opacity="1.00" d=" M 341.96 549.95 C 351.16 543.36 363.70 544.34 374.52 543.40 C 390.32 551.19 413.01 560.82 415.51 579.96 C 408.00 591.35 395.61 600.06 382.33 603.09 C 381.92 603.56 381.10 604.51 380.69 604.98 C 380.30 604.79 379.51 604.40 379.11 604.20 C 373.08 605.64 367.12 611.87 360.96 607.27 C 354.85 595.16 351.73 581.75 347.31 568.96 C 345.82 568.20 344.50 566.69 342.71 567.52 C 340.73 561.82 341.97 555.81 341.96 549.95 M 356.77 558.49 C 359.88 570.06 362.07 582.27 367.86 592.82 C 368.48 592.61 369.71 592.19 370.32 591.97 C 372.17 592.60 374.01 593.27 375.90 593.80 C 376.23 594.15 376.89 594.84 377.22 595.18 C 378.37 594.86 379.52 594.25 380.73 594.71 C 390.05 591.13 404.97 584.73 401.09 572.27 C 392.07 563.79 381.97 555.72 369.80 552.40 C 365.16 553.68 360.84 555.96 356.77 558.49 Z" />
<path fill="#000000" opacity="1.00" d=" M 423.65 547.85 C 424.78 546.91 425.91 545.97 427.03 545.03 C 439.77 543.70 445.02 557.81 452.19 565.80 C 457.68 571.31 462.50 585.90 451.04 586.96 C 450.02 584.23 448.96 581.50 449.34 578.53 C 447.26 575.90 445.47 573.05 443.50 570.34 C 442.73 570.51 441.97 570.69 441.21 570.87 C 439.78 572.06 438.32 573.23 436.84 574.36 C 433.44 582.25 436.94 590.62 435.35 598.62 C 430.86 601.68 426.12 599.49 422.40 596.34 C 425.36 580.45 425.41 563.86 423.65 547.85 M 434.90 562.27 C 432.84 567.30 440.02 561.73 434.90 562.27 Z" />
</g>
</svg>
