<?xml version="1.0" encoding="UTF-8"?>
<svg width="466px" height="624px" viewBox="0 0 466 624" version="1.1" xmlns="http://www.w3.org/2000/svg" xmlns:xlink="http://www.w3.org/1999/xlink">
    <!-- Generator: Sketch 43.2 (39069) - http://www.bohemiancoding.com/sketch -->
    <title>audit</title>
    <desc>Created with Sketch.</desc>
    <defs></defs>
    <g id="Page-1" stroke="none" stroke-width="1" fill="none" fill-rule="evenodd">
        <g id="audit" transform="translate(238.500000, 312.000000) rotate(95.000000) translate(-238.500000, -312.000000) translate(-79.000000, 60.000000)" fill-rule="nonzero" fill="#202121">
            <path d="M576.38,8.56 C578.7,2.9 585.58,-2.92 590.99,2.95 C595.97,8.22 605.78,3.25 608.76,11.46 C612.41,19.61 605.01,25.86 601.06,31.98 C605.66,52.95 598.05,74.77 602.9,96.06 C606.8,205.23 631.04,312.73 633.08,422.02 C638.77,437.99 626.19,457.15 608.74,455.63 C577.5,466.14 543.69,463.96 511.34,469.36 C478.27,469.69 446.14,479.53 413.03,480.09 C392.22,484.4 370.79,481.78 350.2,487.41 C302.22,493.68 253.76,491.55 205.55,494.48 C154.33,498.42 102.13,496.12 51.49,504 C51.73,496.43 45.12,495.13 39.31,493.61 C26.66,445.3 23.99,394.41 14.91,345.3 C3.36,277.13 4.65,207.82 2.71,138.94 C-0.52,122.93 1.04,106.54 1.15,90.31 C8.53,78.73 19.17,68.74 30.3,61.55 C194.55,47.38 359.85,41.25 522.81,14.67 C540.34,10.44 558.73,11.32 576.38,8.56 L576.38,8.56 Z M410.98,52.37 C286.62,66.32 161.26,70.28 37.43,89.05 C32.5,140.98 38.25,193.07 42.27,244.89 C50.99,320.28 58.36,395.98 71.46,470.71 C155.2,466.5 240.54,464.16 324.53,455.54 C406.17,447.29 488.49,446.97 569.84,435.8 C584.87,433.64 600.74,434.23 614.67,427.37 C617.22,386.15 611,344.92 608.1,303.8 C598.23,229.46 587.85,155.07 584.48,80.13 C584.78,64.28 579.38,49.11 579.8,33.27 C523.73,40.74 467.36,47.09 410.98,52.37 Z" id="Shape"></path>
            <path d="M330.82,113.56 C332.46,104.9 341.76,96.49 350.65,101.53 C354.3,161.4 355.68,222.61 370.47,280.88 C369.84,288.94 355.17,301.67 351.21,289.67 C339.14,231.73 337.32,172.15 330.82,113.56 Z" id="Shape"></path>
            <path d="M533.24,103.71 C537.2,102.56 539.97,106.53 540.1,110.07 C535.95,161.86 536.18,214.77 545.48,266 C544.32,273.15 537.55,281.12 529.71,279.39 C523.64,275.41 526.08,267.01 524.99,260.92 C518.14,215.69 518.7,169.79 518.89,124.22 C516.71,114.6 523.28,104.7 533.24,103.71 Z" id="Shape"></path>
            <path d="M476.21,105.62 C486.44,108.93 480.19,124.25 481.45,132.64 C485.71,180.15 489.77,228 500.56,274.49 C501.34,282.56 490.15,295.05 482.89,288.1 C472.22,235.49 466.52,181.72 461.17,128.24 C457.12,117.66 464.26,105.09 476.21,105.62 Z" id="Shape"></path>
            <path d="M154.18,111.79 C157.71,110.12 162.87,111.11 163.73,115.48 C168.68,174.42 176.55,233.46 187.49,291.7 C192.21,301.74 184.96,319.41 172.07,314.96 C166,308.07 169.48,297.09 167.18,288.59 C156.99,235.38 151.67,181.41 144.11,127.8 C142.52,120.73 148.83,115.17 154.18,111.79 Z" id="Shape"></path>
            <path d="M434.47,125.52 C444.07,120.84 450.03,130.77 446.7,139.2 C449.84,180.16 452.65,221.59 462.35,261.65 C467.8,272.33 460.65,288.15 448.17,288.27 C438.33,285.46 443.62,274.87 442.13,267.8 C435.72,228.74 430.68,189.47 427.69,150.02 C424.74,141.48 425.46,130.05 434.47,125.52 Z" id="Shape"></path>
            <path d="M124.54,127.34 C127.43,125.68 129.98,129.73 130.88,132.1 C131.66,155.42 133.12,178.9 136.92,202.01 C141.54,236.3 143.59,271.03 152.2,304.65 C154.62,313.92 145.95,326.66 135.74,323.3 C132.17,320.13 133.01,314.61 132.44,310.28 C124.4,255.25 117.44,199.94 112.51,144.51 C110.77,136.24 118.31,130.89 124.54,127.34 Z" id="Shape"></path>
            <path d="M268.45,130.42 C271.45,129.89 275.21,130.93 275.8,134.36 C278.9,177.81 286.46,220.95 294.32,263.82 C296.26,272.19 301.75,281.73 295.77,289.76 C291.37,293.74 283.75,300.97 278.5,294.39 C273.27,249.07 263.66,203.8 258.58,158.2 C254.47,148.31 255.37,132.23 268.45,130.42 Z" id="Shape"></path>
            <path d="M300.5,132.53 C304.67,130.39 309.8,132.21 309.75,137.39 C309.07,148.38 310.69,159.28 311.93,170.19 C318.88,207.5 320.43,246.29 334.41,281.92 C337.29,291.17 321.38,305.56 316.53,293.37 C302.32,248.65 299.06,201.42 290.3,155.55 C286.36,146.94 289.79,133.63 300.5,132.53 Z" id="Shape"></path>
            <path d="M83.31,176.45 C77.08,166.7 86.25,156.16 95.03,152.24 C97.04,154.21 99.78,155.99 99.93,159.11 C107.76,212.34 114.17,265.78 122.28,319.02 C124.22,326.83 116.81,333.55 110.12,335.71 C103.8,333.23 106.4,324.54 105.51,319.18 C97.77,271.68 91.83,223.87 83.31,176.45 Z" id="Shape"></path>
            <path d="M224.37,335.42 C214.87,329.06 217.37,304.95 232.36,310.56 C262.15,338.27 299.54,356.23 335.75,374.22 C343.65,379 352.72,380.82 361.37,383.61 C369.74,389.01 368.4,401.51 361.82,407.83 C348.25,415.25 334.04,422.8 324.33,435.34 C313.65,441.81 310.15,424.21 311.73,416.8 C316.94,408.49 327.83,405.9 333.76,398 C307.52,382.05 279.03,369.75 253.31,352.75 C243.54,347.16 235.49,338.42 224.37,335.42 Z" id="Shape"></path>
            <path d="M523.12,321.13 C526.96,315.18 534.86,318.86 540.42,319.58 C548.84,340.5 522.09,352.36 517.99,371.28 C527.56,378.03 539.2,380.86 548.93,387.11 C553.86,393.82 549.49,411.49 538.98,405.96 C528.26,400.76 517.89,394.87 507.53,389 C500.3,403.22 494.57,418.46 485.69,431.7 C476.3,436.48 471.49,420.3 473.15,413.35 C479.62,402.2 486.59,391.16 491.86,379.29 C480.6,368.56 458.66,367.65 456.42,349.65 C454.68,344.24 459.04,337.99 464.89,338.74 C478.23,343.7 489.03,353.63 501.79,359.63 C509.93,347.57 517.39,334.61 523.12,321.13 Z" id="Shape"></path>
            <path d="M149.75,353.72 C156.28,344.13 173.47,355.25 168.3,365.31 C163.98,375.13 157.87,384.73 155.83,395.25 C164.04,404.15 176.28,408.59 185.39,416.59 C189.79,423.5 188.66,434.98 180.11,438.17 C169.37,430.23 158.63,422.14 146.74,415.97 C136.96,425.69 138.1,448.12 121.89,449.16 C105.1,435.47 125.25,417.65 129.83,403.02 C125.64,398.9 120.51,396.12 115.24,393.67 C105.76,389.48 105.69,371.56 117.03,369.89 C125.59,370.46 131.08,378.3 138.86,381.12 C143.65,372.44 144.42,362.09 149.75,353.72 Z" id="Shape"></path>
        </g>
    </g>
</svg>