<?xml version="1.0" encoding="UTF-8"?>
<svg width="202px" height="235px" viewBox="0 0 202 235" version="1.1" xmlns="http://www.w3.org/2000/svg" xmlns:xlink="http://www.w3.org/1999/xlink">
    <!-- Generator: Sketch 43.2 (39069) - http://www.bohemiancoding.com/sketch -->
    <title>Group 7</title>
    <desc>Created with Sketch.</desc>
    <defs></defs>
    <g id="Page-1" stroke="none" stroke-width="1" fill="none" fill-rule="evenodd">
        <g id="Group-7" transform="translate(-4.000000, 0.000000)" fill-rule="nonzero">
            <g id="data-driven" transform="translate(114.674252, 112.500000) rotate(-270.000000) translate(-114.674252, -112.500000) translate(2.174252, 21.500000)" fill="#1B1C1C">
                <path d="M221.589714,0 L224.358056,0 L224.358056,1.4306357 C223.448617,0.927799511 222.521389,0.456112469 221.589714,0 Z" id="Shape"></path>
                <path d="M100.356315,54.3152078 C103.53157,53.8679951 103.760598,57.7594132 103.031268,59.9242787 C101.439193,75.7903178 102.951219,91.7542543 104.356514,107.56912 C105.354897,122.654205 106.878041,137.739291 107.460616,152.855526 C108.007614,158.580293 108.425645,164.416308 107.831952,170.141076 C107.545111,172.53066 104.165287,174.644352 102.250795,172.722005 C82.0296636,176.379804 61.4594319,177.200807 41.0159436,178.649242 C27.7479106,180.217824 14.261968,179.2522 1.13846704,181.893203 C-0.647058418,181.163423 0.231251118,178.669267 0.253486803,177.183007 C2.31918189,174.938044 5.750148,175.387482 8.51849072,174.89577 C27.5411188,174.085892 46.4992634,172.837702 65.4729729,171.128949 C73.6067863,170.465917 81.7405997,169.578166 89.7943646,168.203154 C94.2326072,167.491174 98.9732551,167.355452 103.064621,165.43533 C102.782228,135.458729 98.2639368,105.613399 97.3834037,75.6523716 C97.1165755,70.0099267 97.8347881,64.3697066 97.6191019,58.7228117 C97.9215073,57.0785819 98.4351516,54.6845477 100.356315,54.3152078 Z" id="Shape"></path>
                <path d="M37.2314301,58.3378973 C41.8631231,58.3000733 44.5758766,62.9123716 46.0701146,66.6992176 C47.3886907,69.9765526 46.34139,73.4897311 45.6120595,76.7047677 C50.890811,83.2794621 57.388078,88.8329095 63.3917128,94.7467971 C65.1194255,95.7858435 66.4802494,97.4389731 68.4570018,98.0397066 C70.3448114,97.0852078 72.8018545,95.9994377 74.7652654,97.3544254 C80.0484641,100.529413 82.8234775,108.11868 79.574844,113.638753 C78.2940686,116.201883 75.2944747,118.211002 72.3838236,117.39 C71.0007641,116.052812 69.2552628,114.486455 67.2540512,114.473105 C65.2439454,115.888166 63.5362448,117.73709 61.5661632,119.230024 C60.1275144,120.329144 61.9530641,121.891051 62.1643031,123.179291 C63.5940576,126.002738 62.5089562,129.168826 62.1554088,132.050122 C65.9265809,136.230782 70.0112761,140.204523 73.9803458,144.233888 C75.2789098,145.744621 77.2111907,144.162689 78.7854772,144.078142 C82.887961,144.011394 87.3150858,146.425452 88.622544,150.485966 C89.7565639,153.300513 89.5875727,156.5111 88.4980242,159.310073 C86.3767399,164.202714 78.9878219,167.019487 75.1299307,162.447237 C70.5315911,159.330098 69.8689677,153.05577 71.8145901,148.212078 C67.4808552,143.699902 62.9536699,139.2478 58.6088171,134.6978 C55.9027343,134.998166 53.0032011,134.597677 51.5689994,131.952225 C46.8483636,130.074377 43.2506299,125.304108 44.1711872,120.051027 C45.1384395,115.616724 50.4616623,112.430611 54.7509259,114.319584 C56.0027949,114.777922 56.8277388,116.408802 58.1774448,116.350954 C60.407684,114.28621 62.8224793,112.270416 64.663594,109.856357 C64.8703859,107.689267 63.8742272,105.404254 64.7169596,103.221589 C65.4285015,101.675257 63.8408737,100.81198 62.8891864,99.9375795 C56.1161969,94.2128117 49.9191116,87.8428117 43.7175792,81.5217604 C42.7392091,79.9042298 41.0670856,78.7116626 39.5394941,80.407066 C32.3440266,79.1611002 27.0163566,70.43489 30.1048932,63.5331296 C31.3056202,60.7297066 34.2918726,58.787335 37.2314301,58.3378973 L37.2314301,58.3378973 Z M33.8115818,65.2062836 C31.0788162,68.3122983 34.3741446,73.3896088 37.8518057,74.3062836 C38.2609423,71.9211491 41.2894425,70.8732029 42.5124051,73.2894866 C45.1050859,68.8040098 38.4655106,60.9499756 33.8115818,65.2062836 L33.8115818,65.2062836 Z M70.965187,102.393912 C69.6621759,103.397359 66.9916702,104.144939 68.0923365,106.29868 C69.7689072,108.643765 70.8606793,111.447188 73.4644779,112.955697 C76.1616664,112.788826 78.209573,109.831883 77.3223692,107.266528 C76.4284946,104.6678 74.1070892,101.475012 70.965187,102.393912 L70.965187,102.393912 Z M47.6999903,122.153594 C48.2447646,124.10709 49.8679696,125.551076 51.4467031,126.725844 C53.4212319,128.149804 56.4497322,127.94956 57.7038248,130.32802 C58.7133248,130.027653 59.67613,129.242249 59.7117071,128.11198 C59.304794,124.331809 56.5920405,120.943227 53.0676845,119.577115 C51.0108837,118.86291 47.9534771,119.683912 47.6999903,122.153594 L47.6999903,122.153594 Z M78.1539838,149.716137 C76.9376918,150.261247 75.6680342,150.801907 74.6362985,151.656284 C72.9041387,154.637702 76.1283129,159.686088 79.5103605,158.678191 C81.7561646,160.631687 85.5006539,158.602543 85.6941044,155.77687 C86.1921837,151.77198 81.7139168,149.075355 78.1539838,149.716137 Z" id="Shape"></path>
            </g>
            <g id="Group-6" transform="translate(0.000000, 134.000000)" fill="#000000">
                <g id="Group-5" transform="translate(21.677686, 0.000000)">
                    <path d="M104.652533,6.45654394 C107.518226,5.4650091 110.926284,4.97117074 113.580415,6.7921997 C112.730324,13.096355 102.533075,10.1487573 99.2250272,14.3348091 C96.5785891,24.3080291 101.45219,33.9764583 102.933118,43.594732 C99.9828009,44.5978412 96.3285622,42.8192515 95.4092327,39.7983496 C92.412757,32.5258081 90.3240711,24.5665226 91.1549296,16.6612507 C82.5732385,19.5818417 74.2646536,23.3550754 66.4407362,27.9423708 C69.7680167,32.4640783 75.3955443,35.5042707 77.1226529,41.0445199 C78.1958452,44.9412132 72.9875934,44.1927394 71.0296907,42.9890084 C68.4563374,38.7605174 64.7251673,35.4348247 61.1901722,32.0358279 C59.6707782,30.4848668 57.9475162,32.8151665 56.7243079,33.7063905 C57.105118,38.16251 58.5898929,42.4102916 59.5015293,46.7661003 C57.1205043,47.0400262 52.9431325,48.1164395 52.2815229,44.8409023 C50.619806,40.6046951 51.10832,35.6200141 48.1272305,32.2055848 C52.3276817,28.3821956 45.8423697,19.7400243 53.0546829,18.7291989 C56.9551019,18.0733198 59.655392,22.3944055 62.9095877,23.2894875 C76.3341067,16.5223587 90.3163779,10.9859677 104.652533,6.45654394 Z" id="Shape" transform="translate(80.853823, 26.361843) rotate(9.000000) translate(-80.853823, -26.361843) "></path>
                    <path d="M112.604299,24.1573423 C112.604299,21.1055755 116.497025,21.0245552 118.724187,21.0129808 C124.270937,23.5670511 125.986506,31.8234112 132.62568,32.0973372 C132.933406,36.7617949 139.480263,36.6113285 140.103407,41.1716171 C135.695241,43.4556195 131.525562,38.9994999 127.413582,37.9848164 C124.705599,39.1229595 122.443817,41.4378269 119.262707,41.3182254 C118.885743,43.2009841 119.62813,45.3769594 118.604944,47.0706707 C116.489332,47.2172789 112.365812,48.1316515 112.111938,45.0798848 C111.958076,38.1044179 111.484948,31.0865118 112.604299,24.1573423 L112.604299,24.1573423 Z M119.197315,30.3611867 C118.920362,31.9468708 118.978061,33.5557036 119.024219,35.1568202 C120.332052,35.2571311 121.582186,34.8095901 122.751543,34.2771706 C121.732203,32.8303785 120.520534,31.5301947 119.197315,30.3611867 Z" id="Shape" transform="translate(125.992021, 34.162573) rotate(9.000000) translate(-125.992021, -34.162573) "></path>
                    <path d="M12.8310981,6.39800319 C20.0741839,5.57622529 26.4864112,10.0169124 31.871605,14.3071332 C36.2182258,17.9260425 42.0573146,21.6606951 42.8958662,27.6639177 C39.4031833,36.5722988 31.2830803,42.7066972 23.4860889,47.7299593 C23.405311,52.1012004 16.9738509,52.4522886 15.3505996,49.0378593 C12.4425949,38.7752808 10.0269508,28.3699522 7.4535974,18.0070628 C7.15356517,16.0818648 4.76100047,16.3326421 3.61087692,15.2137896 C2.98388649,10.0632098 8.21906425,6.60634125 12.8310981,6.39800319 L12.8310981,6.39800319 Z M13.5273268,11.066319 C15.9237381,21.5873909 17.6046879,32.3939632 21.4974137,42.494501 C26.8749144,39.1842407 31.9831555,34.8052834 34.6257471,28.9255204 C35.6489339,26.5527814 34.0372223,24.2301978 32.4293573,22.6059326 C26.9210733,17.8720289 21.4166358,10.896562 13.5273268,11.066319 Z" id="Shape" transform="translate(23.227705, 28.817864) rotate(9.000000) translate(-23.227705, -28.817864) "></path>
                </g>
                <g id="Group-2" transform="translate(0.000000, 45.500000)">
                    <path d="M183.225105,4.82862613 C185.35995,2.89957003 190.195084,3.1426311 191.041329,6.44903326 C193.003078,13.2586013 188.502595,19.5666148 187.829446,26.2488651 C187.329392,28.8260841 188.325653,33.8532043 184.448313,33.7914745 C175.001145,33.0044196 167.808064,26.0675338 159.33023,22.5798004 C158.218572,26.4070477 159.284072,30.438775 159.349463,34.3431845 C159.245606,37.6418704 162.492108,40.7437927 160.480354,43.9614582 C157.295396,43.4830523 153.214189,42.3294768 152.567965,38.6256891 C151.783266,31.7389588 152.12561,24.6593229 150.740846,17.8497548 C151.21782,15.34584 154.352773,14.9561707 156.422226,15.4461509 C164.75389,17.8960522 171.408451,23.9108491 179.563173,26.7928589 C180.982556,19.539608 184.732959,12.355803 183.225105,4.82862613 Z" id="Shape" transform="translate(171.136779, 23.787084) rotate(9.000000) translate(-171.136779, -23.787084) "></path>
                    <path d="M123.154649,7.81556123 C125.131785,7.60336506 127.582048,8.17822378 127.570508,10.6049764 C122.904622,12.8581139 117.530968,13.6374525 113.303591,16.7548072 C114.926842,19.9570403 114.011359,23.6801186 115.28842,26.9710883 C122.116076,25.7827898 128.328282,21.353677 135.459817,22.0056979 C135.655992,22.9277867 135.836781,23.8537337 135.998337,24.7835387 C130.278491,28.2751303 123.435449,29.3708341 117.788688,32.9318717 C119.519643,35.9257668 122.823845,37.6927822 126.085733,38.4759789 C130.236179,38.7421887 132.905697,34.5754275 137.071529,34.6178667 C137.625435,35.7135706 138.902495,37.0639099 137.910081,38.2830733 C134.071207,44.220708 125.551061,45.0193372 119.546569,42.2106315 C114.622964,40.5902244 111.237985,36.4388957 108.126112,32.530628 C106.0105,37.5616063 104.83345,42.9706797 103.048643,48.0672459 C99.9059981,50.2933766 95.4939857,48.001658 92.7283039,45.941426 C86.7776647,42.4806994 83.9504379,35.8331721 82.7656953,29.3361111 C80.6231574,24.9069983 89.3971769,24.1778151 89.9433894,28.3098533 C90.9434968,33.0823381 92.5013565,38.1403232 96.5248656,41.2653941 C100.652232,33.5028723 103.152501,24.8568428 106.445162,16.6969355 C105.37197,15.7208331 103.687173,13.9383853 105.783553,13.0240127 C111.322609,10.6396994 117.138618,8.56017689 123.154649,7.81556123 Z" id="Shape" transform="translate(110.353002, 28.377462) rotate(9.000000) translate(-110.353002, -28.377462) "></path>
                    <path d="M66.3941768,20.3560988 C68.5982597,19.8082468 71.8524555,20.0050106 72.3755886,22.7635608 C73.8834429,32.2815236 76.7568285,41.9808177 83.2536802,49.3382377 C84.5999787,50.4570902 84.6692169,53.1770593 82.6651555,53.5667286 C79.2186314,53.8329384 76.0182876,51.5412197 74.3527241,48.628345 C68.8329003,41.5911483 66.9865482,32.6364699 65.0286455,24.1177582 C64.6786079,22.7326959 64.5362849,20.637741 66.3941768,20.3560988 Z" id="Shape" transform="translate(74.518744, 36.849318) rotate(9.000000) translate(-74.518744, -36.849318) "></path>
                    <path d="M38.5673016,23.3603915 C40.5867493,19.5640091 44.9910686,17.5925138 49.1607473,17.6542436 C54.0112683,18.0632035 57.8693751,23.0633169 56.9269662,27.8705247 C55.4729638,32.3305024 51.6802487,35.3359718 48.3452751,38.368448 C54.538248,41.4510797 61.1312639,43.7466564 67.8550632,45.2937594 C69.8860506,44.7073264 71.3708254,46.1695509 72.2478427,47.8555459 C63.6161463,52.4428413 54.4305441,45.5869759 45.7988477,44.0823122 C46.1104196,47.1340789 49.6646476,49.7074398 47.5567288,52.8479431 C44.4487026,54.7731411 39.594335,52.5508685 38.8942598,48.8933781 C35.0476928,42.3461617 36.8171136,34.2595585 33.4321346,27.5503014 C32.2704714,24.375075 37.2825482,25.1929948 38.5673016,23.3603915 L38.5673016,23.3603915 Z M43.4639815,34.2286936 C47.422099,32.3420767 52.3072391,26.6822261 48.3760476,22.4614514 C44.3063797,24.5988455 42.5638848,29.8844593 43.4639815,34.2286936 Z" id="Shape" transform="translate(52.753346, 35.604751) rotate(9.000000) translate(-52.753346, -35.604751) "></path>
                    <path d="M2.7001039,25.5415016 C4.63108056,21.4094635 9.87779802,20.464226 13.9436194,21.2281322 C21.4867374,23.9789662 28.5721139,28.9212079 32.4648397,36.1204453 C34.1342499,38.9715902 33.1879944,42.7679726 30.9031335,44.9941034 C26.9950214,49.1955876 22.3599081,53.0382673 16.8131584,54.7667016 C13.7012857,55.9009866 8.78921955,53.7635924 10.5663335,49.9054802 C7.87758316,41.8381676 6.60821603,33.1496989 2.7001039,25.5415016 L2.7001039,25.5415016 Z M11.5010493,26.2706848 C13.3127824,33.6088142 14.8591024,41.2864575 18.0055942,48.1847622 C21.1597792,45.6731311 25.8872101,42.7409658 25.4910137,38.1845353 C22.9253535,32.706016 17.6670963,26.7452326 11.5010493,26.2706848 Z" id="Shape" transform="translate(18.005665, 38.028402) rotate(9.000000) translate(-18.005665, -38.028402) "></path>
                </g>
            </g>
        </g>
    </g>
</svg>