<?xml version="1.0" encoding="UTF-8" ?>
<!DOCTYPE svg PUBLIC "-//W3C//DTD SVG 1.1//EN" "http://www.w3.org/Graphics/SVG/1.1/DTD/svg11.dtd">
<svg width="1344pt" height="1008pt" viewBox="0 0 1344 1008" version="1.1" xmlns="http://www.w3.org/2000/svg">
<g id="#c2bbb0ff">
</g>
<g id="#000000ff">
<path fill="#000000" opacity="1.00" d=" M 420.13 254.19 C 471.96 244.81 526.98 263.30 565.73 298.26 C 610.35 340.56 642.79 394.05 667.24 450.02 C 672.95 438.69 682.56 417.49 698.30 427.36 C 697.25 447.29 685.05 465.01 678.84 483.78 C 676.33 492.43 673.33 501.03 668.76 508.82 C 664.03 516.81 651.85 518.03 645.18 511.79 C 627.91 502.50 612.26 490.33 594.88 481.24 C 585.66 479.61 571.73 474.86 575.67 462.68 C 583.65 457.34 596.86 451.12 604.41 460.58 C 618.98 470.71 634.94 478.75 650.16 487.86 C 657.42 484.76 654.12 478.18 649.16 474.93 C 630.15 417.73 598.88 364.41 557.23 320.76 C 529.79 290.71 490.55 271.42 449.86 269.29 C 412.95 267.20 376.79 284.10 352.12 311.12 C 315.68 345.87 297.77 395.75 289.51 444.37 C 285.14 474.81 282.39 505.75 287.52 536.29 C 289.11 549.29 271.97 557.04 263.02 547.97 C 261.46 492.94 262.73 435.18 284.31 383.32 C 305.14 322.15 355.65 268.28 420.13 254.19 Z" />
<path fill="#000000" opacity="1.00" d=" M 651.70 555.44 C 658.44 547.60 674.62 546.28 678.04 557.97 C 684.22 580.01 671.69 602.12 664.58 622.57 C 653.96 639.57 643.91 657.23 628.70 670.67 C 591.20 706.03 542.49 732.71 489.97 734.01 C 422.31 739.34 356.02 707.40 310.30 658.70 C 298.39 645.50 290.52 629.35 279.85 615.31 C 273.90 634.13 276.82 654.62 278.65 673.84 C 276.56 686.78 256.39 685.57 251.69 675.36 C 253.30 643.62 255.24 610.86 258.39 579.40 C 267.27 566.73 283.66 572.37 295.45 576.83 C 310.01 585.33 327.27 587.33 342.50 594.64 C 348.25 598.14 357.60 602.73 355.04 610.96 C 354.73 617.66 345.78 619.74 341.19 615.72 C 328.47 610.30 315.53 603.76 301.71 602.14 C 316.89 645.37 354.80 676.19 394.34 696.74 C 426.55 713.52 463.60 718.37 499.48 715.54 C 560.17 708.51 615.77 667.53 643.31 613.34 C 650.99 595.35 658.08 574.90 651.70 555.44 Z" />
</g>
</svg>
