<?xml version="1.0" encoding="UTF-8"?>
<svg width="162px" height="136px" viewBox="0 0 162 136" version="1.1" xmlns="http://www.w3.org/2000/svg" xmlns:xlink="http://www.w3.org/1999/xlink">
    <!-- Generator: Sketch 43.2 (39069) - http://www.bohemiancoding.com/sketch -->
    <title>Group 9</title>
    <desc>Created with Sketch.</desc>
    <defs></defs>
    <g id="Page-1" stroke="none" stroke-width="1" fill="none" fill-rule="evenodd">
        <g id="Group-9" transform="translate(81.000000, 68.000000) rotate(-270.000000) translate(-81.000000, -68.000000) translate(13.000000, -13.000000)" fill-rule="nonzero" fill="#171717">
            <g id="optimisation-strategy">
                <g id="#171717ff">
                    <path d="M62.6008743,0.512752294 C65.6571585,-0.141192661 69.8337705,-0.198784404 71.5653552,2.9334633 C73.8710383,7.9012156 72.104153,14.9980046 67.0710383,17.636078 C66.8053552,17.7884174 66.6177049,18.059656 66.712459,18.3754817 C67.8699454,25.8122477 68.7877596,33.2861697 69.3971585,40.7916743 C69.6089617,43.8421789 70.3651366,46.9094037 69.9712568,49.9636239 C78.2055738,53.7461009 84.1899454,60.9933716 88.5597814,68.7311009 C89.663388,66.9940596 90.7688525,65.2477294 92.115847,63.6816055 C96.5395628,57.8982798 99.8318033,51.3718349 103.255956,44.9810092 C98.356612,42.0215367 97.7119126,34.3116743 101.728743,30.3805734 C104.331694,28.3611468 108.015956,27.0142431 111.116831,28.7791514 C116.898689,33.1338303 115.925137,43.4390367 109.42612,46.6288761 C108.387541,47.3255505 106.979235,46.731055 105.964809,47.2493807 C101.31071,55.8547018 96.1512568,64.2147936 90.2077596,71.9673853 C95.3430601,83.5674771 99.7797814,97.7016055 93.3457923,109.701124 C97.7843716,117.358968 104.474754,123.463693 110.247322,130.129472 C113.193989,128.892179 116.707322,127.866674 119.93082,128.827156 C123.135738,130.606927 124.129727,134.597477 124.53847,137.97867 C125.298361,142.719771 124.068415,147.962477 120.486339,151.317661 C118.080328,153.329656 114.717486,154.61711 111.62776,153.487569 C110.834426,152.768601 110.966339,151.657638 111.007213,150.697156 C104.985683,147.102317 104.099454,138.61961 107.328525,132.862294 C102.971694,127.181147 97.6022951,122.321147 93.5167213,116.42078 C92.5543169,115.151904 92.0285246,113.617362 91.7331148,112.066101 C87.9763934,116.504381 82.2093989,118.986399 76.4145355,118.817339 C73.1538798,118.440206 69.8746448,118.189404 66.6084153,117.897729 C63.9906011,119.582752 62.7606557,122.69828 60.6351913,124.90906 C57.4748634,128.784427 54.9202186,133.109381 52.6554098,137.55695 C52.3860109,138.301927 51.3567213,139.063624 52.0237158,139.86805 C54.3126776,143.442454 55.6020765,147.811995 54.8886339,152.055206 C53.9522404,155.934289 52.140765,160.32055 48.0496175,161.726904 C45.803388,162 42.5037158,162.273096 41.4669945,159.733486 C39.1408743,158.947638 37.230929,157.3425 35.02,156.328142 C30.2377049,152.714725 29.6654645,144.91383 33.4147541,140.423532 C36.0994536,138.049266 39.8301639,137.660986 43.2413115,137.26156 C45.1438251,136.811972 47.1206557,136.916009 49.0045902,137.397179 C51.2545355,133.477225 53.184918,129.358486 55.7953005,125.648463 C57.6346448,122.505069 60.3527869,119.993326 62.2144262,116.870367 C57.1051366,114.826789 52.1017486,112.350344 47.9808743,108.634748 C43.4066667,104.876422 42.1135519,98.7271101 41.3778142,93.15 C33.6414208,95.5038303 25.4201093,95.1601376 17.5053552,96.4550229 C16.515082,100.283945 15.0677596,104.462133 11.4095082,106.528005 C8.91060109,108.276193 4.58721311,107.404885 3.53191257,104.404541 C0.0464480874,102.011697 -0.412459016,97.2167202 0.763606557,93.4676835 C2.01027322,90.3465826 4.99409836,88.4126147 7.9463388,87.0991514 C10.2780328,86.0792202 13.4959563,85.5460321 15.2925683,87.8144037 C16.4965027,88.9012156 16.7101639,90.8704817 17.8416393,91.8123853 C25.6096175,91.0358257 33.5503825,90.7961697 41.0991257,88.667133 C40.9077596,76.8589679 44.3430601,64.4247248 53.1663388,56.1370872 C56.9379235,52.6760092 61.709071,49.9060321 66.8740984,49.3951376 C65.8652459,39.0750688 65.0886339,28.6825459 63.0746448,18.4925229 C61.2743169,17.6825229 59.0336612,17.8627294 57.5659016,16.3764908 C53.136612,11.4533257 55.5500546,1.42307339 62.6008743,0.512752294 L62.6008743,0.512752294 Z M61.0996721,4.98261468 C58.2960656,5.68300459 58.14,9.43204128 59.184153,11.6112385 C59.5575956,12.4974083 60.5255738,10.7009174 60.7039344,11.745 C60.6779235,12.7407798 61.5901639,13.1792202 62.3927869,13.4783257 C63.0430601,11.4273165 65.9321311,11.2656881 66.0194536,13.6994037 C69.5569399,12.9952982 70.476612,8.06841743 68.3975956,5.54552752 C66.2609836,4.28408257 63.4499454,4.61291284 61.0996721,4.98261468 L61.0996721,4.98261468 Z M106.537049,32.7901376 C104.781311,33.1319725 102.126339,33.8175 102.293552,36.0895872 C102.665137,38.0588532 103.805902,40.7508028 106.037268,40.9588761 C107.518033,40.4256881 107.367541,43.2625459 108.878033,42.3559404 C113.955738,40.7805275 111.676066,31.9745642 106.537049,32.7901376 L106.537049,32.7901376 Z M59.4219672,55.7116514 C54.8068852,58.2345413 51.3753005,62.37 48.4416393,66.6392202 C44.8521311,72.7365138 43.8284153,79.950344 43.8748634,86.9263761 C43.763388,93.9730046 45.0286339,102.158463 51.2879781,106.446261 C55.2936612,109.714128 59.9923497,112.008509 64.9084153,113.537477 C66.712459,112.989427 68.4347541,114.915963 70.1403279,113.66195 C73.2857923,115.09617 76.8139891,113.961055 80.0542077,113.418578 C80.6338798,113.379564 80.652459,114.137546 80.8698361,114.520252 C85.7989071,113.812431 90.3285246,110.388509 92.1660109,105.72172 C95.5790164,97.9524083 93.5260109,89.2727752 91.0271038,81.561055 C87.3781421,70.8582798 81.2637158,60.1387844 70.9893989,54.6081193 C67.3478689,52.3007339 62.8721311,53.7832569 59.4219672,55.7116514 L59.4219672,55.7116514 Z M10.2371585,91.1287156 C7.48743169,91.5820183 4.42185792,92.8211697 2.9726776,95.340344 C2.57508197,99.3401835 6.68295082,101.541674 9.83213115,102.765963 C12.3663388,101.993119 14.1239344,99.5073853 14.6478689,96.9826376 C13.9251366,95.7156193 14.1202186,94.2442431 13.9771585,92.8583257 C13.5646995,91.2569037 11.6603279,90.8704817 10.2371585,91.1287156 L10.2371585,91.1287156 Z M112.937596,134.108876 C112.079235,135.28672 111.263607,137.779885 109.442842,136.221193 C107.915628,138.428257 108.402404,141.434174 109.509727,143.71555 C111.153989,146.268165 114.002186,147.694954 116.688743,148.883945 C122.64153,146.896101 123.195191,138.651193 119.698579,134.272362 C117.72918,133.020206 115.05377,133.501376 112.937596,134.108876 L112.937596,134.108876 Z M39.0795628,142.539564 C37.0451366,142.955711 34.0984699,143.635665 33.9089617,146.156697 C33.5726776,149.422706 36.0994536,152.029197 38.6931148,153.58789 C39.9137705,154.232546 41.1845902,155.724358 42.6653552,155.00539 C43.5218579,156.008601 44.7016393,156.707133 45.9037158,157.210596 C48.2874317,157.340642 50.247541,155.440115 51.2749727,153.452271 C52.6814208,150.286583 51.6967213,146.375917 49.6121311,143.75828 C48.0886339,145.547339 48.1369399,148.746468 45.9185792,149.781261 C43.7429508,147.971766 44.1442623,143.552064 46.6468852,142.285046 C44.2445902,141.64039 41.5617486,142.292477 39.0795628,142.539564 Z" id="Shape"></path>
                    <path d="M11.6993443,24.8907798 C15.8202186,23.922867 20.9908197,22.9586697 24.4446995,26.094633 C27.8038251,29.3309174 28.0360656,34.7649771 25.6393443,38.631055 C32.3353005,45.3339908 40.993224,49.4694495 48.7723497,54.7102982 C50.6860109,56.0423394 49.5656831,60.3189908 47.0333333,59.0612615 C39.1706011,53.8389908 30.744918,49.3709862 23.7368306,42.9615826 C21.7581421,40.858555 18.9006557,43.2588303 16.5076503,42.5658716 C11.7179235,42.0196789 6.75540984,38.3486697 6.95420765,33.1096789 C7.31650273,29.9681422 8.31420765,26.0110321 11.6993443,24.8907798 L11.6993443,24.8907798 Z M15.080765,28.515344 C13.3268852,28.6472477 10.4991257,28.4670413 10.0142077,30.6648165 C9.62775956,34.3934174 13.1169399,36.9757569 16.1695082,38.2687844 C17.3381421,38.8651376 17.6279781,37.0240596 18.5625137,36.8475688 C20.472459,38.7945413 24.6397814,37.0240596 24.2663388,34.2076376 C24.0619672,29.7340596 18.919235,27.8706881 15.080765,28.515344 Z" id="Shape"></path>
                    <path d="M55.4255738,66.9234633 C56.5013115,66.9754817 57.6197814,67.1724083 58.649071,67.4956651 C59.013224,68.4301376 58.5245902,69.6952982 59.5148634,70.3566743 C64.9957377,75.2594037 70.7367213,79.8648853 76.6634973,84.2232798 C79.8981421,86.3950459 83.495082,87.9258716 86.9062295,89.7799541 C88.6768306,91.0358257 88.5356284,93.6961927 87.3298361,95.3143349 C83.9892896,100.153899 79.3128962,103.876927 74.6179235,107.321284 C73.5551913,108.138716 73.5291803,106.018968 72.4664481,106.318073 C69.2689617,106.659908 67.7993443,103.373463 66.0045902,101.385619 C64.3547541,100.038716 63.4183607,97.0922477 65.3357377,95.570711 C66.5396721,95.4276606 67.5448087,94.6956881 68.3734426,93.8466743 C63.2994536,89.9118578 58.6360656,85.427133 54.8347541,80.2290138 C53.4097268,79.1069037 52.5402186,77.4386009 52.4491803,75.6253899 C52.5829508,73.9570872 54.4780328,73.0430505 54.5913661,71.3654587 C53.8537705,70.0204128 53.695847,67.5365367 55.4255738,66.9234633 L55.4255738,66.9234633 Z M56.707541,75.6216743 C60.9120219,81.9437615 66.6381421,87.4595642 73.1928962,91.2216055 C75.0619672,94.6603899 71.3145355,96.6166514 69.1760656,98.5060321 C69.9062295,101.199839 72.8751913,101.788761 75.2087432,101.757179 C78.6310383,99.5947018 81.9975956,96.9213303 84.1379235,93.5048394 C74.3095082,88.8844954 66.179235,81.4848853 58.0285246,74.4382569 C57.2834973,73.6951376 56.9472131,75.0977752 56.707541,75.6216743 Z" id="Shape"></path>
                    <path d="M124.343388,76.0229587 C128.598033,74.1075688 133.924699,76.8069495 135.253115,81.1969266 C136.466339,85.077867 135.947978,89.8579817 132.964153,92.8286009 C130.123388,96.0407339 125.067978,97.4452294 121.134754,95.4945413 C119.791475,94.7867202 119.066885,93.1927294 119.230383,91.7083486 C112.060656,92.1635092 104.835191,92.8694725 97.7137705,93.2874771 C96.7346448,92.1709404 96.3723497,89.7427982 97.6320219,88.6894266 C104.651257,88.106078 111.871148,88.0094725 118.723169,86.2538532 C119.029727,86.3913303 119.334426,86.5325229 119.637268,86.6830046 C118.790055,82.6590138 120.27082,77.6745413 124.343388,76.0229587 L124.343388,76.0229587 Z M125.489727,80.3794954 C123.182186,80.6730275 121.643825,83.1680505 122.329399,85.3844037 C122.347978,88.5259404 124.93235,90.7237156 127.799126,91.3237844 C130.684481,90.6011009 133.415628,87.8738532 133.155519,84.7453211 C132.523825,81.3102523 128.642623,79.7422706 125.489727,80.3794954 Z" id="Shape"></path>
                </g>
            </g>
        </g>
    </g>
</svg>