<?xml version="1.0" encoding="UTF-8"?>
<svg width="890px" height="1130px" viewBox="0 0 890 1130" version="1.1" xmlns="http://www.w3.org/2000/svg" xmlns:xlink="http://www.w3.org/1999/xlink">
    <!-- Generator: Sketch 43.2 (39069) - http://www.bohemiancoding.com/sketch -->
    <title>IMG_4719</title>
    <desc>Created with Sketch.</desc>
    <defs></defs>
    <g id="Page-1" stroke="none" stroke-width="1" fill="none" fill-rule="evenodd">
        <g id="IMG_4719" transform="translate(445.000000, 564.500000) rotate(-270.000000) translate(-445.000000, -564.500000) translate(-120.000000, 119.000000)" fill-rule="nonzero" fill="#1B1B1C">
            <g id="#1b1b1cff">
                <path d="M753.26,24.19 C770.02,11.89 790.62,7.13 809.94,0.63 C820.39,3.16 813.87,16.74 805.68,17.75 C776.35,26.47 740.66,37.9 730.62,70.52 C721.7,104.92 741.94,138.92 765.1,162.9 C774.06,172.37 761.64,183.75 752.32,186.29 C725.95,195.44 699.45,212.2 689.75,239.73 C681.96,259.08 689.04,280.88 701.36,296.63 C717.69,318.72 743.1,331.08 767.16,342.8 C774.68,346.03 769.63,362.17 761.43,356.61 C722.26,336.98 677.85,306.34 676.34,257.9 C676.5,215.42 713.44,183.6 750.55,169.81 C732.65,147.72 718.8,121.04 718.17,92.06 C716.49,65.3 730.4,38.24 753.26,24.19 Z" id="Shape"></path>
                <path d="M1022.46,77.3 C1030.82,74.83 1032.09,85.86 1027.54,90.6 C1013.83,106.08 998.59,121.24 990.93,140.89 C983.42,159.92 990.17,185.79 1010.51,193.5 C1017.24,194.95 1015.26,206.68 1009.31,207.32 C981.27,196.5 972.38,159.69 982.53,133.52 C991.14,112.06 1006.33,93.35 1022.46,77.3 Z" id="Shape"></path>
                <path d="M896.54,109.55 C905.56,103.1 914.14,94.84 925.18,92.16 C934.54,89.84 937.18,107.87 927.03,107.15 C876.36,122.46 861.04,197.34 901.19,231.8 C909.07,235.91 913.91,249.68 902.88,253.03 C871.51,269.44 866.41,314.57 882.63,343.45 C894.53,364.84 919.48,378.99 944.06,376.7 C952,375.37 956.07,389.5 948.83,392.08 C910.63,395.11 873.33,366.23 866.18,328.66 C858.81,297.57 866.42,260.23 893.54,240.81 C860.15,205.13 860.54,143.23 896.54,109.55 Z" id="Shape"></path>
                <path d="M610.52,319.33 C616.56,324.24 610.08,330.48 606,333.98 C582.95,355.6 554.95,379.8 554.42,414.01 C553.36,423.64 560.02,431.08 562.69,439.73 C576.45,440.71 590.23,437.87 604.02,437.6 C608.79,438.27 608.98,430.68 613.71,431.51 C637.29,434.86 655.64,452.01 676.09,462.33 C690.79,458.26 694.02,475.41 696.11,486.06 C697.98,502.88 702.22,523.96 687.5,536.45 C688.39,544.07 692.78,550.68 694.51,558.05 C678.6,587.31 664.89,621.53 634.89,639.83 C625.03,650.4 611.07,654.58 599.21,662.15 C637.03,709.58 682.28,757.18 743.06,772.76 C752.54,772.55 751.76,785.87 745.66,789.72 C722.13,796.66 697.77,802.5 673.01,801.17 C618.3,800.82 560.1,798.01 512.73,767.46 C490.15,755.74 469.48,740.47 451.79,722.21 C447.32,718.18 447.06,708.32 439.28,709.56 C374.03,719.3 307.11,719.43 242.29,706.79 C198.54,702.49 155.97,690.03 112.46,684.75 C87.21,677.64 60.93,671.74 36.19,662.11 C29.11,659.6 17.07,658.06 18.13,648.01 C14.06,642.27 1.04,647.34 0.63,637.97 C2.47,624.16 14.61,615.19 23.82,605.95 C25.15,601.88 22.44,596.9 25.33,593.03 C29.53,592.04 33.12,594.82 36.85,596.25 C62.75,579.51 92.41,569.42 120.03,556.58 C159.38,540.62 197.54,521.37 237.99,508 C285.06,492.5 333.12,480.12 381.46,469.34 C380.19,445.29 391.95,423.11 408.22,406.22 C435.27,378.17 470.27,358.88 505.08,342.06 C531.1,329.4 560.57,327.74 587.82,318.8 C595.48,315.54 602.68,321.81 610.52,319.33 Z M468.68,375.66 C434.85,395.23 393.11,422 393.22,465.93 C427.76,458.23 462.87,452.91 497.66,446.81 C497.94,443.18 495.99,437.78 500.15,435.78 C506,435.18 505.17,443.85 509.22,445.65 C523.06,444.48 536.81,441.5 550.78,441.58 C544.56,430.7 541.16,417.66 544.08,405.22 C549.06,376.13 568.97,352.62 589.87,333.03 C547.74,341.53 504.54,350.42 468.68,375.66 L468.68,375.66 Z M610.27,447.38 C578.01,455.09 543.83,452.44 511.6,458.98 C519.73,492.51 526.07,526.52 531.57,560.59 C560.63,555.23 588.3,544.44 616.8,536.87 C623.62,534.24 632.14,532.86 636.02,525.92 C638.52,520.94 646.06,526.11 644.64,530.66 C642.79,538.64 635.18,543.58 627.78,545.81 C596.83,555.76 564.88,562.58 533.56,570.95 C536.66,607.32 533.4,646.73 515.17,678.98 C553.32,667.16 592.25,653.9 626.09,632.99 C656.64,618.66 670.25,584.36 681.38,554.67 C673.29,526.4 667.58,497.18 659.21,468.87 C657.76,460.66 649.25,457.85 643.05,453.95 C633.05,449.3 620.85,438.87 610.27,447.38 L610.27,447.38 Z M398.24,477.29 C393.19,480.13 388.64,486.77 382.58,481.61 C348.4,488.03 315.01,498.76 281.2,507.19 C226.65,520.57 176.09,545.15 125.43,568.63 C134.69,602.77 128.78,638.12 120.53,671.79 C175.42,682.86 230.34,694.55 285.99,701.19 C360.45,707.97 436.15,702.9 507.5,680.93 C505.09,673.08 511.36,667.7 514.13,661.15 C522.7,632.76 529.02,602.57 523.96,572.9 C505.5,575.17 487.65,581.28 469.17,583.13 C466.59,580.14 465.9,574.79 470.61,573.55 C487.41,567.8 505.71,567.47 522.59,562.06 C516.01,527.75 511.27,492.87 500.8,459.47 C466.48,464.47 431.92,468.76 398.24,477.29 L398.24,477.29 Z M672.29,475.26 C676.53,490.78 678.67,506.94 684.16,522.07 C688.71,519.38 688.31,512.7 688.72,508 C687.9,495.29 689.69,475.89 672.29,475.26 L672.29,475.26 Z M46.41,604.58 C45.08,610.43 51.22,613.4 53.12,618.05 C51.88,623.77 49.37,630.23 53.44,635.49 C58.42,640.89 50.51,646.33 52.48,652.32 C70.87,659.97 90.08,665.66 109.57,669.66 C120.06,639 122.82,604.93 114.94,573.34 C91.68,582.73 68.21,592.1 46.41,604.58 L46.41,604.58 Z M536.42,685.54 C520.03,695.08 500.36,693.74 483.44,701.56 C475.1,704.55 466.28,705.55 457.63,707.18 C480.81,738.37 516.63,758.32 552.03,773.04 C589.07,786.39 628.98,788.55 668.01,788.79 C686.86,788.95 706.01,787.81 724.11,782.17 C675.16,761.06 632.42,725.8 602.17,681.9 C599.07,676.26 595.49,670.75 594.13,664.35 C575.38,672.63 555.82,678.97 536.42,685.54 Z" id="Shape"></path>
                <path d="M729.41,385.34 C740.96,384.38 735.71,398.82 729.19,402.17 C710.49,413.3 688.13,415.18 667.41,420.59 C658.2,423.94 655.29,406.44 664.56,405.56 C686.8,400.94 708.64,394.42 729.41,385.34 Z" id="Shape"></path>
                <path d="M828.57,414.42 C841.29,410.58 839.68,429.5 829.99,432.03 C785.71,446.74 738.26,448.75 693.19,459.28 C687.77,456.94 685.21,447.31 691.38,444.27 C699.95,441.01 708.56,436.37 718.01,438.43 C755.1,432.06 793.29,428.24 828.57,414.42 Z" id="Shape"></path>
                <path d="M770.23,481.67 C780.06,482.28 776.08,494.81 769.37,497.39 C757.33,502.63 743.84,503.23 731.46,507.62 C722.23,511.55 719.05,493.63 728.38,492.33 C742.42,489.21 756.37,485.5 770.23,481.67 Z" id="Shape"></path>
                <path d="M914.65,506.52 C919.44,502.06 928.96,505.42 927.64,512.48 C926.61,522.96 915.76,525.67 907.19,527.41 C855.7,543.84 801,544.51 748.93,557.96 C741.76,557.5 741.35,548.94 742.55,543.51 C754,537.56 767.65,538.04 780.19,536.1 C825.3,527.87 871.71,523.46 914.65,506.52 Z" id="Shape"></path>
                <path d="M984.27,523.24 C988.79,518.38 994.37,526.69 992.35,531.23 C988.58,541.38 978.68,548.46 977.61,559.82 C973.61,584.34 978.39,613.75 999.54,629.39 C1006.63,632.52 1012.77,640.56 1007.04,647.91 C992.39,672.28 982.93,702.39 992.85,730.25 C1008.19,761.15 1047.1,770.68 1078.51,762.29 C1094.08,757.94 1110.02,753.68 1123.98,745.27 C1131.25,746.68 1131.3,756.2 1124.86,758.9 C1098.83,772.73 1068.69,779.77 1039.2,776.94 C1009.84,771.49 983.33,747.63 979.47,717.22 C974.88,691.09 983.64,665.21 995.45,642.32 C962.44,614.15 951.85,555.86 984.27,523.24 Z" id="Shape"></path>
                <path d="M290.35,530.85 C319.92,525.89 349.57,548.61 355.66,577.39 C364.94,606.11 353.31,641.76 325.18,655.16 C304.72,664.95 271.84,666.31 259.95,644.07 C235.19,627.08 225.4,589.36 239.81,562.73 C250.96,545.33 270.49,534.95 290.35,530.85 L290.35,530.85 Z M247.91,569.9 C234.82,593.59 251.3,623.54 272.83,636.15 C277.66,640.76 287.75,640.28 288.89,647.92 C305.57,650.83 322.55,643.94 335.02,633.04 C360.52,609.74 347.1,564.75 317,552.03 C293.75,540.97 264.19,551.34 247.91,569.9 Z" id="Shape"></path>
                <path d="M400.38,538.23 C410.16,537.66 405.99,554.79 398.35,553.94 C393.97,550.26 392.68,538.72 400.38,538.23 Z" id="Shape"></path>
                <path d="" id="Shape"></path>
                <path d="M712.11,606.08 C745.08,595.59 779.86,591.32 812.88,581.4 C819.94,581.48 818.25,589.01 818.68,593.67 C822.7,600.77 814.98,606.16 811.93,611.82 C806.3,622.83 809.28,635.69 812.15,647.06 C818.78,669.76 833.48,692.96 857.64,699.38 C864.4,701.55 862.59,709.74 859.03,714 C838.02,741.83 821.28,776 825.41,811.83 C828.18,834.53 844.09,853.73 864.17,863.77 C885.41,875.99 911.22,876.43 934.83,873.03 C944.02,874.14 940.63,888.45 932.86,888.91 C903.78,893.28 872.27,887.58 848.6,869.48 C823.07,852.63 810.17,820.14 814.16,790.22 C818.03,762.46 828.17,735.65 843.55,712.23 C809.35,689.28 789.85,642.36 801.87,602.46 C772.49,608.38 742.41,611.73 713.86,621.13 C706.42,622.17 705.53,608.19 712.11,606.08 Z" id="Shape"></path>
                <path d="M411.92,605.02 C407.64,600.71 404.58,586.72 414.2,588.56 C423.09,591.45 416.84,601.38 411.92,605.02 Z" id="Shape"></path>
                <path d="M418.73,627.63 C430.15,623.29 431.87,647.29 420.41,644.89 C418.9,639.35 417.21,633.33 418.73,627.63 Z" id="Shape"></path>
            </g>
        </g>
    </g>
</svg>