<?xml version="1.0" encoding="UTF-8"?>
<svg width="1293px" height="639px" viewBox="0 0 1293 639" version="1.1" xmlns="http://www.w3.org/2000/svg" xmlns:xlink="http://www.w3.org/1999/xlink">
    <!-- Generator: Sketch 52.5 (67469) - http://www.bohemiancoding.com/sketch -->
    <title>Untitled 2</title>
    <desc>Created with Sketch.</desc>
    <g id="Page-1" stroke="none" stroke-width="1" fill="none" fill-rule="evenodd">
        <g id="Group-3">
            <g id="Group-2">
                <g id="venn-diagram">
                    <g id="#ffffffff" transform="translate(473.000000, 351.000000)" fill="#FFFFFF">
                        <path d="" id="Path"></path>
                        <path d="" id="Path"></path>
                        <path d="" id="Path"></path>
                        <path d="" id="Path"></path>
                        <path d="M0.7,135.73 C1.8,136.79 2.89,137.88 3.98,138.98 C3.37,140.2 2.74,141.41 2.11,142.64 C1.61,140.33 1.14,138.03 0.7,135.73 Z" id="Path"></path>
                    </g>
                    <g id="#000000ff" fill="#000000">
                        <path d="M251.01,1.48 C283.83,1.24 315.97,8.67 347.79,15.5 C348.41,16.07 349.03,16.65 349.66,17.23 C387.23,28.54 422.04,47.57 452.74,71.81 C472.19,57.13 494.31,45.62 515.63,34.84 C557.27,16.95 601.7,5 646.74,0.83 C654.63,1.75 662.72,0.88 670.53,2.37 C675.27,1.72 679.65,3.59 684.41,3.39 C686.11,5.01 687.99,6.42 689.9,7.78 C690.83,12.8 685.53,13.44 681.79,12.89 C681.77,13.61 681.77,14.32 681.77,15.04 C688.33,15.7 695.31,15.71 701.32,18.76 C701.59,18.66 702.15,18.46 702.43,18.36 C724.53,23.35 742.23,38.63 757.4,54.58 C757.84,54.73 758.71,55.01 759.15,55.16 C774.16,73.05 791.32,89.77 801.85,111 C828.49,166.13 844.02,227.52 840.41,289.03 C840.73,316.42 832.26,344.35 813.34,364.61 C896.84,367.08 980.88,368.93 1064.03,378.88 C1066.63,379.2 1068.86,381.33 1070.38,383.24 C1070.57,383.9 1070.95,385.23 1071.14,385.9 C1070.51,387.85 1069.92,389.81 1069.35,391.78 C1064.04,392.07 1058.77,391.04 1053.46,391.41 C1051.85,390.43 1049.98,389.82 1048.84,388.25 C1011.45,383.26 973.7,380.3 936.03,379.29 C935.85,379.1 935.49,378.73 935.31,378.55 C892.27,376.82 849.25,373.95 806.12,373.5 C803.76,377.45 800.09,380.21 796.95,383.47 L796.71,383.23 C785.5,395.16 770.87,403.01 756.93,411.21 C756.42,411.3 755.39,411.48 754.88,411.56 C749.91,415.42 743.61,416.71 738.07,419.48 C737.41,419.45 736.78,419.42 736.15,419.4 C736.08,419.75 735.96,420.45 735.89,420.8 C718.54,424.48 700.66,430.72 682.38,431.85 C682.07,432.11 681.44,432.61 681.12,432.86 C679.74,433.02 678.37,433.18 677.01,433.35 C677.92,458.69 673.39,483.89 665.75,508.01 C665.45,508.31 664.84,508.9 664.53,509.19 C654.15,541.92 632.92,569.44 608.55,592.95 C599.31,598.95 590.88,606.85 580.1,610.64 L580.73,611.03 C556.69,623.62 530.51,630.74 504.17,636.54 C503.99,636.3 503.64,635.84 503.46,635.61 C483.17,639.77 461.93,635.58 441.43,638.72 C439.82,637.97 438.24,637.21 436.67,636.42 C417.2,635.32 397.69,632.73 378.48,629.48 C334.75,619.21 292.51,600.52 257.42,571.91 C253.75,567.53 249.09,564.12 244.71,560.49 C203.83,521.62 176.7,462.43 191.5,405.76 C148.75,395.15 106.96,378.63 71.53,352.15 C41.92,327.98 18.46,295.28 7.88,258.61 C-15.48,198.1 19.58,134.74 60.05,90.92 C60.29,90.53 60.76,89.76 61,89.37 C62.8,87.84 64.29,86 65.57,84.02 C65.81,84.19 66.3,84.52 66.54,84.68 C67.33,83.72 68.12,82.76 68.91,81.81 C71.3,82.73 73.72,83.59 76.19,84.26 C80.49,87.55 78.45,92.71 74.77,95.53 C60.42,101.23 52.03,116.53 42.81,128.41 C22.92,154.51 11.45,187.04 11.78,219.94 C14.54,268.94 40.54,315.06 78.8,345.24 C112.7,370.95 152.83,387.21 193.87,397.64 C200.7,376.55 212.86,357.73 226.18,340.18 C249.74,309.92 279.72,282.58 316.9,270.79 C333.75,264.26 351.59,260.87 369.36,257.98 C367.83,238.76 368.96,219.38 373.37,200.54 C386.36,154.1 409.84,108.09 447.36,76.69 C382.17,22.9 294.48,-0.1 210.98,9.03 C160.64,19.18 111.55,39.94 71.69,72.72 C58.67,83.1 49.28,96.99 39.92,110.55 C39.23,109.46 38.55,108.37 37.87,107.29 C46.52,92.46 56.63,75.82 70.6,66.65 C85.28,53.32 104.33,41.83 121.87,33.83 C124.19,32.13 126.58,30.33 129.3,29.39 C166.6,10.58 208.9,-0.4 251.01,1.48 Z M629.47,11.15 C585.34,16.26 541.47,29.2 502.19,50.13 C486.67,57.16 472.18,66.06 459.11,76.9 C483.17,97.57 499.92,125.01 513.67,153.23 C529.51,188.27 531.64,228.89 522,265.89 C528.34,267.47 534.62,269.31 540.81,271.38 C541.05,271.35 541.51,271.3 541.74,271.27 C557.92,277.1 573.95,282.55 589.39,290.41 C589.56,290.68 589.92,291.24 590.1,291.51 C599.13,295.79 606.47,303.09 614.25,308.71 C620.76,316.62 629.22,323.47 635.63,332.27 C641.79,340.36 648.31,348.35 653.04,357.37 C662.29,357.87 671.76,357.52 680.82,359.41 C681.03,359.23 681.47,358.87 681.69,358.69 C686.53,360.17 707.33,357.63 701.19,362.24 C702.42,362.31 703.62,362.58 704.85,362.8 C704.97,362.63 705.2,362.29 705.32,362.12 C705.64,362.43 706.29,363.07 706.62,363.38 C706.95,362.95 707.6,362.08 707.92,361.65 C706.33,362.05 704.94,362.15 705.27,360.16 C717.48,361.88 734.24,357.71 743.63,363.26 L743.84,361.52 C744.77,361.51 746.62,361.48 747.55,361.46 C747.52,362.32 747.47,364.05 747.44,364.91 C747.66,364.94 748.1,365.02 748.32,365.05 C748.03,363.69 747.74,362.32 747.48,360.97 C761.11,362.11 774.74,363 788.41,363.46 C788.48,364.31 788.63,366.01 788.71,366.85 C788.9,366.86 789.29,366.88 789.48,366.89 C789.26,365.63 789.05,364.37 788.85,363.12 C790.33,363.64 791.81,364.2 793.28,364.79 C793.37,364.45 793.54,363.77 793.62,363.43 L795.25,364.08 C795.03,364.5 794.6,365.33 794.38,365.75 C794.71,366.03 795.37,366.59 795.7,366.88 C795.7,366.08 795.7,364.49 795.7,363.69 C798.54,363.76 801.39,363.85 804.24,363.99 C828.48,337.44 835.91,300.28 832.77,265.34 C833.42,256.97 832.62,248.4 831.48,240.13 C831.15,219.42 824.44,199.65 820.58,179.45 C820.3,179.47 819.73,179.5 819.44,179.52 C819.52,176.44 818.99,173.38 817.57,170.63 C817.54,170.11 817.49,169.07 817.46,168.55 C816.7,167.7 815.96,166.85 815.23,166.01 C815.26,165.19 815.34,163.56 815.38,162.74 C804.53,131.99 790.56,101.41 767.67,77.29 C750.78,58.72 733,39.65 709.53,29.44 C690.01,21.16 668.29,24.74 648.17,20.44 C647.8,20.06 647.04,19.3 646.66,18.91 C646.93,18.4 647.46,17.37 647.72,16.86 C658.47,13.89 669.66,12.81 680.73,14.6 C680.46,14.1 679.92,13.1 679.64,12.6 C663.27,9.22 645.97,7.99 629.47,11.15 Z M410.29,132.3 C410.4,132.49 410.62,132.89 410.74,133.09 C402.03,143.88 397.6,157.58 391.67,170.05 C392.18,170.41 393.19,171.11 393.7,171.47 C393.72,172.06 393.77,173.25 393.79,173.84 C392.97,173.07 392.14,172.28 391.33,171.51 C381.29,198.52 375.26,227.62 378.81,256.52 C417.54,252.51 456.7,253.7 495.07,260.39 C497.67,259.43 500.43,259.16 503.19,259.32 C505.8,262.89 509.99,264.24 514.26,264.38 C534.22,197.74 502.57,126.28 453.17,81.29 C435.59,95.31 422.11,113.29 410.29,132.3 Z M379.9,264.7 C381.05,269.61 382.46,274.46 383.79,279.32 C395.69,273.01 408.1,267.77 420.35,262.24 C406.85,262.15 393.38,263.97 379.9,264.7 Z M446.45,262.11 C445.45,263.6 444.44,265.1 443.45,266.6 C442.3,266.51 441.14,266.43 440,266.36 C439.58,266.01 438.75,265.31 438.34,264.96 C419.48,268.1 403.24,279.27 384.94,284.25 C385.28,284.54 385.97,285.12 386.31,285.41 C387.25,288.73 388.57,291.92 390.02,295.05 C412.27,285.63 434.31,274.56 456.02,264.76 C456.07,264.42 456.17,263.75 456.22,263.41 C453.41,263.19 450.59,263.08 447.78,263.15 C447.45,262.89 446.78,262.37 446.45,262.11 Z M363.65,267.42 C317.82,273.74 272.97,295.05 243.86,331.86 C226.6,351.93 210.34,373.94 202.67,399.6 C259.04,410.14 318.9,412.02 373.47,392.37 C373.71,392.39 374.18,392.44 374.42,392.47 C391.97,385.64 409.16,378.38 425.24,368.56 C407.15,350.22 393.47,327.88 383.33,304.31 C382.1,303.9 380.88,303.48 379.67,303.07 C380.15,301.62 380.65,300.19 381.16,298.76 C376.88,288.26 372.69,277.46 371.44,266.1 C368.8,266.26 366.11,266.36 363.65,267.42 Z M470.2,270.93 C469.28,270.56 468.37,270.2 467.46,269.84 C467.18,269.14 466.62,267.75 466.34,267.05 C464.28,267.93 461.89,268.2 460.22,269.8 C436.76,278.42 415.04,291.17 392.09,300.99 C395.68,308.9 399.62,316.64 403.67,324.32 C403.88,323.06 404.1,321.8 404.33,320.55 C418.96,310.67 435.44,304.06 450.58,295.09 C451.1,294.99 452.15,294.79 452.68,294.69 C467.88,286.13 484,279.54 500.13,272.88 C500.61,273.14 501.56,273.65 502.04,273.91 C502.41,273.75 503.15,273.42 503.51,273.26 C504.47,273.79 505.44,274.33 506.42,274.87 C506.33,276.44 506.26,278.02 506.16,279.61 C503.21,281.24 500.27,282.95 497.72,285.18 C496.49,284.13 495.28,283.07 494.08,281.99 C488.79,284.05 483.38,285.89 478.33,288.48 C478.1,288.46 477.66,288.41 477.43,288.39 C477.12,288.72 476.49,289.39 476.17,289.72 C451.55,298.95 430.19,314.44 406.88,326.14 C406.25,325.86 404.98,325.32 404.35,325.04 C409.28,334.18 415.31,342.66 421.46,351.03 C422.39,349.75 423.3,348.47 424.21,347.18 C435.86,340.36 447.83,334.09 459.63,327.56 C459.83,327.57 460.21,327.58 460.4,327.58 C468.87,323.11 477.3,317.82 486.58,315.51 C489.71,311.76 492.67,307.86 495.24,303.7 C496.29,304.42 495.68,305.86 496.02,306.9 L496.35,306.95 C496.1,304.36 497.68,303.13 500.15,303.43 C500.52,302.07 499.65,300.86 499.09,299.71 C499.93,301.8 497.25,303.7 496.17,301.48 C494.53,302.74 493.22,304.55 491.02,304.78 C490.56,304.59 489.65,304.19 489.19,304 C489.09,303.06 488.9,301.2 488.8,300.27 C467.52,309.65 446.24,319.08 426.23,331.06 C421.66,333.13 417.19,336.47 411.88,335.33 C412.02,334.62 412.3,333.2 412.43,332.48 C442.36,315.42 473.18,297.75 505.6,286.47 C507.38,281.56 510.1,277.04 511.36,271.94 C507.96,271.77 504.54,271.37 501.51,269.71 C497.21,272.71 492.11,274.41 488.02,277.78 C487.36,277.53 486.02,277.04 485.35,276.8 C485.13,275.65 484.93,274.49 484.74,273.35 C485.67,272.44 486.6,271.54 487.53,270.62 C459.26,279.66 434.44,297.93 406.55,306.96 C406.52,306.29 406.46,304.97 406.42,304.31 C414.95,296.36 427.1,293.81 436.24,286.91 C436.85,286.99 438.07,287.15 438.68,287.23 C447.55,280.94 458.11,277.76 467.55,272.51 C467.78,272.52 468.24,272.53 468.47,272.54 C473.2,270.43 477.69,267.8 482.61,266.14 C478.11,264.9 471.63,265.8 470.2,270.93 Z M507.38,266.04 C507.23,270.62 511.82,264.84 507.38,266.04 Z M512.34,272.04 C512.45,275.37 515.32,270.51 512.34,272.04 Z M519.4,272.97 C518.74,274.5 518.09,276.04 517.41,277.57 C517.43,277.81 517.46,278.29 517.47,278.52 C504.82,313.02 476.63,338.9 449.03,361.6 C448.9,361.43 448.65,361.1 448.52,360.93 C445.38,363.55 442.23,366.16 438.81,368.41 C442.57,372.4 447.01,375.69 451.63,378.84 L451.4,379.44 C461.06,385.12 470.48,392.14 480.59,397.52 C481.03,397.47 481.46,397.42 481.91,397.37 C511.13,414.78 545.19,423.7 578.94,426.83 C608.68,431.6 638.93,431 668.76,427.2 C667.76,424.51 668.51,420.29 666.48,418.59 C667.52,417.06 666.18,415.41 666.11,413.82 C664.09,412.1 664.4,407.35 664.51,404.36 C662.37,399.07 661.88,393.31 659.78,388.01 C657.05,383.35 654.14,378.02 652.23,372.63 C652.44,371.68 652.67,370.74 652.91,369.8 C652.04,369.51 651.18,369.22 650.34,368.93 C650.72,368.45 651.5,367.5 651.89,367.02 C636.76,364.71 621.23,365.75 606.15,363.46 C581.68,360.84 556.71,359.58 532.83,353.65 L534.69,352.8 C534.27,351.92 533.03,351.17 533.92,350.05 L532.7,350.96 C532.33,349.54 531.96,348.14 531.57,346.74 C529.76,347.27 527.95,347.8 526.14,348.3 C537.92,364.83 558.51,373.2 577.34,377.72 C577.39,379.12 577.89,379.85 578.84,379.9 L578.16,378.34 C582.49,378.72 583.06,384.04 584.42,387.3 C583.22,389.15 582.04,391.02 580.87,392.89 C579.81,392.27 577.53,392.86 577.81,390.97 C577.56,391.14 577.07,391.47 576.82,391.64 C564.21,383.37 549.15,379.67 536.38,371.56 C526.72,366.04 520.38,356.15 511.84,349.59 C511.41,348.34 510.99,347.12 510.56,345.89 C510.72,343.51 510.76,341.12 510.91,338.74 C512.16,337.97 513.42,337.2 514.66,336.41 C528.3,338.18 542.12,330.51 553.42,323.98 C554.84,324.12 556.27,324.28 557.7,324.42 C557.75,324.83 557.86,325.65 557.91,326.06 C558.36,325.85 559.24,325.43 559.69,325.22 C560.92,326.99 562.21,328.73 563.45,330.51 C563.11,333.94 561.46,336.98 558.96,339.31 C558.49,339.06 557.56,338.54 557.09,338.29 C556.92,338.72 556.58,339.58 556.4,340.01 C555.85,339.66 554.73,338.97 554.18,338.63 C552.24,339.63 550.28,340.55 548.38,341.61 C546.69,341.7 544.99,341.8 543.31,341.92 C543.38,342.57 543.51,343.89 543.58,344.54 C547.8,345.85 552.1,346.91 556.3,348.32 C556.7,347.95 557.5,347.21 557.9,346.84 C557.85,347.26 557.75,348.11 557.69,348.53 C586.61,352.39 615.65,356.18 644.87,356.7 C645.08,358.53 646.84,358.44 648.2,358.7 C648.23,356.92 645.65,356.7 644.73,355.47 C644.55,355.59 644.19,355.83 644.01,355.95 C627.6,333.84 608.36,311.33 584.07,296.56 C582.48,298.11 580.6,299.28 578.79,300.54 C573.25,296.28 568.79,291.41 562.51,288.36 C562.44,288.75 562.31,289.51 562.25,289.89 C559.24,286.7 555.5,284.95 551.38,283.57 C551.18,283.58 550.78,283.59 550.58,283.6 C540.66,278.79 529.95,276.03 519.4,272.97 Z M507.44,284.88 C506.05,289.49 512.07,283.93 507.44,284.88 Z M501.33,296.19 C498.81,303.3 506.09,296.51 501.33,296.19 Z M423.42,353.09 C426.6,356.64 429.97,360.01 433.38,363.35 C448.78,352.91 463.36,341.08 475.97,327.39 C457.86,334.88 441.54,345.8 423.42,353.09 Z M572.01,351.39 C569.85,354.93 575.83,352.25 572.01,351.39 Z M773.13,364.79 C774.96,369.74 778.32,362.06 773.13,364.79 Z M657.84,366.77 C667.87,385.12 673.46,405.63 676.44,426.27 C719.87,418.93 764.98,405.88 796.09,372.77 C750.04,370.31 703.95,368.89 657.84,366.77 Z M200.22,407.23 C182.33,479.02 231.45,548.6 290.5,584.53 C290.71,584.52 291.14,584.5 291.35,584.48 C319.27,603.48 351.71,614.76 384.4,622.54 C384.66,622.49 385.16,622.4 385.41,622.35 C419.1,629.68 453.87,633.56 488.22,629.56 C488.21,629.29 488.18,628.75 488.17,628.48 C496.24,629.51 504.64,628.2 512.52,626.34 C512.77,626.39 513.28,626.5 513.53,626.55 C549.4,619.15 585.13,604.7 611.78,578.74 C640.23,551.96 659.5,514.9 665.62,476.53 C665.79,476.27 666.14,475.76 666.32,475.5 C668.04,468.21 668.99,460.78 669.68,453.33 L668.01,453.74 C668.43,453.38 669.27,452.66 669.69,452.3 L668.24,451.9 C669.09,446.31 669.49,440.71 669.79,435.07 C663.37,432.94 657.12,436.37 650.62,436.34 C648.9,437.11 646.95,436.69 645.14,436.79 C642.28,436.88 637.65,438.67 635.86,436.79 C635.33,437.05 634.27,437.55 633.73,437.81 L633.45,436.88 C629.88,437.36 626.18,438.09 622.72,436.72 C621.83,437.22 620.95,437.73 620.08,438.24 C619.61,437.93 618.66,437.31 618.18,437 C605.48,439.26 592.77,435.29 580.02,435.87 C579.86,434.93 579.55,433.05 579.4,432.11 C581.68,432.47 583.97,432.83 586.25,433.28 C581.69,431.7 575.57,429.93 570.4,431.08 C573.13,431.23 575.86,431.42 578.57,431.79 C578.79,432.78 579.22,434.77 579.43,435.76 C525.24,430.48 472.12,409.52 430.6,373.79 C362.41,416.24 277.6,423.95 200.22,407.23 Z M795.03,376.73 C794.3,380.71 798.99,375.82 795.03,376.73 Z M562.22,377.25 C562.78,377.81 562.78,377.81 562.22,377.25 Z M795,380.03 C794.02,384.02 798.97,379.1 795,380.03 Z M791.16,381.3 C788.33,385.87 797.53,381.19 791.16,381.3 Z M492.92,408.28 C488.79,410.78 496.33,411.03 492.92,408.28 Z M496.55,410.96 C496.95,415.23 501.14,409.23 496.55,410.96 Z M718.25,420.1 L719.23,422.08 L716.91,421.13 C717.01,421.58 717.2,422.48 717.3,422.94 C718.65,422.51 720.01,422.1 721.36,421.67 C720.31,421.14 719.28,420.62 718.25,420.1 Z M527.2,421.97 C529.46,423.04 531.85,423.79 534.21,424.64 C533.92,424.28 533.34,423.57 533.05,423.21 C531.11,422.73 529.15,422.29 527.2,421.97 Z M707.25,424.22 C706.6,428.35 712.26,422.26 707.25,424.22 Z M690.94,428.5 C689.62,428.36 688.31,428.22 687.01,428.08 C687.68,428.67 688.36,429.26 689.05,429.86 C689.47,429.57 690.33,429 690.76,428.71 C692.34,430.02 694.26,428.03 696.01,427.86 C695.7,427.44 695.1,426.62 694.8,426.2 C693.51,426.97 692.22,427.73 690.94,428.5 Z M557.31,428.25 C557.52,428.74 557.95,429.71 558.17,430.19 C559.88,429.93 561.6,429.7 563.33,429.45 C561.31,429.04 559.31,428.65 557.31,428.25 Z M587.09,431.95 C587.11,432.39 587.14,433.26 587.16,433.7 C590.44,433.42 593.83,433.19 596.88,434.71 C597,434.44 597.25,433.91 597.37,433.64 C595.97,433.35 594.61,433.04 593.24,432.69 C591.81,432.84 590.39,432.99 588.98,433.18 C588.51,432.87 587.56,432.26 587.09,431.95 Z M612.74,435.26 C612.72,434.94 612.68,434.3 612.66,433.99 C607.85,431.83 607.91,436.93 612.74,435.26 Z" id="Shape" fill-rule="nonzero"></path>
                        <path d="M329.93,120.41 C330.97,120.49 332.01,120.58 333.06,120.66 C340.79,134.46 343.97,151.01 350.3,165.78 C352.84,170.03 350.42,174.72 349.7,179.11 C347.37,180.01 345.07,180.95 342.72,181.75 C342.1,181.43 340.86,180.79 340.24,180.47 C340.16,178.39 340.12,176.31 340.08,174.24 C340.52,173.86 341.41,173.1 341.85,172.72 C341.51,168.16 340.16,163.77 338.1,159.71 C333.86,162.09 329.82,164.92 326.41,168.4 C329.4,173.96 331.67,180.42 337.59,183.52 C337.51,185.99 337.46,188.47 337.23,190.93 C334.27,191.94 330.11,193.26 328.1,189.95 C317.61,176.43 312.56,159.53 307.61,143.33 C306.18,138.44 302.5,133.89 304.98,128.68 C306.75,128.31 308.51,127.91 310.28,127.5 C319.55,134.81 318.45,148.52 322.66,158.75 C326.81,156.35 330.96,153.93 335.33,151.92 C333.95,141.67 323.03,129.7 329.93,120.41 Z" id="Path"></path>
                        <path d="M279.44,142.64 C285.8,142.1 293.34,146.1 292.85,153.3 C291.89,154.42 290.95,155.57 290.01,156.71 C287.48,155.93 284.87,155.44 282.22,155.42 C280.25,161.98 278.62,171.28 285.39,175.66 C294.93,176.84 304.25,172.82 312.36,168.07 C314.36,170.09 315.2,172.72 314.96,175.55 C303.39,183.56 286.43,189.94 273.98,180.22 C267.85,168.54 267.34,150.61 279.44,142.64 Z" id="Path"></path>
                        <path d="M236.13,161.36 C238.93,154.55 246.38,150.47 253.56,151.27 C265.12,156.26 261.04,169.05 255.99,177.33 C256.75,178.12 257.51,178.91 258.28,179.7 C258.6,179.57 259.26,179.32 259.58,179.19 C260.26,179.85 260.94,180.51 261.62,181.17 C264.25,181.28 266.92,181.24 269.41,180.24 C270.05,180.28 271.32,180.38 271.96,180.42 C272.15,180.92 272.53,181.9 272.72,182.4 C273.14,182.61 273.98,183.04 274.41,183.26 C274.8,184.51 275.21,185.76 275.63,187.01 C275.32,187.16 274.68,187.45 274.36,187.6 C274.52,189.3 271.79,190.62 270.91,192.25 C269.46,191.6 268.02,190.95 266.59,190.29 C266.25,190.54 265.57,191.06 265.23,191.32 C262.85,191.22 260.47,191.12 258.1,191.07 C258.35,192.03 258.61,192.99 258.88,193.95 C258.27,194.13 257.04,194.48 256.43,194.66 C256.31,195.19 256.07,196.25 255.95,196.78 C255.15,196.98 253.54,197.39 252.74,197.59 C252.17,197.2 251.04,196.42 250.47,196.03 C250.16,196.23 249.54,196.64 249.23,196.85 C247.83,194.84 246.37,192.86 244.75,191.02 C244.63,189.99 244.52,188.96 244.4,187.93 C243.68,187.28 242.96,186.62 242.24,185.96 C239.13,178.43 238.38,170.12 234.66,162.85 C235.03,162.48 235.76,161.74 236.13,161.36 Z" id="Path"></path>
                        <path d="M196.42,153.59 C200.36,153.78 203.8,158.52 199.72,161.24 C188.94,163.38 179.03,168.55 170.56,175.5 C170.17,179.82 169.87,184.23 171,188.48 C179.26,187.01 186.26,181.67 192.93,176.82 C193.88,177.72 194.84,178.61 195.81,179.5 C195.85,181.19 195.88,182.88 195.89,184.57 C190.39,190.19 182.79,193 177.38,198.7 C178.06,199.02 179.42,199.67 180.1,199.99 C180.86,199.9 182.36,199.71 183.11,199.61 C183.45,199.9 184.12,200.46 184.46,200.75 C189.66,198.93 194.22,196 197.45,191.45 C198.44,191.29 199.44,191.14 200.44,190.99 C201.49,192.11 202.55,193.22 203.62,194.33 C203.48,200.19 198.73,203.77 194.15,206.46 C183.17,213.3 167.85,209.64 161.99,197.85 C158.06,191.15 160.37,182.02 154.44,176.4 C155.29,174.44 156.22,172.53 157.17,170.63 C162.99,168.12 168.41,164.79 174.33,162.49 C180.28,158.31 187.88,156.63 195.02,155.51 C195.37,155.03 196.07,154.07 196.42,153.59 Z" id="Path"></path>
                        <path d="M206.78,167.37 C209.63,164.95 213.16,163.75 216.77,163 C228.25,169.51 234.45,182.2 244.03,190.65 C243.92,193 242.81,194.97 241.59,196.92 C240.94,197.08 239.62,197.4 238.97,197.57 C237.12,196.27 235.23,195.06 233.36,193.81 C231.72,191.26 229.3,189.4 227.25,187.22 C224.93,186.79 222.91,187.76 220.89,188.77 C214.82,194.03 222.14,201.57 218.69,207.62 C215.82,210.79 210.36,208.76 208.56,205.45 C205.18,193.02 208.19,180 206.78,167.37 Z" id="Path"></path>
                        <path d="M122.23,180.19 C124.44,167.58 141.27,163.84 150.86,170.62 C151.22,172.8 151.52,174.99 151.76,177.19 C150.7,178.52 147.47,178.93 147.89,180.84 C147.6,180.76 147,180.62 146.71,180.54 C144.12,182.31 141.5,180.6 139.24,179.21 C139.05,179.35 138.68,179.64 138.5,179.79 C137.62,179.1 136.74,178.41 135.85,177.72 C126.9,191.02 145.82,198.76 148.66,210.14 C146.57,217.32 140.62,222.08 133.83,224.61 C131.71,223.93 129.67,223.03 127.74,221.94 C127.29,219.28 127.02,216.59 126.73,213.91 C127.95,213.15 129.18,212.4 130.39,211.63 C132.34,211.16 134.28,210.66 136.22,210.14 C130.04,201.09 120.79,192.14 122.23,180.19 Z" id="Path"></path>
                        <path d="M101.83,168.57 C103.21,168.26 104.59,167.97 105.98,167.68 C106.99,168.82 108.02,169.96 109.05,171.09 C108.53,172.98 108.47,175.14 106.6,176.25 C99.96,178.52 95.04,183.61 90.9,189.05 C91.27,191.51 90.28,195.55 92.79,196.73 C96.4,196.05 99.49,193.67 103.22,194.11 C103.42,193.53 103.82,192.37 104.03,191.79 C104.68,191.75 105.99,191.67 106.64,191.63 C107.16,190.78 107.68,189.94 108.2,189.1 C109.53,188.93 110.85,188.77 112.18,188.61 C119.38,195.74 108.58,199.82 103.82,203.34 C100.3,203.09 97.45,205.43 94.42,206.87 C97.36,210.14 101.67,210.89 105.86,210.9 C107.22,209.11 108.58,207.33 109.89,205.52 C111.28,205.58 112.67,205.65 114.06,205.73 C119.58,211.78 113.69,218.09 107.63,220.23 C96.4,223.81 84.02,215.44 82.05,204.02 C80.58,194.84 74.06,183.02 83.86,176.26 C85.06,176.36 86.26,176.45 87.45,176.53 C91.64,172.73 97.7,172.35 101.83,168.57 Z" id="Path"></path>
                        <path d="M786.73,175.26 C787.4,175.35 788.75,175.53 789.43,175.62 L789.56,174.09 C791,175.27 792.36,176.68 794.38,176.63 C797.22,188.91 790.9,201.6 793.4,214.01 C794.25,218.44 790.52,221.82 786.9,223.54 C777.49,219.7 769.79,212.83 762.07,206.41 C762.88,210.22 763.86,213.99 764.7,217.8 L765.4,217.59 C765.54,218.56 765.68,219.53 765.84,220.5 C764.92,222.56 764.03,224.63 763.05,226.67 C761.52,226.31 758.95,227.83 758.15,226.13 L757.82,226.9 C755.97,226.57 754.43,224.9 753.14,223.58 C752.98,223.68 752.65,223.9 752.49,224.01 C752.11,223.22 751.34,221.64 750.95,220.85 C746.13,229.1 739.96,238.07 729.88,239.76 C710.92,237.55 698.4,215.27 706.84,197.93 C708.67,184.08 726.53,176.78 737.49,185.29 C738.07,188.17 737.81,190.92 736.2,193.43 C734.68,192.92 731.57,194.76 731.4,192.3 C731,192.61 730.18,193.23 729.77,193.54 C727.96,193.43 726.19,193.28 724.87,191.91 C712.6,200.55 712.58,223.52 728.03,228.66 C731.93,226.68 734.37,222.88 737.19,219.68 C737.55,218.06 737.9,216.43 738.27,214.82 C735.36,214.01 733.57,216.83 731.37,218.18 C730.25,218.22 729.13,218.27 728.03,218.32 C727.6,219.1 727.18,219.89 726.78,220.68 C725.57,220.25 724.37,219.82 723.18,219.41 C721.79,216.91 721.04,214.14 720.69,211.32 C727.51,205.89 736.11,205.1 744.36,203.86 C746.75,205.69 748.64,208.04 750.5,210.4 C749.91,203.45 748.51,196.48 745.96,189.99 C746.74,188.45 747.52,186.91 748.32,185.38 C749.84,184.39 753.2,185.94 753.34,183.44 C764.51,187.47 768.37,201.27 779.6,205.53 C783.24,195.7 780.71,184.26 786.73,175.26 Z" id="Path"></path>
                        <path d="M49.38,176.17 C53.79,176.29 58.2,176.74 62.44,178.01 C62.5,178.47 62.61,179.4 62.67,179.86 C63.75,180.3 64.83,180.74 65.92,181.18 C66.79,182.48 67.66,183.77 68.56,185.06 C68.34,188.13 68.31,191.22 68.51,194.29 C66.12,199.78 63.5,205.68 59.28,209.9 C64.39,216.64 73.34,219.12 81.43,219.48 C82.76,220.26 84.12,221.01 85.48,221.77 C85.66,222.85 85.84,223.94 86.03,225.03 C77.08,232.99 62.07,224.91 53.1,219.36 C53.31,223.35 54.72,227.1 55.71,230.93 C54.78,232.43 53.88,233.94 53,235.48 C51.68,235.48 50.36,235.48 49.05,235.44 C48.98,235.69 48.84,236.18 48.77,236.43 C38.85,226.36 42.18,208.8 37.03,195.84 C36.25,195.35 35.46,194.87 34.67,194.39 C34.95,192.16 35.2,189.94 35.44,187.71 C40.43,184.14 43.08,177.96 49.38,176.17 Z M48.76,191.02 C48.54,195.69 49.17,200.35 50.7,204.77 C54.75,200.33 57.68,194.92 57.45,188.76 C55.93,188.63 54.58,186.82 53.08,186.17 C52.03,188.11 50.3,189.49 48.76,191.02 Z" id="Shape" fill-rule="nonzero"></path>
                        <path d="M652.27,188.25 C658.58,178.28 672.16,177.84 681.34,184.13 C680.92,184.84 680.08,186.24 679.66,186.95 C682.32,186.22 685,185.78 687.68,186.73 C694.16,202.69 693.24,221.44 700.64,237.45 C698.56,239.83 695.85,241.44 692.87,242.4 C691.81,241.18 690.95,239.76 689.39,239.15 C682.56,224.29 681.19,207.75 679.03,191.71 C678.67,192.24 677.96,193.3 677.61,193.83 C674.31,193.72 671.03,193.48 667.76,193.08 C667.61,192.47 667.31,191.25 667.16,190.65 C665.82,191.49 664.49,192.33 663.17,193.19 C662.93,196.7 662.91,200.32 664.48,203.56 C664.48,203.81 664.47,204.29 664.47,204.54 C668.64,213.11 679.3,218.32 679.66,228.3 C676.1,235.12 667.56,233.78 662.07,237.29 C659.44,236.12 656.4,235.61 654.38,233.41 C653.15,230.3 652.79,226.85 655.95,224.76 C656.22,224.37 656.74,223.6 657.01,223.21 C658.2,222.98 659.4,222.76 660.61,222.53 C661.53,222.92 662.45,223.3 663.4,223.69 L663.07,224.81 C664.19,225.11 665.32,225.42 666.46,225.73 C659.67,214.38 647.36,202.67 652.27,188.25 Z" id="Path"></path>
                        <path d="M605.59,193.2 C612.47,189.59 619.41,186.09 626.84,183.74 C628.27,184.71 629.7,185.68 631.15,186.64 C630.81,188.25 630.38,189.85 630.77,191.49 C629.19,191.36 628.65,192.1 629.16,193.71 C628.25,193.58 626.43,193.32 625.53,193.19 L625.73,194.19 C621.51,195.4 618.33,198.42 614.77,200.78 C614.47,204.51 614.2,208.28 614.87,211.98 C621.25,207.83 630.17,207.3 634.45,200.27 C636.85,200.38 638.75,201.82 640.51,203.32 C640.57,205.55 640.67,207.79 640.81,210.03 C640.52,209.81 639.95,209.37 639.66,209.15 C639.24,210.05 638.83,210.94 638.42,211.84 C630.74,212.92 626.03,219.84 619.08,222.42 C618.89,223.05 618.5,224.31 618.31,224.94 C620.79,228.13 624.56,229.4 628.33,230.38 C634.14,229.55 637.28,223.92 641.97,220.9 C643.19,221.49 644.44,222.06 645.7,222.62 C647.66,226.13 647.6,229.85 644.79,232.88 C644.27,233 643.23,233.24 642.71,233.36 C635.31,242.2 619.58,243.01 612.56,233.33 C605.14,226.06 605.56,215.13 603.57,205.66 C603.72,201.39 603.86,197.18 605.59,193.2 Z" id="Path"></path>
                        <path d="M568.6,199.92 C577.5,194.17 590.17,196.04 596.51,204.69 C608.25,218.45 605.78,239.1 592.76,250.68 C588.32,250.2 583.89,250.91 579.46,250.83 C578.2,249.11 576.94,247.4 575.66,245.71 C571.58,230.7 565.53,216.27 561.35,201.24 C562.98,200.32 564.62,199.41 566.26,198.5 C567.03,198.97 567.82,199.44 568.6,199.92 Z M578.02,207.79 C577.17,209.54 576.29,211.27 575.42,213 C577.86,220.99 580.91,228.86 584.38,236.13 C584.74,235.75 585.45,234.99 585.81,234.61 C587.75,234.21 588.49,236.49 589.84,237.41 C595.49,228.85 593.33,216.99 586.52,209.74 C584.66,208.99 582.84,208.17 581.03,207.33 C580.28,207.44 578.77,207.68 578.02,207.79 Z" id="Shape" fill-rule="nonzero"></path>
                        <path d="M445.45,460.53 C448.41,461.25 451.32,460.44 453.85,458.86 C455.52,458.73 456.54,459.98 457.71,460.95 C457.78,462.26 457.86,463.58 457.95,464.9 C457.37,465.93 456.81,466.97 456.25,468.02 C454.79,467.68 453.34,467.34 451.89,466.98 C443.16,470.23 433.87,472.11 425.73,476.92 C437.41,485.71 427.88,503.84 437.95,514.05 C441.19,515.18 443.27,518.16 444.28,521.34 C443.15,522.44 442.03,523.55 440.92,524.68 C421.37,521 421.5,497.81 421.11,482.07 C422.44,480.47 423.83,478.9 425.09,477.24 C415.97,478.86 407.78,487.33 398.4,484.7 C397.56,483.31 396.74,481.93 395.92,480.55 C396.42,479.57 396.93,478.59 397.44,477.62 C407.81,474.28 417.56,469.19 428.13,466.44 C428.31,466.16 428.68,465.61 428.86,465.33 C434.5,464.16 439.98,462.34 445.45,460.53 Z" id="Path"></path>
                        <path d="M462.45,469.71 C465.12,468.58 467.96,467.96 470.82,467.48 C481.66,473.76 484.63,487.08 494.12,494.85 C498.41,498.29 502.61,504.81 497.74,509.6 C497.22,509.84 496.17,510.33 495.64,510.57 C494.34,510.45 493.04,510.33 491.75,510.24 C489.42,503.55 483.79,497 476.22,501.75 C476.85,505.85 478.37,509.79 478.63,513.96 C477.67,515.24 476.75,516.55 475.84,517.86 C474.2,518.39 472.55,518.91 470.92,519.44 C458.83,506.6 466.71,485.89 462.45,469.71 Z M473.7,486.73 C474.14,489.03 474.61,491.33 475.11,493.64 C475.74,492.41 476.37,491.2 476.98,489.98 C475.89,488.88 474.8,487.79 473.7,486.73 Z" id="Shape" fill-rule="nonzero"></path>
                        <path d="M281.96,483.95 C291.16,477.36 303.7,478.34 314.52,477.4 C330.32,485.19 353.01,494.82 355.51,513.96 C348,525.35 335.61,534.06 322.33,537.09 C321.92,537.56 321.1,538.51 320.69,538.98 C320.3,538.79 319.51,538.4 319.11,538.2 C313.08,539.64 307.12,545.87 300.96,541.27 C294.85,529.16 291.73,515.75 287.31,502.96 C285.82,502.2 284.5,500.69 282.71,501.52 C280.73,495.82 281.97,489.81 281.96,483.95 Z M296.77,492.49 C299.88,504.06 302.07,516.27 307.86,526.82 C308.48,526.61 309.71,526.19 310.32,525.97 C312.17,526.6 314.01,527.27 315.9,527.8 C316.23,528.15 316.89,528.84 317.22,529.18 C318.37,528.86 319.52,528.25 320.73,528.71 C330.05,525.13 344.97,518.73 341.09,506.27 C332.07,497.79 321.97,489.72 309.8,486.4 C305.16,487.68 300.84,489.96 296.77,492.49 Z" id="Shape" fill-rule="nonzero"></path>
                        <path d="M363.65,481.85 C364.78,480.91 365.91,479.97 367.03,479.03 C379.77,477.7 385.02,491.81 392.19,499.8 C397.68,505.31 402.5,519.9 391.04,520.96 C390.02,518.23 388.96,515.5 389.34,512.53 C387.26,509.9 385.47,507.05 383.5,504.34 C382.73,504.51 381.97,504.69 381.21,504.87 C379.78,506.06 378.32,507.23 376.84,508.36 C373.44,516.25 376.94,524.62 375.35,532.62 C370.86,535.68 366.12,533.49 362.4,530.34 C365.36,514.45 365.41,497.86 363.65,481.85 Z" id="Shape" fill-rule="nonzero"></path>
                    </g>
                </g>
                <g id="Group" transform="translate(1048.000000, 279.000000)" fill="#000000">
                    <path d="M157.25003,89 C160.1324,89.3032908 163.042664,89.3216721 165.94363,89.0643344 C166.659573,90.7829825 168.937575,89.87311 170.406654,90.3510228 C171.708369,91.3160391 172.879913,92.6302994 174.553547,92.9795434 C175.213703,94.0088942 176.366651,95.0014824 177.417321,95.6815891 C179.695323,99.4865105 182.140688,102.776757 183.898004,107.059591 C184.799907,118.373258 179.602343,128.574859 172.982191,137.094575 C171.308557,137.517344 171.187683,140.017195 169.207216,139.805811 C165.813458,143.040913 163.526158,148.803439 158.151933,149.989031 L157.863696,151 C156.571279,150.733472 155.204478,150.56804 154.851155,149.097539 C148.017149,148.904536 146.101768,140.66054 146.715434,134.916395 C144.019023,127.306552 145.720551,118.455974 143.200802,110.781797 C143.637807,105.975096 140.848416,101.95879 141.006482,97.2256152 C142.038556,95.1117699 145.134779,95.1944856 146.018086,92.9887341 C149.402546,91.1506078 154.107318,91.0219389 157.25003,89 Z M157.8451,103.971539 C157.956676,106.89416 158.003166,109.81678 157.956676,112.748592 C159.918547,112.941595 158.561044,115.413875 158.951558,116.700563 C157.017581,117.564483 158.375084,120.257338 157.956676,121.966795 C160.941323,123.529202 158.747003,127.802846 161.313242,129.833976 C161.787438,129.75126 162.754427,129.585829 163.228623,129.493922 C164.781384,125.541951 167.319729,122.646902 168.379697,118.750074 C168.835297,118.40083 169.7372,117.702342 170.192801,117.353098 C169.913862,114.154758 169.92316,110.938037 170.229993,107.748888 C167.719541,106.747109 167.208153,103.576342 165.041727,101.407353 C161.815332,99.9919953 159.202604,102.335606 157.8451,103.971539 Z" id="Shape" fill-rule="nonzero"></path>
                    <path d="M72.2532263,90.1924959 C74.4212161,89.8042414 76.5982392,89.4622077 78.766229,89 C83.1383417,90.1000544 81.6839819,96.3491028 84.5204352,98.5307232 C84.5836683,101.322458 84.5927015,104.114192 84.5475351,106.905927 C85.9296286,109.281675 85.8031625,112.11963 87.1581561,114.458401 C87.1039564,119.385536 89.3713124,124.238717 90.8076056,128.204459 C90.5275736,129.507885 90.8527721,130.441544 91.783201,131.014682 C91.7561011,133.630778 91.8283675,136.246873 92,138.862969 C90.4101408,139.972268 87.9169526,139.953779 85.5140972,140 C84.4662355,137.48559 80.9161522,135.008157 79.8682905,131.911365 C74.7464146,122.297444 74.6199485,110.353997 70.1394363,100.499728 C72.3074261,97.9298532 69.2090073,95.3045133 70.2026693,92.290919 C71.124065,91.8287113 71.8105951,91.1261555 72.2532263,90.1924959 Z" id="Path"></path>
                    <path d="M234.360362,0.00593511379 C235.432629,0.329477837 237.311387,-0.641150332 237.659645,0.930342893 C241.188044,0.0891318139 242.791862,2.08585262 244.844749,4.0918175 C245.458782,7.34573288 244.12074,10.3593022 243.112626,13.067817 C239.309286,12.947644 234.891913,12.6703217 232.060029,14.7964596 C229.338121,14.9443648 226.359602,15.5359858 224.215068,17.3570691 C222.941179,17.8470053 220.576693,16.867133 220.145953,18.4940907 C219.156168,18.6235078 218.303854,19.1041998 217.57068,19.9269228 C217.488198,20.9715036 217.424045,22.0345725 217.378222,23.1068855 C219.238651,24.0497815 217.836455,26.9431778 218.322183,28.7365289 C219.623567,29.938259 219.046192,32.8316554 221.016597,33.3400796 C221.254879,35.401509 221.328196,37.8511896 223.390248,38.5075191 C225.965521,38.8587941 225.360653,42.8799679 227.615162,43.7766435 C227.55101,45.3943571 227.496022,47.0213148 227.477692,48.6575165 C225.030724,48.6297843 225.076548,51.7173063 224.774114,53.5476337 C220.741657,54.8602927 217.772303,50.7004577 215.554452,48.1306041 C212.136028,45.8750491 210.862139,41.0958609 208.076078,38.1007797 C205.106724,34.6619828 205.995697,29.7626215 203.896987,25.658251 C203.402094,25.7137155 202.430639,25.8061562 201.935746,25.8616207 C199.745389,27.6549718 197.637514,29.4298347 195.089735,30.4559274 C190.809832,29.3928584 188.307876,26.7120759 183.560575,27.6179955 C183.267306,30.058432 178.006783,28.9491427 178.107594,31.842539 C177.621867,33.4879849 179.949694,33.6358901 179.894706,35.1241867 C181.205254,35.4939498 182.45165,37.2410805 182.689931,38.7663533 C183.963821,39.1823368 184.073797,41.0866168 184.660336,42.2698588 C189.05938,47.4372983 187.950454,58.5671679 180.316281,60 C177.96096,58.9739074 176.806211,56.3855656 175.29404,55.479646 C175.220722,54.3980889 175.165734,53.3350199 175.129075,52.271951 C173.516093,49.665121 172.929554,44.8027361 168.924591,44.3682644 C168.832945,43.2959514 168.750462,42.2421266 168.68631,41.1883017 C167.256621,39.8479104 166.495953,38.0730475 164.663018,37.536891 C163.205835,40.7353419 163.242494,44.081698 163.425787,47.5667154 C166.486788,49.9147111 164.488889,53.58461 163.306646,56.4502741 C161.821969,56.431786 160.355621,56.431786 158.898438,56.44103 C158.449369,56.1729518 157.542066,55.6552834 157.083833,55.3872052 C155.855766,54.2132073 154.847652,52.5492733 153.50961,51.5509129 C153.262164,51.0609768 152.776436,50.0903486 152.52899,49.6004125 C152.474002,46.4759142 151.447558,43.5178093 150.531091,40.75383 C149.073908,40.2176735 150.155339,38.1839764 148.826462,37.4814265 C148.817297,30.4374392 149.385507,22.3118948 146.095389,16.2292916 C145.343886,13.0493289 149.229707,12.23585 150.851855,10.4055226 C154.07782,9.99878321 158.321064,7.88188939 159.82407,11.9030632 C164.058149,13.9552485 166.486788,17.6528796 170.088505,20.3798826 C173.644398,18.2260124 178.78578,19.9361668 181.306066,16.0166779 C184.9811,15.79482 188.601146,14.5653576 191.973746,14.0292011 L191.854605,12.8459592 C194.402384,12.8829355 196.950164,12.9106677 199.507108,12.9199118 C202.284004,10.4887193 206.591401,11.9307955 209.322473,9.25001291 C210.339752,9.22228067 211.366196,9.2130366 212.401804,9.19454844 C215.47197,7.39195327 219.201992,6.47678957 222.070535,4.66495032 C224.105092,4.60948586 226.662036,3.4262439 227.560174,1.90097106 C229.897166,1.56818426 232.17917,0.939586971 234.360362,0.00593511379 Z" id="Path"></path>
                    <path d="M77.3180303,8.1651873 C80.1462121,8.39461411 83.0021212,8.34872875 85.830303,8 C86.4033333,9.37656085 87.179697,10.5236949 87.1334848,12.2765157 C88.8710606,14.3872424 89.2222727,17.3422597 90.6178788,19.7282985 C90.6178788,20.7653077 90.6178788,21.8114939 90.6456061,22.8576802 C91.8563636,24.5462615 92.4756061,26.7304047 92.7251515,28.9604333 C95.045,29.6945991 93.9266667,32.7780954 95.8490909,34.0812397 C97.2724242,34.0445314 98.7142424,34.0261772 100.165303,34.0261772 C100.978636,31.2547014 105.710758,32.8239807 107.642424,30.575598 C107.660909,29.1715059 108.224697,28.4373402 109.315303,28.3639236 C109.075,26.7120505 109.795909,24.3351888 107.337424,24.3902512 C107.429848,21.4352339 107.309697,18.4802166 107.004697,15.5527306 C108.076818,15.4058974 109.897576,15.0479916 110.147121,13.7999097 C110.609242,13.5245976 111.533485,12.9647961 111.986364,12.689484 C113.049242,12.7353693 114.130606,12.7904318 115.221212,12.8454942 C115.711061,13.1391605 116.681515,13.7173161 117.162121,14.0109824 C117.966212,16.6356251 121.31197,17.6451031 121.607727,20.5267038 C121.949697,24.0874079 125.332424,26.1889574 126.007121,29.3183391 C126.598636,29.2540996 127.199394,29.1990372 127.809394,29.1439747 C127.670758,30.6673687 127.550606,32.1907628 127.439697,33.7233338 C128.410152,34.3473748 128.779848,35.3201444 128.548788,36.659997 C130.138485,37.4675794 130.637576,40.3308259 131.367727,42.0561155 C133.622879,43.001354 132.439848,46.3876937 134.112727,48.1405145 C133.373333,50.1594704 133.687576,52.8299985 135,54.5094027 C134.935303,56.6751918 134.898333,58.8409809 134.870606,61.0251241 C133.964848,61.6032797 133.391818,62.4200391 133.142273,63.4662254 C130.443485,63.2551527 127.735455,63.2367986 125.036667,63.4019859 C122.559697,60.7131037 122.374848,56.9046186 121.894242,53.3897999 C120.563333,52.2518429 120.276818,49.6547315 120.230606,47.7550775 C118.779545,46.9199639 119.324848,43.8731759 117.467121,44.0016549 C117.457879,43.4969159 117.420909,42.4690838 117.411667,41.9643448 C114.722121,42.3130736 112.014091,42.3314277 109.34303,42.0377614 C108.252424,43.7722281 106.644242,45.286445 104.657121,45.9655484 C104.130303,46.9750263 102.697727,47.5440048 101.662576,47.7642546 C101.847424,49.8658041 101.339091,53.2980292 103.520303,54.160674 C104.694091,55.0875583 104.897424,57.46442 106.394697,57.9508049 C106.376212,60.3276666 106.403939,62.7137054 106.468636,65.1089213 C106.191364,65.5402437 105.636818,66.4120656 105.359545,66.843388 C105.036061,67.2930645 104.389091,68.1924176 104.056364,68.6420942 C102.078485,68.7613961 100.119091,68.8806981 98.159697,69 C98.0487879,67.6234391 96.8842424,66.7516173 96.9674242,65.2649315 C93.5569697,63.9617873 92.2075758,59.9330525 89.924697,57.2166391 C89.8507576,56.702723 89.7121212,55.6565368 89.6474242,55.1334437 C87.484697,54.6470588 88.8433333,50.7192719 86.9671212,50.361366 C86.9486364,48.0028584 86.0428788,45.2222055 84.2498485,43.8731759 C83.3718182,41.734918 83.1037879,39.5232436 83.0390909,37.173913 C81.1443939,36.5406951 81.5048485,34.6777494 81.3107576,33.1268241 C79.8504545,32.6220852 80.0445455,29.94238 79.5454545,28.4924026 C77.4381818,24.9592297 75.894697,19.416278 74,15.2131789 C74.0277273,13.9834512 74.0739394,12.7720776 74.1201515,11.5698811 C75.1737879,10.028133 77.0869697,10.2392057 77.3180303,8.1651873 Z" id="Path"></path>
                    <path d="M197.049811,99 C199.910191,99.1461467 202.78879,99.1918175 205.676498,99.1278784 C207.443739,100.050429 209.311185,100.607614 210.65028,101.996007 C212.836557,105.220369 215.305229,108.55434 217.008704,112.198873 C217.090689,113.431986 217.200003,114.674233 217.318426,115.925614 C218.566426,116.802494 217.719244,118.638462 218.867039,119.64322 C219.550251,124.502598 217.537054,128.5399 214.284966,131.042662 C213.993462,131.517639 213.410455,132.458458 213.118951,132.933435 C206.514571,133.289667 199.718892,132.275775 194.262307,128.439424 C192.485957,125.580429 189.379621,123.662254 187.166015,120.922004 C186.728759,119.734562 187.311767,118.008204 186,117.34141 C186.054657,115.057868 186.109314,112.78346 186.163971,110.509052 C187.43019,107.430837 188.623533,103.786304 192.24911,102.589728 C193.123621,100.351857 196.71276,100.899907 197.049811,99 Z M200.657169,117.377946 C201.395038,117.871192 202.315096,118.3279 203.408235,118.748072 C202.980089,116.610676 204.528702,113.450254 202.06914,112.372422 C199.518483,112.609911 201.067096,115.669857 200.657169,117.377946 Z" id="Shape" fill-rule="nonzero"></path>
                    <path d="M6.80878494,21.1093117 C8.83101943,21.1184211 10.8715547,21.1184211 12.9029396,21.1093117 C16.1421749,22.0293522 15.3826932,27.194332 18.5578759,27.7317814 C18.2925148,31.9949393 18.6493797,36.2672065 18.4755224,40.5394737 C20.7814188,43.4453441 21.3578929,47.5354251 22.2180288,51.0880567 C24.2494137,51.8168016 22.7396006,55.9342105 25.3749107,56.3350202 C28.1474766,54.5131579 25.4572642,50.3137652 27.5069498,48.0091093 C27.4794987,46.8340081 27.4611979,45.6771255 27.4611979,44.5202429 C32.2193967,44.7661943 34.1226762,39.9838057 39.0913338,41.3410931 C42.5227272,44.4291498 44.4351571,49.5759109 48.8456414,50.5779352 C49.0103483,49.958502 49.3397621,48.7105263 49.5136193,48.0910931 C47.2717757,42.944332 50.3463041,37.3238866 49.6234239,31.7580972 C50.3371537,30.847166 50.6574171,29.7995951 50.5750637,28.6062753 C53.1463211,26.3198381 55.8365335,24.0060729 57.3097451,21.1275304 C59.5241376,21.3006073 61.7568309,21.2277328 63.9803738,21 C64.0444265,21.5101215 64.1633815,22.5121457 64.2274341,23.0222672 C66.0392099,22.6761134 65.1699235,25.7823887 66.8444435,26.082996 C67.5490229,29.7995951 63.696712,31.7854251 61.4731691,34.208502 C61.3542141,39.26417 63.0561852,43.6275304 62.4339592,48.8562753 C65.252277,51.2793522 63.3398471,56.562753 66.9542481,58.667004 C66.9542481,59.3866397 66.9725489,60.1244939 67,60.8714575 C65.7097961,61.6730769 65.7006457,63.48583 65.0418182,64.8157895 C63.6418097,65.2894737 61.4640187,66.1730769 61.4182668,67.7672065 C54.9946984,68.2955466 50.2639507,64.041498 44.4626083,62.8299595 C42.1841631,61.937247 41.4429821,57.9200405 38.7619201,59.8421053 C38.6521155,61.6093117 38.5697621,63.3947368 38.4874086,65.1801619 C37.133152,66.8836032 37.9658368,69.4615385 36.6939337,71.1376518 C35.5592863,72.5860324 33.6926083,73.2874494 33.0246304,75 C31.9357349,74.9544534 30.8559897,74.9180162 29.7945454,74.8997976 C27.6167544,73.1508097 23.4167289,73.6882591 22.0533219,71.3107287 C18.7500339,70.2176113 16.288581,68.7327935 15.5199489,65.0708502 C14.2114443,64.9706478 14.2205946,63.194332 13.1316991,62.7115385 C13.0493457,62.2105263 12.8754884,61.2176113 12.793135,60.7165992 C11.5120815,59.0678138 10.5146898,57.0364372 10.1395241,54.9686235 C8.21794382,54.4311741 8.74866599,51.242915 8.36434993,49.5212551 C7.59571782,48.9473684 7.22970252,48.1275304 7.26630405,47.0708502 C4.77740005,42.0607287 4.64014432,34.5546559 0.202208882,31.2297571 C-0.850085087,27.8502024 2.51725562,26.6933198 3.13033123,23.832996 C4.19177558,23.8147773 5.26237032,23.7965587 6.34211544,23.7874494 C6.46107041,23.1133603 6.68982996,21.7742915 6.80878494,21.1093117 Z" id="Path"></path>
                </g>
            </g>
        </g>
    </g>
</svg>